<svg width="36" height="36" xmlns="http://www.w3.org/2000/svg" viewBox="0 0 36 36">
    <path d="M15.7,20.5c5.2,0,9.4-4.6,9.4-10.3C25.1,4.6,20.9,0,15.7,0S6.3,4.6,6.3,10.3c-0.1,3,1.1,5.8,3.3,7.8
		C11.3,19.6,13.5,20.5,15.7,20.5z M11.4,4c1.2-1.1,2.7-1.7,4.3-1.7c3.8,0,6.8,3.6,6.8,8c0,4.3-3.1,8-6.8,8c-3.8,0-6.8-3.6-6.8-8
		C8.8,7.9,9.8,5.6,11.4,4z"/>
    <path d="M29.2,24.4l-7-2.5c-0.3-0.1-0.6-0.1-0.9,0c-0.3,0.1-0.6,0.4-0.7,0.7c-0.2,0.6,0.1,1.3,0.7,1.6l7,2.5
		c0.6,0.2,1.1,0.9,1.1,1.5V29c0,0.2-0.1,0.4-0.7,0.4H3.3c-0.7,0-0.7-0.1-0.7-0.4v-0.7c0-0.6,0.5-1.4,1.1-1.5l6.3-2.5
		c0.3-0.1,0.5-0.4,0.7-0.7c0.1-0.3,0.2-0.6,0-0.9c-0.1-0.3-0.4-0.6-0.7-0.8c-0.3-0.2-0.7-0.2-1-0.1l-6.3,2.6C1.2,25,0,26.7,0,28.3
		V29c0,1.8,1.4,3,3.3,3h25.4c1.9,0,3.3-1.2,3.3-2.9v-0.7C32,26.7,30.8,25,29.2,24.4z"/>
</svg>