<svg width="36" height="33" viewBox="0 0 36 33" fill="none" xmlns="http://www.w3.org/2000/svg">
<path fill-rule="evenodd" clip-rule="evenodd" d="M26.2197 0C31.7955 0 36 4.5494 36 10.5823V22.0822C36 25.1699 34.9083 27.9594 32.9241 29.9386C31.1442 31.7118 28.8352 32.6512 26.2465 32.6512H9.74846C7.16484 32.6512 4.85749 31.7135 3.07591 29.9386C1.09172 27.9594 0 25.1699 0 22.0822V10.5823C0 4.5494 4.20447 0 9.78028 0H26.2197ZM26.2197 2.51163H9.78028C5.56912 2.51163 2.51163 5.90567 2.51163 10.5823V22.0822C2.51163 24.4984 3.34214 26.6567 4.84912 28.1587C6.14846 29.4564 7.84465 30.1395 9.75349 30.1395H26.2197C26.2231 30.1362 26.2365 30.1395 26.2465 30.1395C28.157 30.1395 29.8515 29.4564 31.1509 28.1587C32.6595 26.6567 33.4884 24.4984 33.4884 22.0822V10.5823C33.4884 5.90567 30.4309 2.51163 26.2197 2.51163ZM28.8586 10.2622C29.2956 10.7997 29.2136 11.59 28.6761 12.0287L21.235 18.0767C20.294 18.8235 19.1687 19.1969 18.0452 19.1969C16.925 19.1969 15.8082 18.8268 14.8739 18.0867L7.36409 12.032C6.82326 11.5967 6.73953 10.8047 7.17321 10.2655C7.61023 9.72804 8.40056 9.64264 8.93972 10.0763L16.4428 16.1243C17.3855 16.8711 18.7133 16.8711 19.6627 16.1176L27.0904 10.0797C27.6296 9.63929 28.4199 9.72301 28.8586 10.2622Z" fill="#141414"/>
</svg>
