<?xml version="1.0" encoding="utf-8"?>
<!-- Generator: Adobe Illustrator 24.2.0, SVG Export Plug-In . SVG Version: 6.00 Build 0)  -->
<svg version="1.1" id="Шар_1" xmlns="http://www.w3.org/2000/svg" xmlns:xlink="http://www.w3.org/1999/xlink" x="0px" y="0px"
	 viewBox="0 0 1920 496" style="enable-background:new 0 0 1920 496;" xml:space="preserve">
<style type="text/css">
	.st0{fill:none;stroke:#F0F0F0;stroke-width:74;}
	.st1{fill:#141414;}
</style>
<path class="st0" d="M-31.2,311.6C32.7,256,297.3-47.4,622.3,61c292.5,97.5,308.5,392,593.5,328c252-56.6,312.5-17,442.5,31.5
	c153.8,57.4,261.5,41,341.5,6.7"/>
<path class="st1" d="M15,289.2l-3,2.9l-2.6-2.7l-0.2,0.2c0.4,1.2,0.5,2.5,0.3,3.9c-0.3,1.4-1,2.6-2.1,3.7c-1.3,1.3-2.7,2-4.1,2.2
	c-1.4,0.1-2.8-0.1-4.1-0.7c-1.3-0.6-2.5-1.5-3.5-2.6l-8.7-9.1l3-2.9l8.3,8.6c1.3,1.3,2.6,2.1,4,2.2c1.4,0.1,2.6-0.4,3.8-1.5
	c1.2-1.1,1.7-2.4,1.6-3.8c-0.1-1.5-0.8-2.8-2-4.1l-8.3-8.6l3-2.9L15,289.2z"/>
<path class="st1" d="M27.7,277.5c-1.3,1.2-2.7,1.9-4.1,2.1c-1.4,0.1-2.7,0-4-0.5l-0.2,0.2l2.8,3l-3,2.9l-20.7-21.8l3-2.9l8.7,9.1
	l0.2-0.2c-0.4-1.2-0.4-2.5-0.2-3.9c0.2-1.4,1-2.7,2.3-4c1.3-1.3,2.8-2,4.4-2.2c1.6-0.2,3.2,0,4.8,0.7c1.6,0.7,3.2,1.9,4.7,3.4
	c1.5,1.5,2.5,3.1,3.1,4.8c0.7,1.7,0.8,3.3,0.5,4.9C29.8,274.8,29,276.2,27.7,277.5z M24.3,275.9c1.4-1.3,1.9-2.8,1.6-4.5
	c-0.3-1.7-1.1-3.4-2.6-4.9c-1.5-1.5-3-2.5-4.7-2.8c-1.7-0.4-3.2,0.1-4.6,1.4c-1.4,1.3-1.9,2.8-1.7,4.6c0.3,1.7,1.1,3.3,2.6,4.9
	c1.5,1.5,3,2.5,4.7,2.8C21.4,277.7,23,277.2,24.3,275.9z"/>
<path class="st1" d="M41.9,264.2c-1.3,1.2-2.6,2-4,2.3c-1.4,0.4-2.7,0.4-3.9,0.1c-1.2-0.3-2.2-1-3-1.8l-0.1-0.1l3-2.8l0.1,0.1
	c0.7,0.7,1.5,1.1,2.6,1.1c1.1,0,2.1-0.4,3.1-1.4c0.8-0.8,1.3-1.6,1.5-2.5c0.2-0.9-0.1-1.7-0.7-2.4c-0.6-0.6-1.2-0.9-2-0.8
	c-0.8,0-1.5,0.3-2.3,0.8l-2.2,1.5c-1.4,1-2.9,1.5-4.4,1.6c-1.5,0.1-2.9-0.5-4.1-1.8c-1.3-1.4-1.9-3.1-1.6-4.8
	c0.3-1.8,1.3-3.4,2.9-4.9c1.2-1.1,2.4-1.8,3.7-2.2c1.3-0.4,2.5-0.4,3.6-0.1s2.1,0.9,2.9,1.7l0.1,0.1l-3,2.8l-0.1-0.1
	c-0.5-0.6-1.3-0.9-2.3-1s-2,0.3-2.9,1.2c-0.8,0.8-1.3,1.6-1.4,2.5c-0.1,0.9,0.1,1.7,0.7,2.3c0.5,0.6,1.2,0.8,1.9,0.8
	c0.8,0,1.5-0.3,2.2-0.8l2.5-1.6c1.5-1,3-1.5,4.5-1.6c1.5-0.1,2.9,0.5,4.1,1.8c0.9,0.9,1.4,2,1.6,3.2c0.2,1.2,0,2.4-0.6,3.6
	C43.8,262,43,263.1,41.9,264.2z"/>
<path class="st1" d="M58.5,249.1c-1.6,1.5-3.4,2.3-5.2,2.6c-1.8,0.2-3.5,0-5.2-0.8c-1.7-0.8-3.1-1.9-4.4-3.3c-1.3-1.4-2.2-3-2.8-4.7
	c-0.6-1.7-0.6-3.5-0.2-5.3c0.4-1.8,1.4-3.4,3.1-4.9c2-1.8,4.2-2.7,6.5-2.6c2.2,0.1,4.3,0.9,6.1,2.4l-3,2.7c-1.1-0.9-2.3-1.4-3.6-1.4
	c-1.3-0.1-2.5,0.4-3.6,1.4c-1.5,1.3-2.1,2.8-1.9,4.6c0.2,1.7,1.1,3.4,2.5,5c1.4,1.6,3,2.6,4.7,3c1.7,0.4,3.3,0,4.7-1.4
	c1.1-1,1.7-2.1,1.8-3.4c0.1-1.3-0.3-2.5-1.1-3.7l3-2.7c1.3,2,1.9,4.1,1.8,6.3C61.6,245.2,60.5,247.2,58.5,249.1z"/>
<path class="st1" d="M54.8,223.6l3.1-2.7l2.2,2.5l0.2-0.2c-0.4-0.9-0.4-1.9-0.2-3c0.2-1.1,0.9-2.1,2-3c0.3-0.2,0.5-0.4,0.7-0.6
	c0.2-0.2,0.5-0.3,0.7-0.4l2.5,3.1c-0.7,0.3-1.3,0.7-1.9,1.2c-1.2,1-1.8,2.2-1.8,3.4c-0.1,1.2,0.6,2.6,1.9,4.2l7.6,8.6l-3.1,2.7
	L54.8,223.6z"/>
<path class="st1" d="M66.7,213.1l3.1-2.7l13.7,16l-3.1,2.7L66.7,213.1z M65.8,208.9c-0.5,0.5-1.2,0.7-1.8,0.6
	c-0.7-0.1-1.2-0.4-1.7-0.9c-0.5-0.5-0.7-1.2-0.6-1.8s0.4-1.2,0.9-1.7c0.5-0.5,1.2-0.7,1.9-0.6c0.7,0.1,1.2,0.3,1.7,0.9
	c0.5,0.5,0.7,1.1,0.6,1.8C66.6,207.8,66.3,208.4,65.8,208.9z"/>
<path class="st1" d="M97.8,215c-1.4,1.2-2.8,1.8-4.2,1.8c-1.4,0-2.7-0.2-3.9-0.7l-0.2,0.2l2.6,3.1l-3.2,2.7L69.6,199l3.2-2.7l8,9.7
	l0.2-0.2c-0.3-1.2-0.3-2.5,0-3.9c0.3-1.4,1.2-2.6,2.6-3.8c1.4-1.2,2.9-1.8,4.6-1.9c1.6-0.1,3.2,0.2,4.8,1.1c1.6,0.8,3.1,2.1,4.4,3.7
	c1.3,1.6,2.3,3.3,2.8,5c0.5,1.7,0.6,3.3,0.2,4.9C100.1,212.5,99.2,213.8,97.8,215z M94.5,213.2c1.5-1.2,2.1-2.7,1.9-4.4
	c-0.2-1.7-0.9-3.4-2.3-5.1c-1.3-1.6-2.8-2.7-4.5-3.1c-1.7-0.5-3.2-0.1-4.7,1.1c-1.5,1.2-2.1,2.7-2,4.4c0.2,1.7,0.9,3.4,2.3,5
	s2.9,2.7,4.5,3.1C91.5,214.8,93.1,214.4,94.5,213.2z"/>
<path class="st1" d="M113.7,202.1c-1.7,1.4-3.5,2.1-5.3,2.2s-3.5-0.3-5.1-1.1c-1.6-0.9-3-2-4.2-3.5c-1.2-1.5-2-3.1-2.5-4.8
	c-0.5-1.8-0.5-3.5,0.1-5.3c0.5-1.8,1.7-3.3,3.4-4.7c2.3-1.8,4.6-2.5,7.2-2.1c2.5,0.4,4.9,2,7.1,4.8l0.7,0.9l-12,9.6l0.2,0.2
	c0.7,0.8,1.5,1.5,2.4,1.9c1,0.4,2,0.6,3,0.5c1-0.1,2-0.5,2.9-1.2c1-0.8,1.6-1.7,2-2.7c0.3-1.1,0.3-2.1-0.1-3.2l3.2-2.5
	c0.8,1.9,1,3.8,0.6,5.8C116.8,198.8,115.6,200.6,113.7,202.1z M110.1,188.9c-1.4-1.6-2.8-2.5-4.2-2.6c-1.4-0.2-2.7,0.2-3.9,1.2
	c-1.3,1.1-2.1,2.4-2.2,3.9c-0.1,1.5,0.4,3,1.5,4.5L110.1,188.9z"/>
<path class="st1" d="M128.4,167.9l6.7,9c0.6,0.8,1.1,1.3,1.4,1.7c0.4,0.3,0.8,0.4,1.3,0.4c0.5,0,1.1-0.3,1.9-0.9
	c0.5-0.4,1-0.9,1.4-1.4l1.7,2.3c-0.1,0.2-0.4,0.5-0.9,1c-0.5,0.5-1,0.9-1.6,1.3c-1.3,1-2.5,1.6-3.4,1.7c-1,0.1-1.8-0.1-2.4-0.6
	c-0.6-0.5-1.4-1.3-2.1-2.3l-7.3-9.8l-3,2.3l-2-2.6l3-2.3l-4.1-5.5l3.3-2.5l4.1,5.5l3.9-2.9l2,2.6L128.4,167.9z"/>
<path class="st1" d="M153.4,172.1c-1.8,1.3-3.5,1.9-5.3,1.9c-1.8,0-3.5-0.4-5.1-1.3c-1.6-0.9-2.9-2.2-4-3.8c-1.1-1.6-1.9-3.3-2.3-5
	c-0.4-1.8-0.2-3.5,0.4-5.2c0.6-1.7,1.8-3.2,3.6-4.5c1.8-1.3,3.5-1.9,5.4-1.9c1.8,0,3.5,0.4,5.1,1.3c1.6,0.9,2.9,2.2,4,3.7
	c1.1,1.6,1.9,3.2,2.2,5c0.4,1.8,0.2,3.5-0.4,5.2C156.4,169.3,155.2,170.8,153.4,172.1z M151.4,169.3c1.5-1.1,2.2-2.5,2.2-4.2
	c0-1.8-0.6-3.5-1.9-5.3c-1.3-1.8-2.7-2.9-4.4-3.5c-1.6-0.6-3.2-0.3-4.7,0.8c-1.5,1.1-2.2,2.5-2.2,4.2c0,1.8,0.6,3.5,1.8,5.2
	c1.3,1.8,2.7,2.9,4.4,3.5C148.3,170.6,149.9,170.3,151.4,169.3z"/>
<path class="st1" d="M157.6,134.5l5.1-3.3l17.3,12.6l0.1-0.1l-4.5-20.9l5.1-3.3L196,143l-3.4,2.2l-11.9-18.3l-0.1,0.1l5.1,22.7
	l-2.4,1.6l-18.7-13.9l-0.1,0.1l11.9,18.3l-3.4,2.2L157.6,134.5z"/>
<path class="st1" d="M210.3,137.8c0.2,1.1,0.2,2,0.2,2.8c0,0.8-0.2,1.7-0.7,2.7c-0.5,1-1.4,1.9-2.7,2.7c-0.7,0.4-1.5,0.8-2.4,1
	l-1.5-2.6c0.6-0.2,1.1-0.5,1.5-0.7c0.8-0.5,1.3-1,1.6-1.5c0.3-0.5,0.4-1.1,0.4-1.7c0-0.6-0.1-1.4-0.2-2.4l-0.3-2.3l-17.1-13.4
	l3.7-2.2l12.7,10.6l0.2-0.1l-3.1-16.4l3.6-2.2L210.3,137.8z"/>
<path class="st1" d="M214,99.7l4.2-2.2l22.4,12.4l0.1-0.1l-10.2-18.9l3.6-2l13.3,24.7l-4.2,2.3l-22.1-12l-0.1,0.1l10,18.5l-3.6,2
	L214,99.7z"/>
<path class="st1" d="M262.3,106.5c-2,1-3.8,1.3-5.6,1c-1.8-0.3-3.4-1-4.8-2.2c-1.4-1.2-2.5-2.6-3.3-4.3c-0.8-1.7-1.3-3.5-1.4-5.3
	c-0.1-1.8,0.3-3.5,1.2-5.1c0.9-1.6,2.3-2.9,4.3-3.8c2.6-1.3,5.1-1.4,7.4-0.5c2.4,0.9,4.3,3,5.9,6.2l0.5,1l-13.8,6.7l0.1,0.3
	c0.5,1,1.1,1.8,2,2.4c0.8,0.6,1.8,1,2.8,1.2c1,0.1,2.1-0.1,3.1-0.6c1.1-0.6,2-1.3,2.5-2.2c0.5-1,0.7-2,0.6-3.2l3.7-1.8
	c0.4,2,0.2,3.9-0.7,5.8C266,103.9,264.5,105.4,262.3,106.5z M261.6,92.8c-1-1.9-2.2-3.1-3.5-3.5c-1.3-0.5-2.7-0.3-4.1,0.4
	c-1.5,0.7-2.5,1.9-3,3.3c-0.4,1.5-0.2,3,0.5,4.7L261.6,92.8z"/>
<path class="st1" d="M263.6,81.9l3.6-1.5l10.6,13.5l0.2-0.1l-2-17.2l3.4-1.5l11.3,13.2l0.2-0.1l-2.8-16.9l3.6-1.6l3.2,21.6l-4.7,2.1
	l-9.7-11.6l-0.3,0.1l1.9,15l-4.7,2.1L263.6,81.9z"/>
<path class="st1" d="M309.4,85.8c-1.6,0.6-3.1,0.8-4.5,0.7c-1.4-0.2-2.6-0.6-3.6-1.4c-1-0.8-1.7-1.7-2.2-2.8l-0.1-0.2l3.8-1.5
	l0.1,0.1c0.3,0.9,1,1.6,2,2c1,0.4,2.1,0.4,3.4-0.1c1.1-0.4,1.9-1,2.3-1.8c0.5-0.8,0.6-1.6,0.2-2.5c-0.3-0.8-0.8-1.3-1.5-1.5
	c-0.7-0.2-1.5-0.3-2.4-0.1l-2.6,0.6c-1.7,0.4-3.3,0.3-4.7-0.1c-1.5-0.5-2.5-1.5-3.2-3.2c-0.7-1.8-0.6-3.5,0.3-5.1
	c0.9-1.5,2.4-2.7,4.5-3.5c1.5-0.6,2.9-0.8,4.3-0.7c1.3,0.1,2.5,0.5,3.4,1.2c0.9,0.7,1.6,1.6,2,2.7l0.1,0.1l-3.8,1.5l0-0.1
	c-0.3-0.7-0.9-1.4-1.7-1.8c-0.9-0.5-1.9-0.5-3.2,0c-1,0.4-1.8,1-2.2,1.8c-0.4,0.8-0.5,1.6-0.2,2.4c0.3,0.7,0.8,1.2,1.5,1.4
	c0.7,0.2,1.5,0.3,2.4,0.1l2.9-0.5c1.8-0.3,3.4-0.3,4.8,0.2c1.5,0.4,2.5,1.5,3.1,3.2c0.5,1.2,0.5,2.4,0.3,3.5
	c-0.3,1.2-0.9,2.2-1.9,3.2S310.8,85.3,309.4,85.8z"/>
<path class="st1" d="M325.5,79.7c-1.6,0.6-2.9,0.7-3.9,0.5s-1.7-0.7-2.1-1.4c-0.5-0.7-1-1.7-1.4-3l-8-22.7l3.9-1.4l7.8,22
	c0.3,0.9,0.6,1.6,0.8,2c0.3,0.4,0.6,0.7,1.1,0.8c0.5,0.1,1.2,0,2.1-0.3c0.5-0.2,0.9-0.4,1.2-0.6l1,2.8
	C327.1,79.1,326.2,79.5,325.5,79.7z"/>
<path class="st1" d="M340.4,74.9c-2.1,0.7-4,0.7-5.7,0.2c-1.7-0.5-3.2-1.5-4.4-2.9c-1.2-1.4-2.1-3-2.6-4.8c-0.6-1.8-0.8-3.6-0.6-5.4
	c0.2-1.8,0.8-3.4,1.9-4.9c1.1-1.5,2.7-2.5,4.8-3.2c2.7-0.9,5.2-0.7,7.4,0.6c2.2,1.3,3.8,3.6,4.9,7l0.4,1.1l-14.6,4.6l0.1,0.3
	c0.3,1,0.9,1.9,1.6,2.6c0.7,0.7,1.6,1.3,2.6,1.6c1,0.3,2.1,0.2,3.2-0.1c1.2-0.4,2.1-1,2.8-1.9c0.7-0.9,1-1.9,1.1-3l3.9-1.2
	c0.1,2-0.4,3.9-1.5,5.6C344.4,72.9,342.7,74.1,340.4,74.9z M341.7,61.2c-0.8-2-1.7-3.3-3-4c-1.2-0.7-2.6-0.7-4.1-0.3
	c-1.6,0.5-2.8,1.5-3.4,2.8c-0.6,1.4-0.7,3-0.2,4.8L341.7,61.2z"/>
<path class="st1" d="M356.3,51.5l3,10.9c0.3,1,0.5,1.6,0.7,2.1c0.2,0.4,0.6,0.7,1,0.8c0.5,0.1,1.2,0.1,2.1-0.2
	c0.6-0.2,1.3-0.4,1.8-0.8l0.8,2.8c-0.2,0.1-0.6,0.3-1.2,0.6c-0.6,0.3-1.3,0.5-2,0.7c-1.6,0.4-2.9,0.5-3.8,0.3
	c-0.9-0.3-1.6-0.7-2.1-1.4c-0.4-0.7-0.8-1.7-1.1-2.9l-3.2-11.8l-3.7,1l-0.9-3.2l3.7-1l-1.8-6.7l4-1.1l1.8,6.7l4.7-1.3l0.9,3.2
	L356.3,51.5z"/>
<path class="st1" d="M374.7,46.6l2.6,11c0.2,1,0.4,1.7,0.6,2.1c0.2,0.4,0.5,0.7,1,0.9c0.5,0.2,1.2,0.1,2.1-0.1
	c0.6-0.2,1.3-0.4,1.9-0.7l0.7,2.8c-0.2,0.1-0.6,0.3-1.2,0.5c-0.7,0.2-1.3,0.4-2,0.6c-1.6,0.4-2.9,0.4-3.8,0.2
	c-0.9-0.3-1.6-0.8-2-1.5c-0.4-0.7-0.7-1.7-1-3l-2.8-11.9l-3.7,0.9l-0.8-3.2l3.7-0.9l-1.6-6.7l4-0.9l1.6,6.7l4.8-1.1l0.8,3.2
	L374.7,46.6z"/>
<path class="st1" d="M397.8,60.1c-2.1,0.4-4.1,0.2-5.7-0.5c-1.7-0.7-3-1.9-4-3.3c-1-1.5-1.7-3.2-2.1-5.1c-0.4-1.9-0.3-3.7,0.1-5.4
	c0.4-1.8,1.2-3.3,2.5-4.6c1.3-1.3,3-2.2,5.2-2.6c2.8-0.5,5.3,0,7.3,1.5c2,1.5,3.4,4,4.1,7.5l0.2,1.1l-15.1,2.9l0.1,0.3
	c0.2,1,0.6,2,1.3,2.8c0.6,0.8,1.5,1.4,2.4,1.9c1,0.4,2,0.5,3.1,0.3c1.2-0.2,2.2-0.7,3-1.5c0.8-0.8,1.3-1.8,1.4-2.9l4-0.8
	c-0.2,2-0.9,3.8-2.2,5.4C402,58.7,400.2,59.7,397.8,60.1z M400.7,46.7c-0.5-2.1-1.3-3.5-2.5-4.3c-1.1-0.8-2.5-1-4.1-0.7
	c-1.7,0.3-2.9,1.1-3.7,2.4c-0.8,1.3-1,2.9-0.7,4.7L400.7,46.7z"/>
<path class="st1" d="M407,36.8l4.1-0.6l0.5,3.3l0.2,0c0.2-1,0.7-1.8,1.5-2.6c0.8-0.8,1.9-1.3,3.3-1.5c0.4-0.1,0.7-0.1,1-0.1
	c0.3,0,0.5,0,0.8,0.1l0.4,3.9c-0.7-0.1-1.5-0.1-2.3,0c-1.6,0.2-2.7,0.9-3.4,1.9c-0.7,1-0.9,2.5-0.6,4.5l1.7,11.3l-4.1,0.6L407,36.8z
	"/>
<path class="st1" d="M451.9,29.9c1.4-0.1,2.9,0.2,4.3,0.9c1.5,0.7,2.6,1.7,3.4,3c0.8,1.4,1.3,2.7,1.4,4.1c0.2,2.4-0.6,4.5-2.1,6.2
	c-1.6,1.8-3.5,2.8-5.9,2.9c-2.4,0.2-4.4-0.6-6.2-2.1c-1.8-1.6-2.8-3.5-2.9-5.9c-0.1-1.4,0.2-2.8,0.8-4.2c0.6-1.4,1.6-2.6,3-3.4
	C449,30.4,450.4,30,451.9,29.9z"/>
<path class="st1" d="M497.3,52.4c-2.2-0.1-4-0.6-5.6-1.5c-1.5-1-2.6-2.2-3.4-3.6c-0.7-1.4-1-2.9-1-4.5l0-0.2l4.6,0.2l0,0.2
	c0,0.9,0.1,1.7,0.5,2.6c0.4,0.8,1,1.6,1.8,2.2c0.9,0.6,2,0.9,3.3,1c1.6,0.1,3-0.3,4-1.1c1.1-0.8,1.6-1.9,1.7-3.3
	c0-1.2-0.3-2.1-1.1-2.8c-0.7-0.7-1.7-1.2-2.9-1.5l-3.8-0.9c-1.7-0.4-3.3-1.2-4.8-2.3c-1.5-1.2-2.2-3-2.1-5.5c0.1-1.6,0.5-3,1.3-4.2
	c0.8-1.2,2-2.1,3.4-2.7c1.4-0.6,3.1-0.9,4.9-0.8c2.1,0.1,3.8,0.6,5.3,1.4s2.5,2,3.2,3.4c0.7,1.3,1.1,2.7,1,4.2l0,0.2l-4.6-0.2l0-0.1
	c0-0.7-0.1-1.5-0.4-2.3c-0.3-0.8-0.9-1.5-1.7-2c-0.8-0.6-1.8-0.9-3.1-1c-1.5-0.1-2.8,0.3-3.7,1.1c-0.9,0.8-1.4,1.8-1.4,3.1
	c0,1.1,0.3,2,1,2.7c0.7,0.7,1.7,1.2,2.9,1.5l3.5,0.9c2,0.5,3.8,1.4,5.3,2.6c1.5,1.2,2.2,3,2.1,5.4c-0.1,1.7-0.5,3.1-1.4,4.3
	c-0.9,1.2-2.1,2.2-3.6,2.9C501,52.2,499.3,52.5,497.3,52.4z"/>
<path class="st1" d="M529.5,54.5l-4.1-0.4l0.4-3.8l-0.3,0c-0.6,1.1-1.6,2-2.7,2.7c-1.2,0.7-2.6,1-4.2,0.8c-1.8-0.2-3.2-0.7-4.3-1.7
	c-1-1-1.7-2.2-2.1-3.5c-0.4-1.4-0.5-2.8-0.4-4.3l1.2-12.5l4.1,0.4l-1.1,11.9c-0.2,1.9,0.2,3.3,1,4.5c0.8,1.1,2,1.8,3.6,1.9
	c1.6,0.2,2.9-0.3,4-1.3c1-1,1.6-2.4,1.8-4.1l1.1-11.9l4.1,0.4L529.5,54.5z"/>
<path class="st1" d="M545.7,57.1c-1.8-0.3-3.2-0.9-4.2-1.9c-1-1-1.7-2.2-2.1-3.4l-0.3,0l-0.6,4l-4.2-0.6l4.5-29.7L543,26l-1.9,12.5
	l0.3,0c0.7-1,1.7-1.9,2.9-2.6c1.2-0.7,2.7-0.9,4.5-0.6c1.8,0.3,3.3,1,4.5,2.1c1.2,1.1,2,2.6,2.4,4.3c0.4,1.7,0.5,3.7,0.2,5.8
	c-0.3,2.1-0.9,3.9-1.9,5.4c-0.9,1.5-2.1,2.7-3.5,3.4C549.1,57.1,547.4,57.3,545.7,57.1z M544.8,53.5c1.9,0.3,3.4-0.2,4.6-1.5
	c1.2-1.3,1.9-3,2.3-5.1c0.3-2.1,0.1-3.9-0.6-5.4c-0.7-1.6-2.1-2.5-4-2.8c-1.9-0.3-3.4,0.2-4.6,1.5c-1.2,1.3-1.9,3-2.3,5
	c-0.3,2.1-0.1,3.9,0.7,5.5C541.6,52.2,543,53.2,544.8,53.5z"/>
<path class="st1" d="M565,60.2c-1.7-0.3-3.1-1-4.2-1.9c-1.1-0.9-1.9-1.9-2.3-3.1c-0.4-1.2-0.5-2.4-0.3-3.5l0-0.2l4,0.8l0,0.2
	c-0.2,0.9,0,1.9,0.6,2.8c0.6,0.9,1.6,1.5,3,1.7c1.1,0.2,2.1,0.1,2.9-0.3c0.8-0.4,1.4-1.1,1.5-2c0.2-0.8,0-1.5-0.5-2.1
	c-0.5-0.6-1.1-1-2-1.4l-2.5-0.9c-1.6-0.6-2.9-1.5-3.9-2.6c-1-1.2-1.3-2.7-0.9-4.4c0.4-1.9,1.4-3.3,3-4.1s3.5-1,5.7-0.5
	c1.6,0.3,2.9,0.9,4,1.7c1.1,0.8,1.8,1.8,2.2,2.8s0.5,2.2,0.3,3.3l0,0.2l-4-0.8l0-0.1c0.2-0.8,0-1.6-0.5-2.5
	c-0.5-0.9-1.4-1.4-2.7-1.7c-1.1-0.2-2-0.1-2.8,0.3c-0.8,0.4-1.3,1.1-1.5,2c-0.2,0.8,0,1.4,0.5,2c0.5,0.6,1.1,1,2,1.3l2.7,1.1
	c1.7,0.7,3,1.6,3.9,2.7c1,1.2,1.3,2.6,1,4.4c-0.3,1.3-0.8,2.3-1.7,3.1c-0.9,0.8-2,1.4-3.3,1.7C567.9,60.5,566.5,60.5,565,60.2z"/>
<path class="st1" d="M585.1,65.2c-2.1-0.5-3.8-1.5-5-2.9c-1.2-1.4-1.9-3-2.3-4.7c-0.3-1.8-0.2-3.6,0.3-5.5c0.5-1.8,1.3-3.5,2.4-4.9
	c1.1-1.4,2.6-2.5,4.3-3.1c1.7-0.6,3.6-0.7,5.8-0.1c2.7,0.7,4.6,2,5.7,3.9c1.2,1.9,1.6,4.1,1.3,6.4l-3.9-1c0.1-1.5-0.1-2.7-0.8-3.8
	c-0.6-1.1-1.7-1.8-3.2-2.2c-1.9-0.5-3.5-0.2-4.8,1c-1.3,1.2-2.2,2.8-2.8,4.8c-0.5,2.1-0.5,3.9,0.1,5.6s1.9,2.7,3.8,3.2
	c1.5,0.4,2.7,0.2,3.8-0.4c1.1-0.6,1.9-1.6,2.5-2.9l3.9,1c-0.9,2.2-2.3,3.9-4.3,5C590,65.6,587.7,65.9,585.1,65.2z"/>
<path class="st1" d="M604.7,47l3.9,1.2l-1,3.2l0.2,0.1c0.6-0.8,1.4-1.4,2.4-1.7c1.1-0.4,2.3-0.4,3.6,0c0.4,0.1,0.7,0.2,0.9,0.3
	c0.2,0.1,0.5,0.2,0.7,0.4l-1.3,3.7c-0.6-0.4-1.3-0.7-2.1-0.9c-1.5-0.5-2.8-0.4-3.9,0.3c-1.1,0.6-1.9,1.9-2.5,3.8l-3.3,11l-3.9-1.2
	L604.7,47z"/>
<path class="st1" d="M620.3,52.8l3.9,1.3l-6.7,20l-3.9-1.3L620.3,52.8z M623.5,49.8c-0.7-0.2-1.2-0.6-1.5-1.3
	c-0.3-0.6-0.3-1.3-0.1-1.9c0.2-0.7,0.6-1.2,1.3-1.5c0.6-0.3,1.3-0.3,1.9-0.1s1.2,0.7,1.5,1.3c0.3,0.6,0.3,1.2,0.1,1.9
	c-0.2,0.7-0.6,1.2-1.3,1.5C624.8,50,624.2,50,623.5,49.8z"/>
<path class="st1" d="M635.4,81.1c-1.7-0.6-2.9-1.6-3.7-2.7c-0.7-1.2-1.2-2.5-1.3-3.8l-0.3-0.1l-1.4,3.8l-3.9-1.5l10.6-28.1l3.9,1.5
	L634.8,62l0.3,0.1c0.9-0.9,2-1.5,3.4-1.9c1.3-0.4,2.8-0.3,4.6,0.4c1.7,0.6,3,1.7,3.9,3c0.9,1.3,1.4,2.9,1.4,4.7
	c0.1,1.8-0.3,3.7-1,5.7c-0.7,2-1.7,3.6-3,4.9c-1.2,1.3-2.6,2.2-4.1,2.6C638.7,81.8,637.1,81.7,635.4,81.1z M635.3,77.4
	c1.8,0.7,3.4,0.5,4.8-0.5c1.4-1,2.5-2.5,3.3-4.5c0.7-2,0.9-3.8,0.5-5.4c-0.4-1.7-1.5-2.9-3.3-3.6c-1.8-0.7-3.4-0.5-4.8,0.5
	c-1.4,1-2.5,2.5-3.3,4.5c-0.7,2-0.9,3.8-0.5,5.5C632.4,75.5,633.5,76.7,635.3,77.4z"/>
<path class="st1" d="M653.5,88.4c-2-0.9-3.5-2.1-4.5-3.6c-1-1.5-1.4-3.2-1.5-5c0-1.8,0.4-3.6,1.1-5.4c0.7-1.7,1.8-3.2,3.1-4.5
	c1.3-1.3,2.9-2.1,4.7-2.4c1.8-0.4,3.7-0.1,5.7,0.8c2.6,1.1,4.4,2.9,5.2,5.3c0.8,2.4,0.5,5.2-0.9,8.5l-0.5,1.1L652,77.1l-0.1,0.3
	c-0.4,1-0.6,2-0.5,3c0.1,1,0.4,2,1,2.9c0.6,0.9,1.4,1.5,2.5,2c1.2,0.5,2.3,0.6,3.3,0.4c1.1-0.2,2-0.8,2.8-1.6l3.7,1.6
	c-1.3,1.6-2.9,2.7-4.8,3.3C657.9,89.6,655.8,89.4,653.5,88.4z M663.5,79c0.8-2,0.9-3.7,0.3-4.9c-0.5-1.3-1.5-2.2-2.9-2.9
	c-1.6-0.7-3.1-0.7-4.4-0.1c-1.4,0.6-2.5,1.8-3.2,3.5L663.5,79z"/>
<path class="st1" d="M689.2,85.1l-5.1,10.1c-0.4,0.9-0.7,1.5-0.9,2c-0.1,0.5,0,0.9,0.2,1.3c0.3,0.4,0.8,0.9,1.7,1.3
	c0.6,0.3,1.2,0.5,1.9,0.7l-1.3,2.6c-0.2,0-0.6-0.1-1.3-0.4c-0.7-0.2-1.3-0.5-1.9-0.8c-1.5-0.8-2.5-1.5-3-2.3
	c-0.5-0.8-0.7-1.6-0.6-2.4c0.2-0.8,0.5-1.8,1.1-2.9l5.5-10.9l-3.4-1.7l1.5-2.9l3.4,1.7l3.1-6.2l3.7,1.9l-3.1,6.2l4.4,2.2l-1.5,2.9
	L689.2,85.1z"/>
<path class="st1" d="M699.6,111.1c-1.9-1.1-3.2-2.4-4-4c-0.8-1.6-1.1-3.3-1-5.1c0.2-1.8,0.8-3.6,1.7-5.2c1-1.7,2.1-3.1,3.6-4.2
	c1.5-1.1,3.1-1.7,4.9-1.9c1.8-0.2,3.7,0.3,5.5,1.3c1.9,1.1,3.2,2.4,4,4c0.8,1.6,1.1,3.3,0.9,5.2c-0.2,1.8-0.7,3.5-1.6,5.2
	c-0.9,1.7-2.1,3.1-3.6,4.2c-1.5,1.1-3.1,1.7-4.9,1.9C703.3,112.6,701.4,112.1,699.6,111.1z M701.2,108.1c1.6,0.9,3.2,1,4.8,0.2
	c1.6-0.7,2.9-2.1,4-3.9c1.1-1.9,1.5-3.7,1.3-5.4c-0.2-1.7-1.1-3-2.7-3.9c-1.6-0.9-3.2-1-4.8-0.2c-1.6,0.7-2.9,2-4,3.9
	c-1.1,1.9-1.5,3.7-1.3,5.5C698.7,105.8,699.6,107.2,701.2,108.1z"/>
<path class="st1" d="M734.7,98.8l5.1,3.4l-4.7,20.9l0.1,0.1l17.4-12.5l5.1,3.4l-15.5,23.3l-3.4-2.3l12.1-18.2l-0.1-0.1l-18.8,13.7
	l-2.4-1.6l5.3-22.6l-0.1-0.1l-12.1,18.2l-3.4-2.3L734.7,98.8z"/>
<path class="st1" d="M751.2,147.8c-0.9,0.6-1.8,1-2.5,1.3c-0.7,0.3-1.7,0.4-2.8,0.4c-1.1,0-2.3-0.5-3.5-1.4
	c-0.6-0.5-1.3-1.1-1.9-1.8l1.8-2.4c0.5,0.5,0.9,0.8,1.3,1.1c0.7,0.5,1.4,0.8,2,0.9c0.6,0.1,1.2,0,1.8-0.3c0.6-0.2,1.3-0.6,2.2-1.1
	l2-1.2l5.8-20.9l3.4,2.5l-4.9,15.8l0.2,0.1l13.9-9.2l3.4,2.5L751.2,147.8z"/>
<path class="st1" d="M789.7,138.3l3.6,3l-3.2,25.4l0.1,0.1l13.8-16.5l3.2,2.6l-18,21.5l-3.7-3.1l3-25l-0.1-0.1l-13.5,16.1l-3.2-2.6
	L789.7,138.3z"/>
<path class="st1" d="M799.8,184.3c-1.6-1.5-2.6-3.1-3-4.9c-0.4-1.8-0.3-3.5,0.2-5.2c0.6-1.7,1.5-3.3,2.8-4.7
	c1.3-1.4,2.7-2.5,4.4-3.2c1.7-0.8,3.4-1,5.2-0.8c1.8,0.2,3.5,1.1,5.2,2.6c2.1,1.9,3.2,4.2,3.2,6.7c0,2.5-1.2,5.1-3.6,7.8l-0.8,0.9
	L802,173.1l-0.2,0.2c-0.7,0.8-1.2,1.7-1.5,2.7c-0.3,1-0.3,2,0,3.1c0.3,1,0.8,1.9,1.7,2.7c0.9,0.8,1.9,1.3,3,1.5
	c1.1,0.1,2.2-0.1,3.2-0.6l3,2.7c-1.7,1.1-3.6,1.6-5.6,1.5C803.6,186.8,801.6,186,799.8,184.3z M812.3,178.6c1.4-1.7,2-3.2,1.9-4.6
	c0-1.4-0.7-2.6-1.9-3.7c-1.3-1.1-2.7-1.7-4.2-1.5c-1.5,0.2-2.9,0.9-4.2,2.3L812.3,178.6z"/>
<path class="st1" d="M822.9,176.3l2.8,2.7l-8.4,14.9l0.1,0.1l15.1-8.4l2.6,2.6l-7.8,15.4l0.1,0.1l14.5-9l2.8,2.7l-18.7,11.2
	l-3.7-3.6l7-13.4l-0.2-0.2l-13.1,7.5l-3.7-3.6L822.9,176.3z"/>
<path class="st1" d="M838.5,221.5c-1.2-1.2-2-2.5-2.4-3.9c-0.4-1.4-0.5-2.7-0.2-3.9c0.3-1.2,0.9-2.3,1.7-3.1l0.1-0.1l2.9,2.9
	l-0.1,0.1c-0.7,0.7-1,1.6-1,2.7c0,1.1,0.5,2.1,1.5,3.1c0.8,0.8,1.7,1.3,2.6,1.4c0.9,0.1,1.7-0.1,2.4-0.8c0.6-0.6,0.8-1.2,0.7-2
	c-0.1-0.8-0.4-1.5-0.9-2.3l-1.6-2.2c-1-1.4-1.6-2.9-1.8-4.4c-0.2-1.5,0.4-2.9,1.7-4.2c1.4-1.4,3-2,4.8-1.7s3.4,1.2,5,2.7
	c1.1,1.2,1.9,2.4,2.3,3.7c0.4,1.3,0.5,2.5,0.2,3.6c-0.3,1.1-0.8,2.1-1.6,2.9l-0.1,0.1l-2.9-2.9l0.1-0.1c0.6-0.6,0.9-1.3,1-2.3
	c0.1-1-0.3-1.9-1.3-2.9c-0.8-0.8-1.6-1.2-2.5-1.3c-0.9-0.1-1.7,0.2-2.3,0.8c-0.5,0.5-0.8,1.2-0.7,1.9c0.1,0.8,0.4,1.5,0.9,2.2
	l1.7,2.4c1,1.5,1.6,3,1.8,4.5c0.2,1.5-0.4,2.9-1.6,4.1c-0.9,0.9-2,1.5-3.2,1.7c-1.2,0.2-2.4,0.1-3.6-0.4
	C840.7,223.4,839.6,222.6,838.5,221.5z"/>
<path class="st1" d="M851.5,234.7c-1.2-1.2-1.9-2.3-2.1-3.3c-0.2-1-0.1-1.8,0.4-2.5c0.5-0.7,1.2-1.6,2.1-2.5l17.3-16.7l2.9,3
	l-16.8,16.2c-0.7,0.7-1.2,1.2-1.5,1.6c-0.3,0.4-0.4,0.9-0.3,1.4c0.1,0.5,0.5,1.1,1.1,1.8c0.4,0.4,0.7,0.7,1,0.9l-2.1,2.1
	C852.8,235.8,852.1,235.2,851.5,234.7z"/>
<path class="st1" d="M862.4,246.2c-1.5-1.6-2.4-3.3-2.7-5.1c-0.3-1.8-0.1-3.5,0.6-5.2c0.7-1.7,1.8-3.2,3.1-4.5s2.9-2.3,4.6-2.9
	c1.7-0.6,3.5-0.8,5.2-0.4c1.8,0.4,3.5,1.4,5,2.9c2,2.1,2.9,4.4,2.7,6.9c-0.2,2.5-1.6,5-4.1,7.5l-0.8,0.8l-10.6-11.1l-0.2,0.2
	c-0.8,0.7-1.3,1.6-1.7,2.6c-0.3,1-0.4,2-0.2,3c0.2,1,0.7,2,1.5,2.8c0.9,0.9,1.8,1.5,2.9,1.7c1.1,0.2,2.2,0.1,3.2-0.3l2.8,3
	c-1.8,1-3.7,1.3-5.7,1.1C866,249,864.1,248,862.4,246.2z M875.3,241.4c1.5-1.6,2.2-3,2.3-4.4c0.1-1.4-0.5-2.6-1.6-3.8
	c-1.2-1.2-2.5-1.8-4.1-1.8c-1.5,0-3,0.7-4.3,1.9L875.3,241.4z"/>
<path class="st1" d="M891,250l-8.2,7.8c-0.7,0.7-1.2,1.2-1.5,1.6c-0.3,0.4-0.3,0.8-0.3,1.3c0.1,0.5,0.5,1.1,1.1,1.8
	c0.5,0.5,1,0.9,1.5,1.3l-2.1,2c-0.2-0.1-0.5-0.3-1.1-0.8c-0.5-0.4-1-0.9-1.5-1.4c-1.2-1.2-1.8-2.3-2.1-3.2c-0.2-0.9-0.1-1.8,0.3-2.5
	c0.4-0.7,1.1-1.5,2-2.4l8.9-8.4l-2.6-2.8l2.4-2.3l2.6,2.8l5-4.8l2.8,3l-5,4.8l3.4,3.6l-2.4,2.3L891,250z"/>
<path class="st1" d="M901.6,261.2l-8.2,7.8c-0.7,0.7-1.2,1.2-1.5,1.6c-0.3,0.4-0.3,0.8-0.3,1.3c0.1,0.5,0.5,1.1,1.1,1.8
	c0.5,0.5,1,0.9,1.5,1.3l-2.1,2c-0.2-0.1-0.5-0.3-1.1-0.8c-0.5-0.4-1-0.9-1.5-1.4c-1.2-1.2-1.8-2.3-2.1-3.2c-0.2-0.9-0.1-1.8,0.3-2.5
	c0.4-0.7,1.1-1.5,2-2.4l8.9-8.4l-2.6-2.8l2.4-2.3l2.6,2.8l5-4.8l2.8,3l-5,4.8l3.4,3.6l-2.4,2.3L901.6,261.2z"/>
<path class="st1" d="M902.2,287.9c-1.5-1.6-2.4-3.3-2.7-5.1c-0.3-1.8-0.1-3.5,0.6-5.2c0.7-1.7,1.7-3.2,3.1-4.5
	c1.4-1.3,2.9-2.3,4.6-2.9c1.7-0.7,3.5-0.8,5.2-0.5c1.8,0.4,3.5,1.3,5,2.9c2,2.1,2.9,4.4,2.7,6.9c-0.2,2.5-1.5,5-4.1,7.5l-0.8,0.8
	l-10.7-11l-0.2,0.2c-0.8,0.7-1.3,1.6-1.7,2.6c-0.3,1-0.4,2-0.2,3.1c0.2,1,0.7,1.9,1.5,2.8c0.9,0.9,1.8,1.5,2.9,1.7
	c1.1,0.2,2.2,0.1,3.2-0.4l2.8,2.9c-1.8,1-3.7,1.4-5.7,1.2C905.7,290.7,903.9,289.7,902.2,287.9z M915,283.1c1.5-1.6,2.2-3.1,2.2-4.4
	c0-1.4-0.5-2.6-1.6-3.8c-1.2-1.2-2.5-1.8-4.1-1.8c-1.5,0.1-3,0.7-4.3,2L915,283.1z"/>
<path class="st1" d="M928.6,284.4l2.9,2.9l-2.4,2.4l0.2,0.2c0.9-0.4,1.9-0.5,3-0.4c1.1,0.2,2.2,0.8,3.2,1.8c0.3,0.3,0.5,0.5,0.6,0.7
	c0.2,0.2,0.3,0.4,0.4,0.7l-2.9,2.7c-0.4-0.7-0.8-1.3-1.4-1.8c-1.1-1.1-2.3-1.6-3.5-1.6c-1.2,0-2.6,0.8-4,2.2l-8.1,8.1l-2.9-2.9
	L928.6,284.4z"/>
<path class="st1" d="M961,313.2c1.1,0.9,1.9,2.2,2.4,3.7c0.6,1.5,0.6,3,0.2,4.6c-0.4,1.6-1,2.8-1.9,3.9c-1.6,1.8-3.6,2.7-5.9,2.9
	c-2.4,0.1-4.4-0.6-6.2-2.2c-1.8-1.6-2.7-3.6-2.8-5.9c-0.1-2.4,0.6-4.4,2.2-6.2c0.9-1,2.1-1.8,3.6-2.4c1.5-0.6,3-0.7,4.5-0.3
	C958.6,311.6,959.9,312.2,961,313.2z"/>
<path class="st1" d="M982.8,360.4c-1.8-1.3-3.1-2.7-3.8-4.4c-0.7-1.6-1-3.3-0.8-4.9c0.2-1.6,0.7-3,1.6-4.3l0.1-0.2l3.7,2.6l-0.1,0.2
	c-0.5,0.7-0.8,1.5-1,2.4c-0.2,0.9,0,1.9,0.3,2.8c0.4,1,1.1,1.8,2.2,2.6c1.3,0.9,2.6,1.4,3.9,1.3c1.3-0.1,2.4-0.7,3.2-1.8
	c0.7-1,0.9-1.9,0.7-3c-0.2-1-0.8-2-1.6-2.9l-2.7-2.8c-1.2-1.3-2.1-2.8-2.7-4.6c-0.6-1.8-0.2-3.7,1.3-5.8c0.9-1.3,2.1-2.3,3.4-2.8
	c1.4-0.5,2.8-0.6,4.3-0.3c1.5,0.3,3,0.9,4.5,2c1.7,1.2,2.9,2.6,3.6,4.1c0.7,1.5,1,3.1,0.8,4.6c-0.1,1.5-0.6,2.9-1.5,4l-0.1,0.1
	l-3.7-2.7l0.1-0.1c0.4-0.6,0.7-1.3,0.9-2.1c0.2-0.8,0.1-1.7-0.3-2.6c-0.3-0.9-1-1.8-2.1-2.5c-1.3-0.9-2.5-1.3-3.7-1.1
	c-1.2,0.2-2.2,0.8-2.9,1.8c-0.6,0.9-0.9,1.8-0.6,2.8c0.2,1,0.8,2,1.6,2.9l2.5,2.7c1.4,1.5,2.4,3.2,3,5c0.6,1.8,0.2,3.7-1.2,5.7
	c-1,1.3-2.2,2.3-3.6,2.8c-1.4,0.6-3,0.7-4.6,0.4C986,362.3,984.4,361.6,982.8,360.4z"/>
<path class="st1" d="M1012.4,379.1l-3.6-2.1l2-3.3l-0.2-0.1c-1.1,0.7-2.3,1.2-3.7,1.3c-1.4,0.1-2.7-0.2-4.1-1.1
	c-1.6-0.9-2.6-2.1-3.2-3.4c-0.5-1.3-0.6-2.7-0.4-4.1c0.3-1.4,0.8-2.8,1.5-4.1l6.5-10.8l3.5,2.1l-6.2,10.3c-1,1.6-1.3,3.1-1,4.5
	c0.3,1.4,1.1,2.5,2.4,3.3c1.4,0.8,2.8,1,4.1,0.6c1.4-0.5,2.5-1.5,3.4-3l6.2-10.3l3.6,2.1L1012.4,379.1z"/>
<path class="st1" d="M1028.6,387.6c-1.6-0.8-2.8-1.8-3.4-3.1c-0.6-1.3-1-2.6-1-3.9l-0.3-0.1l-1.8,3.7l-3.8-1.8l13-27.1l3.8,1.8
	l-5.4,11.4l0.3,0.1c1-0.8,2.2-1.3,3.5-1.6c1.4-0.3,2.9,0,4.5,0.7c1.7,0.8,2.9,1.9,3.6,3.3c0.8,1.4,1.1,3,1,4.8
	c-0.1,1.8-0.6,3.6-1.5,5.6c-0.9,1.9-2,3.4-3.4,4.6c-1.3,1.2-2.8,1.9-4.3,2.2C1031.8,388.6,1030.2,388.4,1028.6,387.6z M1028.8,383.9
	c1.7,0.8,3.3,0.8,4.8-0.1c1.5-0.9,2.7-2.3,3.7-4.2c0.9-1.9,1.2-3.7,1-5.4c-0.3-1.7-1.3-3-3-3.8c-1.7-0.8-3.3-0.8-4.9,0.1
	c-1.5,0.9-2.7,2.3-3.6,4.2c-0.9,1.9-1.2,3.7-1,5.4C1026.1,381.8,1027.1,383.1,1028.8,383.9z"/>
<path class="st1" d="M1050.6,396.9c-1.6-0.6-2.9-1.4-3.9-2.5c-0.9-1.1-1.5-2.2-1.8-3.4c-0.3-1.3-0.2-2.4,0.2-3.5l0.1-0.2l3.8,1.4
	l-0.1,0.2c-0.3,0.9-0.3,1.8,0.2,2.8c0.5,1,1.4,1.7,2.7,2.2c1.1,0.4,2.1,0.5,3,0.2c0.9-0.3,1.5-0.9,1.8-1.8c0.3-0.8,0.2-1.5-0.2-2.1
	c-0.4-0.7-1-1.2-1.8-1.7l-2.3-1.3c-1.5-0.8-2.7-1.9-3.5-3.2c-0.8-1.3-0.9-2.8-0.3-4.5c0.7-1.9,1.9-3.1,3.6-3.6
	c1.7-0.5,3.6-0.4,5.7,0.3c1.5,0.6,2.8,1.3,3.7,2.3c0.9,1,1.5,2,1.8,3.1c0.2,1.1,0.2,2.2-0.2,3.3l-0.1,0.2l-3.8-1.4l0-0.1
	c0.3-0.8,0.2-1.6-0.1-2.5c-0.3-0.9-1.1-1.6-2.4-2.1c-1.1-0.4-2-0.4-2.8-0.1c-0.8,0.3-1.4,0.9-1.7,1.7c-0.3,0.7-0.2,1.4,0.2,2.1
	s1,1.2,1.8,1.6l2.5,1.5c1.5,0.9,2.7,2,3.5,3.3c0.8,1.3,0.9,2.8,0.3,4.4c-0.4,1.2-1.2,2.1-2.1,2.8c-1,0.7-2.1,1.1-3.5,1.2
	C1053.4,397.6,1052,397.4,1050.6,396.9z"/>
<path class="st1" d="M1073.6,404.1c-2.1-0.6-3.8-1.5-5-2.9c-1.2-1.4-1.9-3-2.2-4.8c-0.3-1.8-0.2-3.6,0.3-5.5
	c0.5-1.8,1.3-3.5,2.4-4.9c1.1-1.4,2.6-2.5,4.3-3.1c1.7-0.6,3.6-0.7,5.8-0.1c2.7,0.7,4.6,2,5.7,4c1.2,1.9,1.6,4.1,1.3,6.4l-3.9-1
	c0.1-1.5-0.1-2.7-0.8-3.8c-0.6-1.1-1.7-1.8-3.1-2.2c-1.9-0.5-3.5-0.2-4.8,1c-1.3,1.1-2.2,2.8-2.8,4.8c-0.5,2.1-0.5,3.9,0.1,5.6
	c0.6,1.6,1.8,2.7,3.8,3.2c1.5,0.4,2.8,0.3,3.8-0.4c1.1-0.6,1.9-1.6,2.5-2.9l3.9,1c-0.9,2.2-2.3,3.9-4.3,5
	C1078.6,404.5,1076.3,404.8,1073.6,404.1z"/>
<path class="st1" d="M1093.4,386.6l4.1,0.7l-0.6,3.3l0.2,0c0.5-0.9,1.2-1.5,2.2-2c1-0.5,2.2-0.6,3.6-0.4c0.4,0.1,0.7,0.1,0.9,0.2
	c0.3,0.1,0.5,0.2,0.8,0.3l-0.8,3.8c-0.7-0.3-1.4-0.6-2.2-0.7c-1.6-0.3-2.8,0-3.8,0.7c-1,0.7-1.7,2.1-2,4.1l-1.9,11.3l-4.1-0.7
	L1093.4,386.6z"/>
<path class="st1" d="M1107.6,388.9l4.1,0.5l-2.4,20.9l-4.1-0.5L1107.6,388.9z M1110.1,385.3c-0.7-0.1-1.3-0.4-1.7-0.9
	c-0.4-0.5-0.6-1.2-0.5-1.9c0.1-0.7,0.4-1.3,0.9-1.7c0.5-0.4,1.2-0.6,1.9-0.5c0.7,0.1,1.3,0.4,1.7,1c0.4,0.5,0.6,1.1,0.5,1.8
	c-0.1,0.7-0.4,1.3-0.9,1.7C1111.4,385.2,1110.8,385.4,1110.1,385.3z"/>
<path class="st1" d="M1127.8,412c-1.8-0.1-3.3-0.6-4.3-1.5c-1.1-0.9-1.9-2-2.4-3.2l-0.3,0l-0.2,4.1l-4.2-0.2l1.4-30l4.2,0.2
	l-0.6,12.6l0.3,0c0.6-1.1,1.5-2,2.6-2.8c1.1-0.8,2.6-1.2,4.5-1.1c1.8,0.1,3.4,0.6,4.6,1.7c1.3,1,2.2,2.3,2.8,4
	c0.6,1.7,0.9,3.6,0.8,5.7c-0.1,2.1-0.5,4-1.3,5.6c-0.8,1.6-1.8,2.9-3.1,3.7C1131.2,411.7,1129.6,412.1,1127.8,412z M1126.6,408.5
	c1.9,0.1,3.4-0.6,4.4-2c1-1.4,1.6-3.2,1.7-5.3c0.1-2.1-0.3-3.9-1.2-5.3c-0.9-1.5-2.3-2.3-4.3-2.4c-1.9-0.1-3.4,0.6-4.5,2
	c-1,1.4-1.6,3.1-1.7,5.2c-0.1,2.1,0.3,3.9,1.2,5.4C1123.3,407.6,1124.7,408.4,1126.6,408.5z"/>
<path class="st1" d="M1150.9,412.1c-2.2,0.1-4.1-0.4-5.6-1.3c-1.5-1-2.7-2.3-3.5-3.9c-0.8-1.7-1.2-3.4-1.3-5.3
	c-0.1-1.9,0.2-3.7,0.9-5.4c0.7-1.7,1.7-3.1,3.2-4.2c1.5-1.1,3.3-1.7,5.5-1.8c2.9-0.1,5.2,0.7,7,2.6c1.8,1.8,2.7,4.5,2.9,8.1l0.1,1.2
	l-15.3,0.6l0,0.3c0,1.1,0.3,2.1,0.8,3c0.5,0.9,1.2,1.6,2.1,2.2c0.9,0.5,1.9,0.8,3.1,0.7c1.3,0,2.3-0.4,3.2-1
	c0.9-0.7,1.5-1.6,1.8-2.6l4.1-0.2c-0.4,2-1.4,3.7-3,5C1155.3,411.3,1153.4,412,1150.9,412.1z M1155.8,399.3
	c-0.2-2.2-0.8-3.7-1.8-4.6c-1-0.9-2.3-1.4-3.9-1.3c-1.7,0.1-3.1,0.7-4.1,1.8c-1,1.2-1.4,2.7-1.4,4.5L1155.8,399.3z"/>
<path class="st1" d="M1182.6,391.2l1.5,11.2c0.1,1,0.3,1.7,0.4,2.1c0.2,0.4,0.5,0.8,0.9,1c0.5,0.2,1.2,0.2,2.1,0.1
	c0.7-0.1,1.3-0.3,1.9-0.5l0.4,2.9c-0.2,0.1-0.6,0.2-1.3,0.4c-0.7,0.2-1.4,0.3-2,0.4c-1.7,0.2-2.9,0.2-3.8-0.2
	c-0.9-0.4-1.5-1-1.8-1.7c-0.3-0.8-0.6-1.8-0.7-3l-1.6-12.1l-3.8,0.5l-0.4-3.3l3.8-0.5l-0.9-6.9l4.1-0.6l0.9,6.9l4.9-0.7l0.4,3.3
	L1182.6,391.2z"/>
<path class="st1" d="M1207.4,405.5c-2.1,0.4-4,0.3-5.7-0.4c-1.7-0.7-3-1.8-4.1-3.3c-1-1.5-1.7-3.2-2.1-5.1c-0.4-1.9-0.4-3.7,0-5.5
	c0.4-1.8,1.3-3.3,2.5-4.6c1.3-1.3,3-2.2,5.1-2.6c2.1-0.4,4-0.3,5.7,0.5c1.7,0.7,3,1.8,4.1,3.3c1,1.5,1.8,3.2,2.1,5
	c0.4,1.9,0.3,3.7-0.1,5.5c-0.4,1.8-1.3,3.3-2.5,4.6C1211.2,404.2,1209.5,405,1207.4,405.5z M1206.7,402.1c1.8-0.4,3.1-1.3,3.8-2.9
	c0.8-1.6,0.9-3.5,0.5-5.6c-0.4-2.1-1.3-3.8-2.6-5c-1.3-1.2-2.8-1.6-4.6-1.3c-1.8,0.3-3,1.3-3.8,2.9c-0.8,1.6-0.9,3.4-0.5,5.5
	c0.4,2.1,1.3,3.8,2.5,5C1203.3,402,1204.9,402.4,1206.7,402.1z"/>
<path class="st1" d="M1228.2,372l6-1.2l11.6,18.1l0.1,0l3.4-21.2l6-1.2l5.7,27.4l-4,0.8l-4.4-21.3l-0.2,0l-3.5,23l-2.8,0.6
	l-12.4-19.7l-0.2,0l4.4,21.3l-4,0.8L1228.2,372z"/>
<path class="st1" d="M1274.5,394.4c-0.2,1.1-0.5,2-0.8,2.7c-0.3,0.8-0.8,1.5-1.6,2.3c-0.8,0.8-1.9,1.3-3.4,1.6
	c-0.8,0.1-1.6,0.2-2.6,0.2l-0.6-2.9c0.7,0,1.2-0.1,1.7-0.2c0.9-0.2,1.5-0.5,2-0.9c0.5-0.4,0.8-0.9,1-1.5c0.2-0.6,0.4-1.3,0.7-2.4
	l0.5-2.2l-11.4-18.4l4.2-0.8l8.3,14.4l0.2,0l2.7-16.4l4.2-0.8L1274.5,394.4z"/>
<path class="st1" d="M1292,359.6l4.7-0.7l17,19l0.1,0l-3.4-21.2l4.1-0.6l4.4,27.7l-4.7,0.8l-16.9-18.6l-0.1,0l3.3,20.8l-4.1,0.6
	L1292,359.6z"/>
<path class="st1" d="M1335.3,381.7c-2.2,0.3-4.1,0-5.7-0.8c-1.6-0.8-2.9-2-3.8-3.6c-0.9-1.6-1.5-3.3-1.8-5.2
	c-0.3-1.9-0.1-3.7,0.4-5.4c0.5-1.8,1.4-3.3,2.8-4.5c1.4-1.2,3.1-2,5.3-2.3c2.9-0.4,5.3,0.3,7.2,1.9c1.9,1.6,3.1,4.2,3.6,7.8l0.2,1.1
	l-15.2,2l0,0.3c0.1,1.1,0.5,2,1.1,2.9c0.6,0.9,1.4,1.5,2.3,2c0.9,0.4,2,0.6,3.1,0.4c1.3-0.2,2.3-0.6,3.1-1.3
	c0.8-0.8,1.3-1.7,1.6-2.8l4.1-0.5c-0.3,2-1.1,3.8-2.5,5.3C1339.6,380.4,1337.7,381.3,1335.3,381.7z M1339,368.5
	c-0.4-2.1-1.1-3.6-2.2-4.4c-1.1-0.9-2.4-1.2-4-1c-1.7,0.2-3,1-3.9,2.2c-0.9,1.2-1.2,2.8-1,4.7L1339,368.5z"/>
<path class="st1" d="M1344.6,358.8l3.9-0.4l5.9,16.1l0.2,0l3.3-17l3.7-0.4l6.7,16l0.2,0l2.6-16.9l3.9-0.4l-3.6,21.5l-5.1,0.5
	l-5.6-14l-0.3,0l-2.8,14.9l-5.1,0.5L1344.6,358.8z"/>
<path class="st1" d="M1386.6,376.6c-1.7,0.1-3.2-0.1-4.5-0.7c-1.3-0.6-2.3-1.4-3-2.4c-0.7-1.1-1.1-2.2-1.2-3.3l0-0.2l4.1-0.2l0,0.2
	c0.1,1,0.5,1.8,1.3,2.5c0.8,0.7,1.9,1,3.3,0.9c1.1-0.1,2.1-0.4,2.8-1c0.7-0.6,1-1.4,1-2.3c-0.1-0.8-0.4-1.4-1-1.9
	c-0.6-0.4-1.4-0.7-2.3-0.8l-2.7-0.2c-1.7-0.2-3.2-0.7-4.5-1.5c-1.3-0.9-1.9-2.2-2.1-4c-0.1-2,0.5-3.5,1.8-4.7c1.3-1.2,3.1-1.8,5.4-2
	c1.6-0.1,3,0.1,4.3,0.7c1.2,0.5,2.2,1.2,2.9,2.2c0.7,0.9,1,2,1.1,3.1l0,0.2l-4.1,0.2l0-0.1c0-0.8-0.4-1.6-1.1-2.3
	c-0.7-0.7-1.7-1-3-0.9c-1.1,0.1-2,0.4-2.7,1c-0.7,0.6-1,1.4-0.9,2.3c0,0.8,0.4,1.4,1,1.8c0.6,0.4,1.4,0.7,2.3,0.8l2.9,0.3
	c1.8,0.2,3.3,0.7,4.5,1.6c1.3,0.9,1.9,2.2,2,4c0.1,1.3-0.2,2.4-0.8,3.5c-0.6,1-1.5,1.8-2.7,2.5
	C1389.5,376.1,1388.1,376.5,1386.6,376.6z"/>
<path class="st1" d="M1406.2,375.6c-1.7,0.1-3-0.2-3.8-0.7c-0.8-0.5-1.4-1.2-1.6-2c-0.2-0.8-0.4-1.9-0.4-3.3l-0.7-24l4.1-0.1
	l0.8,23.3c0,1,0.1,1.7,0.2,2.2c0.1,0.5,0.4,0.9,0.8,1.1c0.4,0.3,1.1,0.4,2.1,0.4c0.5,0,1-0.1,1.3-0.2l0.1,3
	C1407.8,375.4,1406.9,375.5,1406.2,375.6z"/>
<path class="st1" d="M1422.4,375.5c-2.2,0-4-0.5-5.5-1.6c-1.5-1-2.6-2.4-3.3-4c-0.7-1.7-1.1-3.5-1.1-5.4c0-1.9,0.4-3.7,1.1-5.3
	c0.7-1.7,1.8-3,3.3-4.1c1.5-1,3.4-1.6,5.6-1.5c2.9,0,5.2,1,6.9,2.9c1.7,1.9,2.5,4.6,2.5,8.2l0,1.2l-15.4,0v0.3c0,1.1,0.2,2.1,0.7,3
	c0.5,0.9,1.2,1.7,2,2.3c0.9,0.6,1.9,0.8,3,0.8c1.3,0,2.3-0.3,3.2-0.9c0.9-0.6,1.6-1.5,2-2.6l4.1,0c-0.5,2-1.6,3.6-3.2,4.9
	C1426.9,374.8,1424.8,375.5,1422.4,375.5z M1427.9,362.9c-0.1-2.2-0.6-3.7-1.6-4.7c-1-1-2.2-1.5-3.8-1.5c-1.7,0-3.1,0.6-4.1,1.7
	c-1,1.1-1.6,2.6-1.6,4.5L1427.9,362.9z"/>
<path class="st1" d="M1443.2,357.8l-0.5,11.3c0,1,0,1.7,0,2.2c0.1,0.5,0.3,0.8,0.7,1.1c0.4,0.3,1.1,0.4,2.1,0.5c0.7,0,1.3,0,2-0.2
	l-0.1,2.9c-0.2,0.1-0.6,0.1-1.3,0.2c-0.7,0-1.4,0.1-2.1,0c-1.7-0.1-2.9-0.4-3.7-0.9c-0.8-0.5-1.3-1.2-1.5-2
	c-0.2-0.8-0.2-1.9-0.2-3.1l0.6-12.2l-3.8-0.2l0.2-3.3l3.8,0.2l0.3-6.9l4.1,0.2l-0.3,6.9l4.9,0.2l-0.1,3.3L1443.2,357.8z"/>
<path class="st1" d="M1460.5,359l-0.9,11.2c-0.1,1-0.1,1.7-0.1,2.2c0.1,0.5,0.3,0.8,0.7,1.1c0.4,0.3,1.1,0.5,2,0.6
	c0.7,0.1,1.3,0,2-0.1l-0.2,2.9c-0.2,0.1-0.6,0.1-1.3,0.1c-0.7,0-1.4,0-2.1-0.1c-1.7-0.1-2.9-0.5-3.7-1c-0.8-0.6-1.3-1.3-1.4-2
	c-0.1-0.8-0.2-1.9-0.1-3.1l1.1-12.2l-3.8-0.3l0.3-3.3l3.8,0.3l0.6-6.9l4.1,0.3l-0.6,6.9l4.9,0.4l-0.3,3.3L1460.5,359z"/>
<path class="st1" d="M1477.7,379.1c-2.2-0.3-3.9-1.1-5.3-2.3c-1.3-1.2-2.3-2.7-2.8-4.4c-0.5-1.8-0.6-3.6-0.3-5.5
	c0.3-1.9,0.8-3.6,1.8-5.1c0.9-1.6,2.2-2.8,3.8-3.6c1.6-0.8,3.5-1.1,5.7-0.8c2.8,0.4,5,1.6,6.4,3.7c1.4,2.1,1.9,4.9,1.4,8.4l-0.2,1.1
	l-15.2-2l0,0.3c-0.1,1.1,0,2.1,0.3,3.1c0.3,1,0.9,1.8,1.7,2.5c0.8,0.7,1.8,1.1,2.9,1.2c1.2,0.2,2.3,0,3.3-0.5c1-0.5,1.8-1.3,2.3-2.3
	l4,0.5c-0.8,1.9-2.1,3.4-3.8,4.5C1482.2,379,1480.1,379.4,1477.7,379.1z M1484.7,367.3c0.2-2.2-0.2-3.8-1-4.9c-0.8-1.1-2-1.8-3.6-2
	c-1.7-0.2-3.1,0.1-4.3,1.1c-1.2,1-1.9,2.4-2.2,4.2L1484.7,367.3z"/>
<path class="st1" d="M1493.8,359.9l4.1,0.7l-0.6,3.3l0.2,0c0.5-0.9,1.3-1.5,2.2-2c1-0.5,2.2-0.6,3.6-0.4c0.4,0.1,0.7,0.1,0.9,0.2
	c0.3,0.1,0.5,0.2,0.8,0.3l-0.9,3.8c-0.7-0.3-1.4-0.6-2.1-0.7c-1.5-0.3-2.8-0.1-3.8,0.7c-1,0.7-1.7,2.1-2.1,4.1l-2.1,11.3l-4.1-0.7
	L1493.8,359.9z"/>
<path class="st1" d="M1538.4,368c1.4,0.4,2.6,1.1,3.8,2.3c1.2,1.1,1.9,2.5,2.2,4c0.3,1.6,0.3,3,0,4.3c-0.7,2.3-2,4-4.1,5.2
	c-2.1,1.2-4.3,1.4-6.6,0.8c-2.3-0.6-4-2-5.2-4.1c-1.2-2.1-1.4-4.3-0.8-6.5c0.4-1.4,1.1-2.6,2.2-3.7c1.1-1.1,2.4-1.9,3.9-2.3
	C1535.5,367.6,1537,367.6,1538.4,368z"/>
<path class="st1" d="M1574.4,404.3c-2.1-0.7-3.7-1.8-4.9-3.2c-1.1-1.4-1.8-2.9-2.1-4.5c-0.3-1.6-0.1-3.1,0.4-4.6l0.1-0.2l4.3,1.6
	l-0.1,0.2c-0.3,0.8-0.4,1.7-0.3,2.6c0.1,0.9,0.5,1.8,1.1,2.6c0.6,0.8,1.6,1.5,2.8,1.9c1.5,0.6,2.9,0.6,4.2,0.2
	c1.3-0.4,2.1-1.3,2.6-2.6c0.4-1.1,0.3-2.1-0.2-3c-0.5-0.9-1.3-1.7-2.3-2.3l-3.4-2c-1.5-0.9-2.8-2.1-3.9-3.7
	c-1.1-1.6-1.2-3.5-0.3-5.9c0.6-1.5,1.4-2.7,2.5-3.6c1.2-0.9,2.5-1.4,4.1-1.5c1.6-0.1,3.2,0.1,4.9,0.7c2,0.7,3.5,1.7,4.6,3
	c1.1,1.3,1.8,2.7,2.1,4.2c0.3,1.5,0.2,2.9-0.3,4.3l-0.1,0.2l-4.3-1.5l0-0.1c0.2-0.7,0.3-1.4,0.3-2.3c-0.1-0.8-0.4-1.7-1-2.4
	c-0.6-0.8-1.5-1.4-2.7-1.9c-1.5-0.5-2.8-0.5-3.9,0c-1.1,0.5-1.9,1.3-2.3,2.5c-0.4,1-0.3,2,0.2,2.9c0.5,0.9,1.3,1.7,2.3,2.3l3.1,1.9
	c1.8,1.1,3.2,2.4,4.2,4c1.1,1.6,1.2,3.5,0.4,5.8c-0.6,1.6-1.5,2.8-2.7,3.7c-1.2,0.9-2.7,1.5-4.3,1.6
	C1578,405.2,1576.3,405,1574.4,404.3z"/>
<path class="st1" d="M1605.2,415.5l-3.9-1.5l1.3-3.5l-0.3-0.1c-0.9,0.9-2,1.5-3.4,1.9c-1.3,0.3-2.8,0.2-4.2-0.3
	c-1.7-0.6-2.9-1.6-3.7-2.8c-0.7-1.2-1.1-2.5-1.1-4c0-1.5,0.3-2.9,0.8-4.3l4.5-11.7l3.9,1.5l-4.3,11.2c-0.7,1.7-0.8,3.3-0.3,4.6
	c0.5,1.3,1.5,2.2,2.9,2.8c1.5,0.6,2.9,0.5,4.2-0.2c1.3-0.7,2.2-1.9,2.8-3.5l4.3-11.2l3.9,1.5L1605.2,415.5z"/>
<path class="st1" d="M1621.3,421.6c-1.7-0.7-2.9-1.6-3.7-2.8c-0.7-1.2-1.1-2.5-1.3-3.8l-0.3-0.1l-1.5,3.8l-3.9-1.5l10.8-28l3.9,1.5
	l-4.5,11.8l0.3,0.1c0.9-0.8,2.1-1.5,3.4-1.9c1.3-0.4,2.8-0.3,4.6,0.4c1.7,0.7,3,1.7,3.9,3c0.9,1.4,1.4,2.9,1.4,4.7
	c0.1,1.8-0.3,3.7-1.1,5.7c-0.8,2-1.8,3.6-3,4.9c-1.2,1.3-2.6,2.2-4.2,2.6C1624.7,422.4,1623,422.3,1621.3,421.6z M1621.3,417.9
	c1.8,0.7,3.4,0.5,4.8-0.5c1.4-1,2.6-2.5,3.3-4.5c0.8-2,0.9-3.8,0.5-5.4c-0.4-1.7-1.5-2.9-3.3-3.6c-1.8-0.7-3.4-0.5-4.8,0.4
	c-1.4,1-2.5,2.5-3.3,4.4s-0.9,3.8-0.5,5.5C1618.4,416.1,1619.5,417.3,1621.3,417.9z"/>
<path class="st1" d="M1641.1,429.2c-1.6-0.6-2.9-1.5-3.8-2.5c-0.9-1.1-1.5-2.2-1.8-3.5c-0.2-1.3-0.1-2.4,0.3-3.5l0.1-0.2l3.8,1.4
	l-0.1,0.1c-0.3,0.9-0.3,1.8,0.2,2.8c0.5,1,1.3,1.7,2.6,2.2c1.1,0.4,2.1,0.5,3,0.2c0.9-0.3,1.5-0.8,1.8-1.7c0.3-0.8,0.3-1.5-0.1-2.1
	c-0.4-0.7-1-1.2-1.8-1.7l-2.3-1.3c-1.5-0.9-2.6-1.9-3.4-3.2c-0.8-1.3-0.8-2.8-0.2-4.5c0.7-1.8,1.9-3,3.6-3.5
	c1.7-0.5,3.6-0.4,5.7,0.4c1.5,0.6,2.7,1.4,3.6,2.4c0.9,1,1.5,2,1.7,3.2c0.2,1.1,0.1,2.2-0.3,3.3l-0.1,0.1l-3.8-1.4l0-0.1
	c0.3-0.7,0.3-1.6-0.1-2.5c-0.3-0.9-1.1-1.6-2.4-2.1c-1-0.4-2-0.5-2.8-0.2c-0.8,0.3-1.4,0.8-1.8,1.7c-0.3,0.7-0.2,1.4,0.2,2.1
	c0.4,0.7,1,1.2,1.7,1.6l2.5,1.5c1.5,0.9,2.7,2,3.4,3.3c0.8,1.3,0.9,2.8,0.2,4.5c-0.4,1.2-1.2,2.1-2.2,2.8s-2.2,1-3.5,1.1
	C1643.9,430,1642.6,429.8,1641.1,429.2z"/>
<path class="st1" d="M1662.8,437.7c-2.1-0.7-3.7-1.9-4.7-3.3c-1.1-1.5-1.7-3.1-1.8-4.9c-0.1-1.8,0.1-3.6,0.8-5.4
	c0.6-1.8,1.6-3.3,2.8-4.7c1.3-1.3,2.8-2.2,4.5-2.7c1.8-0.5,3.7-0.3,5.8,0.4c2.6,0.9,4.4,2.4,5.3,4.4c1,2,1.2,4.2,0.8,6.5l-3.8-1.4
	c0.3-1.4,0.1-2.7-0.4-3.9c-0.5-1.1-1.5-2-2.9-2.5c-1.9-0.7-3.5-0.5-4.9,0.5c-1.4,1-2.5,2.5-3.2,4.6c-0.7,2-0.8,3.9-0.4,5.5
	c0.5,1.7,1.6,2.9,3.5,3.5c1.4,0.5,2.7,0.5,3.8,0c1.1-0.5,2.1-1.4,2.8-2.7l3.8,1.4c-1.1,2.1-2.7,3.6-4.7,4.6
	C1667.7,438.6,1665.4,438.6,1662.8,437.7z"/>
<path class="st1" d="M1683.1,422.1l3.9,1.3l-1,3.2l0.2,0.1c0.6-0.8,1.4-1.3,2.5-1.7c1.1-0.4,2.3-0.3,3.6,0.1
	c0.3,0.1,0.7,0.2,0.9,0.3c0.2,0.1,0.5,0.3,0.7,0.4l-1.4,3.7c-0.6-0.4-1.3-0.8-2-1c-1.5-0.5-2.8-0.4-3.9,0.2
	c-1.1,0.6-1.9,1.8-2.6,3.8l-3.5,10.9l-3.9-1.3L1683.1,422.1z"/>
<path class="st1" d="M1698.2,426.9l4,1.2l-6.1,20.2l-3.9-1.2L1698.2,426.9z M1701.3,423.8c-0.7-0.2-1.2-0.6-1.5-1.2
	s-0.4-1.2-0.2-1.9c0.2-0.7,0.6-1.2,1.2-1.5c0.6-0.3,1.2-0.4,1.9-0.2c0.7,0.2,1.2,0.6,1.5,1.3c0.3,0.6,0.4,1.2,0.2,1.9
	c-0.2,0.7-0.6,1.2-1.2,1.5C1702.6,424,1701.9,424,1701.3,423.8z"/>
<path class="st1" d="M1713.8,453.6c-1.8-0.5-3.1-1.3-3.9-2.4c-0.8-1.1-1.4-2.4-1.7-3.6l-0.3-0.1l-1.1,3.9l-4.1-1.1l7.9-28.9l4.1,1.1
	l-3.3,12.2l0.3,0.1c0.8-0.9,1.9-1.7,3.2-2.2c1.3-0.5,2.8-0.6,4.6-0.1c1.8,0.5,3.2,1.4,4.2,2.6c1,1.3,1.7,2.8,1.9,4.5
	c0.2,1.8,0.1,3.7-0.5,5.8c-0.6,2-1.4,3.8-2.5,5.2c-1.1,1.4-2.4,2.4-3.9,3C1717.2,454.1,1715.6,454.1,1713.8,453.6z M1713.4,450
	c1.8,0.5,3.4,0.2,4.7-0.9c1.3-1.1,2.3-2.7,2.8-4.8c0.6-2,0.6-3.9,0-5.5c-0.5-1.6-1.8-2.7-3.6-3.2c-1.8-0.5-3.4-0.2-4.8,0.9
	c-1.3,1.1-2.3,2.7-2.8,4.7c-0.6,2-0.5,3.9,0,5.5C1710.3,448.4,1711.6,449.5,1713.4,450z"/>
<path class="st1" d="M1737,459.4c-2.1-0.5-3.8-1.4-5-2.8c-1.2-1.3-2-2.9-2.3-4.7c-0.3-1.8-0.3-3.6,0.1-5.5c0.4-1.8,1.2-3.5,2.2-4.9
	c1.1-1.5,2.5-2.6,4.1-3.2c1.7-0.7,3.6-0.8,5.8-0.3c2.8,0.6,4.8,2.1,6.1,4.3c1.3,2.2,1.5,5,0.7,8.5l-0.3,1.1l-15-3.4l-0.1,0.3
	c-0.2,1-0.2,2.1,0,3.1s0.8,1.9,1.5,2.7c0.7,0.7,1.7,1.2,2.8,1.5c1.2,0.3,2.3,0.2,3.4-0.2c1-0.4,1.9-1.1,2.5-2.1l4,0.9
	c-1,1.8-2.3,3.2-4.2,4.1C1741.5,459.8,1739.4,460,1737,459.4z M1745.2,448.4c0.4-2.1,0.2-3.8-0.6-4.9c-0.7-1.2-1.9-1.9-3.4-2.3
	c-1.7-0.4-3.1-0.1-4.4,0.7c-1.2,0.9-2.1,2.2-2.6,4L1745.2,448.4z"/>
<path class="st1" d="M1771.4,447.8l-1.9,11.1c-0.2,1-0.3,1.7-0.3,2.1c0,0.5,0.2,0.9,0.6,1.2c0.4,0.3,1,0.6,2,0.7
	c0.7,0.1,1.3,0.1,2,0.1l-0.5,2.9c-0.2,0-0.6,0.1-1.3,0c-0.7,0-1.4-0.1-2.1-0.2c-1.7-0.3-2.8-0.7-3.6-1.3c-0.7-0.6-1.2-1.4-1.3-2.2
	c-0.1-0.8,0-1.9,0.2-3.1l2.1-12l-3.7-0.6l0.5-3.2l3.7,0.6l1.2-6.8l4.1,0.7l-1.2,6.8l4.8,0.8l-0.6,3.2L1771.4,447.8z"/>
<path class="st1" d="M1788.1,468.6c-2.1-0.3-3.9-1-5.2-2.2c-1.3-1.2-2.3-2.7-2.8-4.4c-0.5-1.8-0.6-3.6-0.4-5.5
	c0.2-1.9,0.8-3.7,1.8-5.2c1-1.6,2.2-2.8,3.8-3.6c1.6-0.8,3.5-1.1,5.6-0.8c2.1,0.3,3.9,1,5.2,2.2c1.4,1.2,2.3,2.7,2.8,4.4
	c0.5,1.7,0.7,3.6,0.4,5.5c-0.3,1.9-0.9,3.6-1.8,5.2c-0.9,1.5-2.2,2.7-3.8,3.6C1792.2,468.6,1790.3,468.9,1788.1,468.6z
	 M1788.6,465.2c1.8,0.2,3.3-0.3,4.5-1.6c1.2-1.3,2-3,2.2-5.2c0.3-2.1,0-4-0.9-5.5c-0.8-1.5-2.2-2.4-4-2.6c-1.8-0.2-3.3,0.3-4.5,1.6
	c-1.2,1.3-2,3-2.2,5.1c-0.3,2.1,0,4,0.8,5.5C1785.4,464.1,1786.8,465,1788.6,465.2z"/>
<path class="st1" d="M1816.9,443.4l6.1,0.3l6.8,20.3l0.1,0l8.4-19.7l6.1,0.3l-1.2,28l-4.1-0.2l0.9-21.8l-0.2,0l-9,21.4l-2.9-0.1
	l-7.2-22.1l-0.2,0l-0.9,21.8l-4.1-0.2L1816.9,443.4z"/>
<path class="st1" d="M1859.2,475.1c-0.4,1-0.8,1.9-1.2,2.5c-0.4,0.7-1.1,1.4-2,2c-0.9,0.7-2.1,1-3.6,1.1c-0.8,0-1.7-0.1-2.6-0.3
	l-0.1-3c0.6,0.1,1.2,0.1,1.7,0.1c0.9,0,1.6-0.2,2.1-0.5c0.5-0.3,0.9-0.8,1.2-1.3c0.3-0.5,0.7-1.3,1-2.2l0.8-2.1l-8.3-20l4.3-0.1
	l5.8,15.5l0.2,0l5.3-15.8l4.2-0.1L1859.2,475.1z"/>
<path class="st1" d="M1881.4,443.1l4.7-0.5l16.2,19.7l0.1,0l-2.5-21.3l4.1-0.5l3.3,27.8l-4.8,0.6l-16.1-19.3l-0.1,0l2.4,20.9
	l-4.1,0.5L1881.4,443.1z"/>
<path class="st1" d="M1923.4,465.7c-2.1,0.4-4,0.2-5.7-0.5c-1.7-0.7-3-1.9-4-3.4c-1-1.5-1.7-3.2-2.1-5.1s-0.3-3.7,0.1-5.4
	c0.4-1.8,1.2-3.3,2.5-4.6c1.3-1.3,3-2.2,5.2-2.6c2.8-0.5,5.3,0,7.3,1.5c2,1.5,3.4,4,4,7.5l0.2,1.1l-15.1,2.8l0,0.3
	c0.2,1,0.6,2,1.3,2.8c0.7,0.8,1.5,1.4,2.4,1.9c1,0.4,2,0.5,3.1,0.3c1.2-0.2,2.2-0.7,3-1.5c0.8-0.8,1.3-1.8,1.4-2.9l4-0.8
	c-0.2,2-0.9,3.8-2.2,5.4C1927.6,464.2,1925.8,465.2,1923.4,465.7z M1926.4,452.3c-0.5-2.1-1.3-3.5-2.5-4.3c-1.1-0.8-2.5-1-4.1-0.7
	c-1.7,0.3-2.9,1.1-3.7,2.4c-0.8,1.3-1,2.9-0.8,4.7L1926.4,452.3z"/>
</svg>
