<svg width="125" height="17" viewBox="0 0 125 17" fill="none" xmlns="http://www.w3.org/2000/svg">
<path d="M52.082 12.3806H42.6707L40.6431 16.8935H38.7849L46.5073 0H48.2695L55.9918 16.8935H54.1096L52.082 12.3806ZM51.431 10.932L47.3758 1.85823L43.3218 10.932H51.431ZM58.7861 0H60.5723V15.3487H70.0316V16.8935H58.7861V0ZM79.3193 0C81.4751 0 83.1651 0.514912 84.3872 1.54472C85.6104 2.57453 86.2213 3.98995 86.2213 5.79212C86.2213 7.59429 85.6104 9.00967 84.3872 10.0395C83.1651 11.0533 81.4751 11.5602 79.3193 11.5602H74.7825V16.8935H72.9963V0H79.3193ZM79.2713 9.99143C80.9442 9.99143 82.2234 9.62871 83.1079 8.90555C83.9935 8.16523 84.4352 7.12744 84.4352 5.79212C84.4352 4.42476 83.9935 3.37893 83.1079 2.65463C82.2234 1.91431 80.9442 1.54472 79.2713 1.54472H74.7825V9.99143H79.2713ZM104.201 0V16.8935H102.439V9.09778H91.8681V16.8935H90.0831V0H91.8681V7.53019H102.439V0H104.201ZM120.308 12.3806H110.897L108.869 16.8935H107.011L114.733 0H116.495L124.218 16.8935H122.336L120.308 12.3806ZM119.657 10.932L115.602 1.85823L111.548 10.932H119.657Z" fill="white"/>
<path opacity="0.7" d="M24.9442 12.4231L30.2076 0.0654297H9.95477C12.7009 2.3539 18.8798 7.50293 24.9442 12.4231Z" fill="white"/>
<path d="M9.15386 0.0654297H7.32305L0 17.0001H17.9645L9.15386 0.0654297Z" fill="white"/>
</svg>
