<svg width="197" height="32" viewBox="0 0 197 32" fill="none" xmlns="http://www.w3.org/2000/svg">
<path opacity="0.5" d="M21.5 26.9001L30.3 31.2001V11.9001L21.5 7.6001V26.9001Z" fill="white"/>
<path d="M0 0V26.9H8.8V7.60001H21.5V0H0Z" fill="white"/>
<path d="M44 20.2621V7.17944H47.8054C48.9771 7.17944 50.0146 7.43091 50.9155 7.93384C51.8164 8.43804 52.5103 9.15327 52.9985 10.0821C53.492 11.0109 53.7419 12.0761 53.7484 13.2804V14.1157C53.7484 15.3503 53.5011 16.432 53.0077 17.3595C52.5195 18.2883 51.8191 19.001 50.9064 19.4988C49.999 19.9955 48.9406 20.2507 47.7312 20.2621H44ZM45.7771 8.59978V18.8519H47.6479C49.0174 18.8519 50.0824 18.4386 50.8413 17.6109C51.6068 16.7845 51.9896 15.608 51.9896 14.0803V13.317C51.9896 11.831 51.6277 10.6773 50.9064 9.85714C50.1904 9.0307 49.1724 8.61116 47.8509 8.59978H45.7771ZM60.3294 20.4415C58.9715 20.4415 57.8675 20.0106 57.0161 19.1476C56.1634 18.2794 55.7377 17.1207 55.7377 15.6712V15.3654C55.7377 14.4012 55.9265 13.5407 56.3027 12.7863C56.6854 12.0256 57.2166 11.4329 57.8949 11.0071C58.5797 10.5761 59.3204 10.3601 60.1172 10.3601C61.4191 10.3601 62.4306 10.7771 63.1532 11.6098C63.8744 12.4413 64.2363 13.6342 64.2363 15.186V15.8772H57.4509C57.4757 16.8363 57.7621 17.6109 58.3115 18.2049C58.8674 18.7912 59.5704 19.0856 60.4218 19.0856C61.0272 19.0856 61.5388 18.9656 61.9593 18.7255C62.3785 18.4854 62.7457 18.1682 63.0607 17.7727L64.1061 18.5638C63.2677 19.816 62.0075 20.4415 60.3294 20.4415ZM60.1172 11.7261C59.4259 11.7261 58.8453 11.9712 58.3766 12.4628C57.9079 12.948 57.6176 13.6304 57.5056 14.5112H62.523V14.3861C62.4736 13.5407 62.2392 12.8887 61.82 12.4274C61.4008 11.9599 60.8319 11.7261 60.1172 11.7261ZM67.8464 10.5395L67.9024 11.7615C68.6666 10.8276 69.6664 10.3601 70.9006 10.3601C73.0174 10.3601 74.085 11.5188 74.1045 13.8377V20.2621H72.3912V13.8288C72.3847 13.1275 72.2181 12.6094 71.8913 12.2745C71.5711 11.9384 71.0672 11.7716 70.3825 11.7716C69.8279 11.7716 69.3396 11.9144 68.9204 12.2025C68.4999 12.4893 68.1732 12.8672 67.9388 13.3347V20.2621H66.2269V10.5395H67.8464ZM79.9916 18.0065L82.4729 10.5395H84.2214L80.6308 20.2621H79.325L75.6967 10.5395H77.4464L79.9916 18.0065ZM89.8962 20.4415C88.5384 20.4415 87.4344 20.0106 86.583 19.1476C85.7302 18.2794 85.3045 17.1207 85.3045 15.6712V15.3654C85.3045 14.4012 85.4933 13.5407 85.8695 12.7863C86.2523 12.0256 86.7834 11.4329 87.4617 11.0071C88.1465 10.5761 88.8873 10.3601 89.684 10.3601C90.9859 10.3601 91.9974 10.7771 92.72 11.6098C93.4425 12.4413 93.8031 13.6342 93.8031 15.186V15.8772H87.0178C87.0425 16.8363 87.3289 17.6109 87.8783 18.2049C88.4342 18.7912 89.1372 19.0856 89.9887 19.0856C90.594 19.0856 91.1057 18.9656 91.5262 18.7255C91.9454 18.4854 92.3125 18.1682 92.6276 17.7727L93.673 18.5638C92.8345 19.816 91.5756 20.4415 89.8962 20.4415ZM89.684 11.7261C88.9927 11.7261 88.4121 11.9712 87.9434 12.4628C87.4747 12.948 87.1844 13.6304 87.0725 14.5112H92.0899V14.3861C92.0404 13.5407 91.8061 12.8887 91.3869 12.4274C90.9677 11.9599 90.4001 11.7261 89.684 11.7261ZM100.634 12.0319C100.375 11.9902 100.095 11.9687 99.7918 11.9687C98.6695 11.9687 97.9066 12.4325 97.5057 13.3613V20.2621H95.7937V10.5395H97.4601L97.4874 11.6629C98.0486 10.7948 98.8453 10.3601 99.8751 10.3601C100.208 10.3601 100.462 10.4018 100.634 10.4864V12.0319ZM108.05 17.683C108.05 17.2344 107.874 16.8869 107.522 16.6405C107.176 16.389 106.568 16.1742 105.698 15.9935C104.834 15.814 104.147 15.5992 103.634 15.3477C103.128 15.095 102.751 14.7955 102.505 14.448C102.264 14.1018 102.143 13.6873 102.143 13.2084C102.143 12.4122 102.489 11.7374 103.181 11.1865C103.877 10.6355 104.766 10.3601 105.847 10.3601C106.982 10.3601 107.901 10.6444 108.605 11.2143C109.315 11.7829 109.669 12.5108 109.669 13.3979H107.948C107.948 12.9417 107.748 12.55 107.347 12.2202C106.951 11.8904 106.451 11.7261 105.847 11.7261C105.223 11.7261 104.735 11.8575 104.383 12.1216C104.032 12.3844 103.856 12.7294 103.856 13.1553C103.856 13.5559 104.02 13.8591 104.347 14.0626C104.674 14.266 105.264 14.4606 106.115 14.6464C106.973 14.8322 107.667 15.0533 108.198 15.3111C108.728 15.5689 109.12 15.8797 109.374 16.2462C109.633 16.6051 109.761 17.0448 109.761 17.5667C109.761 18.4349 109.403 19.1324 108.689 19.6606C107.973 20.1812 107.043 20.4415 105.901 20.4415C105.099 20.4415 104.39 20.3038 103.773 20.0283C103.156 19.7529 102.671 19.37 102.32 18.8784C101.974 18.3818 101.801 17.8447 101.801 17.2698H103.514C103.545 17.827 103.773 18.2706 104.199 18.6004C104.631 18.9239 105.198 19.0856 105.901 19.0856C106.55 19.0856 107.068 18.9593 107.457 18.7078C107.852 18.45 108.05 18.1088 108.05 17.683ZM114.039 15.1405V20.2621H112.261V7.17944H117.233C118.708 7.17944 119.861 7.54463 120.695 8.27629C121.534 9.00668 121.954 9.97339 121.954 11.1777C121.954 12.4476 121.543 13.427 120.722 14.1157C119.908 14.7993 118.738 15.1405 117.213 15.1405H114.039ZM114.039 13.7302H117.233C118.183 13.7302 118.911 13.5142 119.417 13.0833C119.923 12.646 120.176 12.0167 120.176 11.1953C120.176 10.4169 119.923 9.79394 119.417 9.32638C118.911 8.86009 118.217 8.61747 117.334 8.59978H114.039V13.7302ZM128.795 12.0319C128.536 11.9902 128.255 11.9687 127.953 11.9687C126.829 11.9687 126.066 12.4325 125.665 13.3613V20.2621H123.953V10.5395H125.62L125.647 11.6629C126.209 10.7948 127.005 10.3601 128.036 10.3601C128.369 10.3601 128.622 10.4018 128.795 10.4864V12.0319ZM129.739 15.3111C129.739 14.3583 129.93 13.5015 130.313 12.7408C130.701 11.9801 131.238 11.3937 131.923 10.9805C132.615 10.5673 133.401 10.3601 134.284 10.3601C135.648 10.3601 136.749 10.8188 137.589 11.7349C138.434 12.6511 138.857 13.8705 138.857 15.392V15.5095C138.857 16.4547 138.668 17.3064 138.292 18.0608C137.922 18.8089 137.389 19.394 136.691 19.8122C135.999 20.2318 135.204 20.4415 134.302 20.4415C132.945 20.4415 131.843 19.9841 130.998 19.0667C130.158 18.1505 129.739 16.9374 129.739 15.4286V15.3111ZM131.461 15.5095C131.461 16.5874 131.716 17.453 132.229 18.105C132.747 18.7583 133.439 19.0856 134.302 19.0856C135.173 19.0856 135.864 18.7558 136.376 18.0962C136.889 17.4315 137.144 16.5027 137.144 15.3111C137.144 14.2446 136.882 13.3827 136.357 12.7231C135.839 12.0584 135.148 11.7261 134.284 11.7261C133.439 11.7261 132.756 12.0521 132.238 12.7054C131.72 13.3587 131.461 14.2926 131.461 15.5095ZM149.466 15.5095C149.466 16.988 149.117 18.1809 148.419 19.0856C147.722 19.9892 146.778 20.4415 145.586 20.4415C144.37 20.4415 143.415 20.0675 142.717 19.3182V24H141.005V10.5395H142.569L142.652 11.6187C143.35 10.7796 144.318 10.3601 145.559 10.3601C146.762 10.3601 147.712 10.8011 148.41 11.6806C149.113 12.5614 149.466 13.7871 149.466 15.3566V15.5095ZM147.753 15.3199C147.753 14.2243 147.512 13.3587 147.032 12.7231C146.55 12.0887 145.89 11.7716 145.05 11.7716C144.012 11.7716 143.235 12.2176 142.717 13.1098V17.755C143.229 18.6421 144.012 19.0856 145.068 19.0856C145.89 19.0856 146.541 18.771 147.021 18.1417C147.509 17.5061 147.753 16.5659 147.753 15.3199ZM155.806 20.4415C154.448 20.4415 153.344 20.0106 152.493 19.1476C151.641 18.2794 151.214 17.1207 151.214 15.6712V15.3654C151.214 14.4012 151.403 13.5407 151.779 12.7863C152.162 12.0256 152.693 11.4329 153.372 11.0071C154.056 10.5761 154.797 10.3601 155.594 10.3601C156.896 10.3601 157.907 10.7771 158.63 11.6098C159.352 12.4413 159.713 13.6342 159.713 15.186V15.8772H152.928C152.952 16.8363 153.239 17.6109 153.788 18.2049C154.344 18.7912 155.047 19.0856 155.899 19.0856C156.504 19.0856 157.016 18.9656 157.436 18.7255C157.855 18.4854 158.222 18.1682 158.537 17.7727L159.583 18.5638C158.744 19.816 157.486 20.4415 155.806 20.4415ZM155.594 11.7261C154.903 11.7261 154.322 11.9712 153.853 12.4628C153.385 12.948 153.094 13.6304 152.984 14.5112H158V14.3861C157.952 13.5407 157.716 12.8887 157.297 12.4274C156.878 11.9599 156.31 11.7261 155.594 11.7261ZM166.545 12.0319C166.285 11.9902 166.005 11.9687 165.702 11.9687C164.579 11.9687 163.817 12.4325 163.416 13.3613V20.2621H161.704V10.5395H163.37L163.397 11.6629C163.958 10.7948 164.755 10.3601 165.785 10.3601C166.118 10.3601 166.372 10.4018 166.545 10.4864V12.0319ZM170.914 8.1853V10.5395H172.784V11.8246H170.914V17.8536C170.914 18.2428 170.998 18.5372 171.164 18.7343C171.331 18.9264 171.615 19.0224 172.016 19.0224C172.214 19.0224 172.484 18.9858 172.831 18.9138V20.2621C172.38 20.3822 171.942 20.4415 171.516 20.4415C170.75 20.4415 170.174 20.2166 169.784 19.768C169.396 19.3181 169.201 18.6813 169.201 17.8536V11.8246H167.377V10.5395H169.201V8.1853H170.914ZM176.653 20.2621H174.941V10.5395H176.653V20.2621ZM174.802 7.96165C174.802 7.69122 174.885 7.46376 175.052 7.27801C175.225 7.09225 175.477 7 175.811 7C176.144 7 176.398 7.09225 176.57 7.27801C176.743 7.46376 176.829 7.69122 176.829 7.96165C176.829 8.23081 176.743 8.45572 176.57 8.63516C176.398 8.8146 176.144 8.90432 175.811 8.90432C175.477 8.90432 175.225 8.8146 175.052 8.63516C174.885 8.45572 174.802 8.23081 174.802 7.96165ZM183.559 20.4415C182.202 20.4415 181.096 20.0106 180.245 19.1476C179.393 18.2794 178.968 17.1207 178.968 15.6712V15.3654C178.968 14.4012 179.155 13.5407 179.533 12.7863C179.915 12.0256 180.445 11.4329 181.125 11.0071C181.81 10.5761 182.551 10.3601 183.346 10.3601C184.648 10.3601 185.661 10.7771 186.382 11.6098C187.104 12.4413 187.465 13.6342 187.465 15.186V15.8772H180.68C180.704 16.8363 180.992 17.6109 181.542 18.2049C182.096 18.7912 182.8 19.0856 183.652 19.0856C184.256 19.0856 184.769 18.9656 185.188 18.7255C185.609 18.4854 185.976 18.1682 186.289 17.7727L187.336 18.5638C186.496 19.816 185.238 20.4415 183.559 20.4415ZM183.346 11.7261C182.655 11.7261 182.075 11.9712 181.605 12.4628C181.137 12.948 180.846 13.6304 180.736 14.5112H185.753V14.3861C185.704 13.5407 185.469 12.8887 185.05 12.4274C184.63 11.9599 184.062 11.7261 183.346 11.7261ZM195.288 17.683C195.288 17.2344 195.112 16.8869 194.759 16.6405C194.414 16.389 193.807 16.1742 192.937 15.9935C192.072 15.814 191.384 15.5992 190.872 15.3477C190.366 15.095 189.989 14.7955 189.743 14.448C189.503 14.1018 189.381 13.6873 189.381 13.2084C189.381 12.4122 189.728 11.7374 190.419 11.1865C191.116 10.6355 192.005 10.3601 193.084 10.3601C194.221 10.3601 195.14 10.6444 195.843 11.2143C196.553 11.7829 196.908 12.5108 196.908 13.3979H195.186C195.186 12.9417 194.985 12.55 194.584 12.2202C194.189 11.8904 193.689 11.7261 193.084 11.7261C192.462 11.7261 191.973 11.8575 191.622 12.1216C191.27 12.3844 191.095 12.7294 191.095 13.1553C191.095 13.5559 191.257 13.8591 191.586 14.0626C191.912 14.266 192.502 14.4606 193.353 14.6464C194.211 14.8322 194.905 15.0533 195.436 15.3111C195.966 15.5689 196.358 15.8797 196.612 16.2462C196.871 16.6051 197 17.0448 197 17.5667C197 18.4349 196.642 19.1324 195.926 19.6606C195.211 20.1812 194.282 20.4415 193.14 20.4415C192.338 20.4415 191.628 20.3038 191.011 20.0283C190.394 19.7529 189.91 19.37 189.557 18.8784C189.212 18.3818 189.039 17.8447 189.039 17.2698H190.752C190.782 17.827 191.011 18.2706 191.437 18.6004C191.869 18.9239 192.437 19.0856 193.14 19.0856C193.788 19.0856 194.306 18.9593 194.696 18.7078C195.09 18.45 195.288 18.1088 195.288 17.683Z" fill="white"/>
</svg>
