<svg width="83" height="41" viewBox="0 0 83 41" fill="none" xmlns="http://www.w3.org/2000/svg">
<path d="M14.8287 6.70409L14.3561 0.113649H15.282L15.5179 3.94732L15.6216 5.63722H15.6971L16.4431 1.70928H17.4913L18.2373 5.63722H18.3128L18.4171 3.94732L18.6624 0.113649H19.5502L19.0775 6.70409H17.6611L16.9912 2.8898H16.9157L16.2452 6.70409H14.8287ZM20.5943 6.70409V0.113649H24.7208V1.00071H21.6518V2.91789H24.6078V3.8056H21.6518V5.81703H24.7208V6.70409H20.5943ZM26.2375 6.70409V0.113649H28.7022C29.3312 0.113649 29.8098 0.289447 30.1374 0.642399C30.471 0.994683 30.6381 1.47934 30.6381 2.09634C30.6381 2.71333 30.471 3.19797 30.1374 3.55025C29.8098 3.9032 29.3312 4.07902 28.7022 4.07902H27.2951V6.70409H26.2375ZM27.2951 3.20131H28.5418C29.1962 3.20131 29.5237 2.89917 29.5237 2.29487V1.88844C29.5237 1.29083 29.1962 0.991343 28.5418 0.991343H27.2951V3.20131ZM33.939 6.81774C33.5239 6.81774 33.1616 6.74221 32.8534 6.59113C32.5512 6.43337 32.2992 6.21009 32.098 5.92064C31.9028 5.63119 31.7578 5.27558 31.6635 4.85378C31.5686 4.43197 31.5218 3.94999 31.5218 3.40853C31.5218 2.87375 31.5686 2.39513 31.6635 1.97332C31.7578 1.5455 31.9028 1.18654 32.098 0.897095C32.2992 0.607647 32.5512 0.387042 32.8534 0.235968C33.1616 0.0788774 33.5239 0 33.939 0C34.3548 0 34.7131 0.0788774 35.0152 0.235968C35.3241 0.387042 35.5761 0.607647 35.7713 0.897095C35.9725 1.18654 36.1202 1.5455 36.2145 1.97332C36.3094 2.39513 36.3562 2.87375 36.3562 3.40853C36.3562 3.94999 36.3094 4.43197 36.2145 4.85378C36.1202 5.27558 35.9725 5.63119 35.7713 5.92064C35.5761 6.21009 35.3241 6.43337 35.0152 6.59113C34.7131 6.74221 34.3548 6.81774 33.939 6.81774ZM33.939 5.93937C34.4109 5.93937 34.7445 5.76355 34.9397 5.4106C35.1349 5.05163 35.2325 4.567 35.2325 3.95668V2.85169C35.2325 2.24739 35.1349 1.76879 34.9397 1.4165C34.7445 1.05753 34.4109 0.878367 33.939 0.878367C33.4671 0.878367 33.1335 1.05753 32.9383 1.4165C32.7431 1.76879 32.6455 2.24739 32.6455 2.85169V3.96605C32.6455 4.57034 32.7431 5.05163 32.9383 5.4106C33.1335 5.76355 33.4671 5.93937 33.939 5.93937ZM38.6096 6.70409H37.5614V0.113649H40.0261C40.6551 0.113649 41.1337 0.289447 41.4613 0.642399C41.7949 0.994683 41.962 1.47934 41.962 2.09634C41.962 2.59969 41.839 3.01548 41.5937 3.34303C41.3477 3.66991 40.9954 3.87178 40.5361 3.94732L42.0562 6.70409H40.8851L39.488 4.04159H38.6096V6.70409ZM39.875 3.19194C40.5294 3.19194 40.857 2.89248 40.857 2.29487V1.88844C40.857 1.29083 40.5294 0.991343 39.875 0.991343H38.6096V3.19194H39.875ZM45.7916 1.00071V6.70409H44.7341V1.00071H42.6666V0.113649H47.8599V1.00071H45.7916Z" fill="white"/>
<path d="M34.3254 40.6758V36.3261H37.0487V36.9117H35.0232V38.1771H36.9738V38.7627H35.0232V40.0902H37.0487V40.6758H34.3254ZM39.3583 40.7507C38.9799 40.7507 38.6624 40.6845 38.4051 40.5515C38.147 40.4185 37.9351 40.242 37.7693 40.0214L38.2179 39.5916C38.3843 39.7908 38.5608 39.9385 38.7473 40.0341C38.9345 40.1257 39.1464 40.1711 39.383 40.1711C39.6578 40.1711 39.867 40.109 40.0127 39.984C40.1625 39.8596 40.2373 39.6811 40.2373 39.4485C40.2373 39.2613 40.1832 39.1183 40.0749 39.018C39.9673 38.9144 39.7821 38.8395 39.5201 38.7941L39.0468 38.7192C38.8389 38.6858 38.6644 38.6316 38.5234 38.5568C38.3817 38.4779 38.268 38.387 38.1804 38.2827C38.0929 38.1751 38.0287 38.0568 37.9873 37.9277C37.9498 37.7947 37.9311 37.6557 37.9311 37.5099C37.9311 37.0988 38.0641 36.7873 38.3302 36.5754C38.5962 36.3595 38.9612 36.2512 39.4271 36.2512C39.7714 36.2512 40.0649 36.3074 40.3055 36.4197C40.5508 36.5273 40.748 36.681 40.8978 36.8809L40.4613 37.3168C40.3409 37.1717 40.1972 37.0554 40.0314 36.9678C39.869 36.8762 39.6678 36.8308 39.4271 36.8308C39.1691 36.8308 38.9719 36.8869 38.8349 36.9992C38.7018 37.1069 38.6357 37.2673 38.6357 37.4792C38.6357 37.6577 38.6872 37.7987 38.7914 37.903C38.8991 38.0026 39.0882 38.0748 39.3583 38.1209L39.8195 38.2018C40.2099 38.2727 40.4947 38.4157 40.6732 38.6316C40.8516 38.8436 40.9412 39.1036 40.9412 39.4111C40.9412 39.6103 40.9058 39.7928 40.8356 39.9592C40.7688 40.1257 40.6671 40.2667 40.5301 40.383C40.3971 40.4994 40.2306 40.5909 40.0314 40.6571C39.8362 40.7193 39.6116 40.7507 39.3583 40.7507ZM43.4814 36.9117V40.6758H42.7835V36.9117H41.4185V36.3261H44.8464V36.9117H43.4814ZM45.5483 40.6758V40.0963H46.7696V36.8368H46.7195L45.7101 37.915L45.2803 37.5287L46.3893 36.3261H47.4675V40.0963H48.521V40.6758H45.5483ZM52.1455 37.9464C52.1455 38.262 52.0973 38.5594 52.0017 38.8375C51.9062 39.1156 51.7818 39.3716 51.6281 39.6043C51.4743 39.8369 51.3039 40.0441 51.1174 40.2273C50.9302 40.4098 50.745 40.5595 50.5625 40.6758H49.6273C49.8767 40.4973 50.1013 40.3249 50.3005 40.1584C50.5004 39.9927 50.6728 39.8222 50.8179 39.6477C50.9676 39.4732 51.092 39.2901 51.1916 39.0996C51.2918 38.9037 51.3687 38.6878 51.4222 38.4511L51.3787 38.4385C51.3333 38.526 51.2791 38.6089 51.217 38.6878C51.1541 38.7627 51.0819 38.8295 50.9984 38.8877C50.9155 38.9458 50.8199 38.9913 50.7123 39.0247C50.604 39.0575 50.4816 39.0742 50.3446 39.0742C50.1574 39.0742 49.985 39.0434 49.8272 38.9806C49.6694 38.9184 49.5317 38.8295 49.4154 38.7132C49.2991 38.5922 49.2082 38.4492 49.1413 38.2827C49.0792 38.1169 49.0478 37.9297 49.0478 37.7218C49.0478 37.5059 49.0832 37.3087 49.1541 37.1303C49.2289 36.9471 49.3325 36.7913 49.4656 36.6623C49.6026 36.534 49.767 36.4337 49.9576 36.3635C50.1487 36.2887 50.3607 36.2512 50.5933 36.2512C50.8346 36.2512 51.0505 36.2907 51.2417 36.3695C51.4369 36.4484 51.6013 36.5627 51.7337 36.7125C51.8667 36.8575 51.969 37.0347 52.0392 37.2419C52.11 37.4498 52.1455 37.6844 52.1455 37.9464ZM50.6 38.52C50.8613 38.52 51.0652 38.4491 51.2103 38.3081C51.356 38.1624 51.4289 37.9585 51.4289 37.6971V37.635C51.4289 37.3729 51.356 37.1717 51.2103 37.03C51.0652 36.8849 50.8613 36.8121 50.6 36.8121C50.3339 36.8121 50.128 36.8849 49.983 37.03C49.8372 37.1717 49.7644 37.3729 49.7644 37.635V37.6971C49.7644 37.9585 49.8372 38.1624 49.983 38.3081C50.128 38.4491 50.3339 38.52 50.6 38.52ZM55.8822 37.9464C55.8822 38.262 55.8341 38.5594 55.7385 38.8375C55.6429 39.1156 55.5186 39.3716 55.3648 39.6043C55.2111 39.8369 55.0406 40.0441 54.8541 40.2273C54.6669 40.4098 54.4818 40.5595 54.2993 40.6758H53.3641C53.6134 40.4973 53.838 40.3249 54.0372 40.1584C54.2371 39.9927 54.4096 39.8222 54.5546 39.6477C54.7044 39.4732 54.8287 39.2901 54.9283 39.0996C55.0286 38.9037 55.1054 38.6878 55.1589 38.4511L55.1155 38.4385C55.07 38.526 55.0159 38.6089 54.9537 38.6878C54.8915 38.7627 54.8187 38.8295 54.7351 38.8877C54.6522 38.9458 54.5566 38.9913 54.449 39.0247C54.3407 39.0575 54.2184 39.0742 54.0814 39.0742C53.8942 39.0742 53.7217 39.0434 53.564 38.9806C53.4062 38.9184 53.2685 38.8295 53.1522 38.7132C53.0359 38.5922 52.945 38.4492 52.8781 38.2827C52.8159 38.1169 52.7845 37.9297 52.7845 37.7218C52.7845 37.5059 52.8199 37.3087 52.8908 37.1303C52.9657 36.9471 53.0693 36.7913 53.2023 36.6623C53.3393 36.534 53.5038 36.4337 53.695 36.3635C53.8855 36.2887 54.0974 36.2512 54.33 36.2512C54.5713 36.2512 54.7873 36.2907 54.9784 36.3695C55.1736 36.4484 55.3381 36.5627 55.4711 36.7125C55.6035 36.8575 55.7057 37.0347 55.7759 37.2419C55.8468 37.4498 55.8822 37.6844 55.8822 37.9464ZM54.3367 38.52C54.5981 38.52 54.802 38.4491 54.947 38.3081C55.0928 38.1624 55.1656 37.9585 55.1656 37.6971V37.635C55.1656 37.3729 55.0928 37.1717 54.947 37.03C54.802 36.8849 54.5981 36.8121 54.3367 36.8121C54.0707 36.8121 53.8648 36.8849 53.7197 37.03C53.574 37.1717 53.5018 37.3729 53.5018 37.635V37.6971C53.5018 37.9585 53.574 38.1624 53.7197 38.3081C53.8648 38.4491 54.0707 38.52 54.3367 38.52ZM59.619 37.9464C59.619 38.262 59.5708 38.5594 59.4752 38.8375C59.3803 39.1156 59.2553 39.3716 59.1016 39.6043C58.9478 39.8369 58.7774 40.0441 58.5909 40.2273C58.4037 40.4098 58.2185 40.5595 58.036 40.6758H57.1008C57.3502 40.4973 57.5748 40.3249 57.774 40.1584C57.9739 39.9927 58.1463 39.8222 58.2914 39.6477C58.4411 39.4732 58.5655 39.2901 58.6651 39.0996C58.7653 38.9037 58.8422 38.6878 58.8957 38.4511L58.8522 38.4385C58.8068 38.526 58.7526 38.6089 58.6905 38.6878C58.6283 38.7627 58.5554 38.8295 58.4719 38.8877C58.389 38.9458 58.2934 38.9913 58.1858 39.0247C58.0775 39.0575 57.9551 39.0742 57.8181 39.0742C57.6309 39.0742 57.4585 39.0434 57.3007 38.9806C57.143 38.9184 57.0059 38.8295 56.8889 38.7132C56.7726 38.5922 56.6817 38.4492 56.6149 38.2827C56.5527 38.1169 56.5213 37.9297 56.5213 37.7218C56.5213 37.5059 56.5567 37.3087 56.6276 37.1303C56.7024 36.9471 56.806 36.7913 56.9391 36.6623C57.0761 36.534 57.2405 36.4337 57.4317 36.3635C57.6222 36.2887 57.8342 36.2512 58.0668 36.2512C58.3081 36.2512 58.524 36.2907 58.7152 36.3695C58.9104 36.4484 59.0748 36.5627 59.2079 36.7125C59.3402 36.8575 59.4425 37.0347 59.5127 37.2419C59.5835 37.4498 59.619 37.6844 59.619 37.9464ZM58.0735 38.52C58.3348 38.52 58.5387 38.4491 58.6838 38.3081C58.8295 38.1624 58.9024 37.9585 58.9024 37.6971V37.635C58.9024 37.3729 58.8295 37.1717 58.6838 37.03C58.5387 36.8849 58.3348 36.8121 58.0735 36.8121C57.8074 36.8121 57.6015 36.8849 57.4565 37.03C57.3107 37.1717 57.2385 37.3729 57.2385 37.635V37.6971C57.2385 37.9585 57.3107 38.1624 57.4565 38.3081C57.6015 38.4491 57.8074 38.52 58.0735 38.52Z" fill="white"/>
<path d="M8.94414 27.4293H8.73025C8.58719 27.7782 8.41338 28.1111 8.20682 28.428C8.00093 28.7455 7.74691 29.0309 7.44543 29.2843C7.14462 29.5223 6.78766 29.7128 6.37522 29.8558C5.97881 29.9982 5.52693 30.0697 5.0189 30.0697C4.21071 30.0697 3.48876 29.8792 2.85438 29.4989C2.23605 29.1178 1.71264 28.563 1.28415 27.8337C0.856325 27.1037 0.53077 26.216 0.308837 25.1692C0.102948 24.1224 0 22.9412 0 21.6243C0 18.802 0.515403 16.6448 1.54619 15.1542C2.57697 13.6474 4.17059 12.894 6.32775 12.894C7.18406 12.894 7.93743 13.013 8.58718 13.251C9.2376 13.4729 9.79311 13.7978 10.253 14.2263C10.7283 14.6388 11.1174 15.1381 11.4182 15.725C11.7196 16.3119 11.9576 16.9617 12.1321 17.6756L8.80177 18.4845C8.70618 18.1355 8.5952 17.8026 8.46886 17.4851C8.35723 17.1522 8.20682 16.8587 8.0163 16.6054C7.82646 16.3514 7.58849 16.1535 7.30306 16.0105C7.01762 15.852 6.66867 15.7725 6.25622 15.7725C5.35245 15.7725 4.71005 16.1455 4.32903 16.8908C3.96471 17.6362 3.78222 18.683 3.78222 20.0306V22.7426C3.78222 24.0909 3.98075 25.1692 4.37715 25.978C4.78893 26.7869 5.51088 27.1913 6.54166 27.1913C7.35051 27.1913 7.95282 26.9533 8.34989 26.4774C8.74629 26.0014 8.94414 25.3911 8.94414 24.6458V23.4325H6.11318V20.911H12.1321V29.7843H8.94414V27.4293ZM18.76 29.7843H15.2391V13.1795H21.6618C22.4707 13.1795 23.1926 13.3065 23.827 13.5605C24.4614 13.7978 24.9921 14.1468 25.4206 14.6067C25.8645 15.0666 26.198 15.6221 26.42 16.2718C26.6419 16.9223 26.7529 17.6515 26.7529 18.4604C26.7529 19.6342 26.4989 20.6416 25.9915 21.4819C25.4841 22.3222 24.7622 22.8777 23.827 23.1471L27.0858 29.7843H23.1846L20.4011 23.623H18.76V29.7843ZM20.8055 20.8635C21.6464 20.8635 22.2253 20.7044 22.5422 20.3876C22.8751 20.0701 23.0415 19.5473 23.0415 18.8174V18.1041C23.0415 17.3741 22.8751 16.8507 22.5422 16.5339C22.2253 16.2163 21.6464 16.0579 20.8055 16.0579H18.76V20.8635H20.8055ZM38.0433 29.7843L36.9965 25.7875H32.4529L31.4302 29.7843H27.8137L32.3099 13.1795H37.3535L41.8496 29.7843H38.0433ZM34.832 16.6288H34.6415L33.0238 22.9091H36.449L34.832 16.6288ZM46.7168 18.7458H46.4554V29.7843H43.4098V13.1795H47.692L51.4743 24.2173H51.7363V13.1795H54.7812V29.7843H50.499L46.7168 18.7458ZM57.7452 13.1795H63.0976C65.3343 13.1795 66.9915 13.8934 68.0697 15.3206C69.148 16.7478 69.6874 18.802 69.6874 21.4819C69.6874 24.1618 69.148 26.216 68.0697 27.6432C66.9915 29.0704 65.3343 29.7843 63.0976 29.7843H57.7452V13.1795ZM62.8603 26.9774C63.9225 26.9774 64.7 26.6358 65.1913 25.954C65.6833 25.2721 65.9286 24.2808 65.9286 22.9806V19.9591C65.9286 18.675 65.6833 17.6917 65.1913 17.0098C64.7 16.3273 63.9225 15.9864 62.8603 15.9864H61.266V26.9774H62.8603ZM72.39 29.7843V13.1795H83V16.1054H75.9583V19.9117H82.762V22.8375H75.9583V26.8584H83V29.7843H72.39Z" fill="white"/>
</svg>
