<svg width="123" height="32" viewBox="0 0 123 32" fill="none" xmlns="http://www.w3.org/2000/svg">
<path d="M10.6694 21.2644V31.9329H21.337V21.2644H10.6694Z" fill="white"/>
<path opacity="0.5" d="M10.6804 0V10.6685H21.3488V0H10.6804Z" fill="white"/>
<path opacity="0.7" d="M0 10.6685V21.3369H10.6685V10.6685H0Z" fill="white"/>
<path d="M39.316 22.2445C37.2729 22.2445 35.6777 21.6721 34.5321 20.5256C33.3857 19.3606 32.7846 17.7375 32.727 15.6554L32.6982 14.5098L32.727 13.3642C32.7846 11.2822 33.3857 9.66836 34.5321 8.52192C35.6777 7.3577 37.2729 6.77518 39.316 6.77518C40.6911 6.77518 41.8468 7.02326 42.7824 7.51943C43.7375 7.99697 44.4445 8.59897 44.9026 9.3246C45.3801 10.0502 45.6375 10.7759 45.6756 11.5015C45.6951 11.6734 45.6282 11.8266 45.4758 11.9604C45.342 12.0942 45.1888 12.1611 45.0169 12.1611H43.757C43.5656 12.1611 43.4225 12.1221 43.3269 12.0459C43.2312 11.9502 43.1355 11.7885 43.0407 11.5591C42.6969 10.6234 42.2194 9.96472 41.6081 9.58201C41.0162 9.18152 40.2618 8.98083 39.3448 8.98083C38.1416 8.98083 37.1866 9.35338 36.4796 10.0976C35.7734 10.8427 35.3916 11.979 35.334 13.5073L35.3052 14.5098L35.334 15.5123C35.3916 17.0406 35.7734 18.1769 36.4796 18.922C37.1866 19.6662 38.1416 20.0388 39.3448 20.0388C40.2804 20.0388 41.045 19.8483 41.6368 19.4656C42.2287 19.0651 42.6969 18.3962 43.0407 17.4606C43.1355 17.2311 43.2312 17.0787 43.3269 17.0025C43.4225 16.9068 43.5656 16.8586 43.757 16.8586H45.0169C45.1888 16.8586 45.342 16.9255 45.4758 17.0592C45.6282 17.193 45.6951 17.3463 45.6756 17.5182C45.6375 18.2243 45.3801 18.9406 44.9026 19.6663C44.4445 20.3919 43.7375 21.0032 42.7824 21.5002C41.8468 21.9964 40.6911 22.2445 39.316 22.2445ZM55.1528 22.2445C53.0521 22.2445 51.429 21.6526 50.2825 20.4689C49.1556 19.2844 48.5544 17.7087 48.4782 15.7418L48.4494 14.5098L48.4782 13.2779C48.5544 11.311 49.1657 9.73525 50.3113 8.55071C51.4764 7.36701 53.0902 6.77518 55.1528 6.77518C57.2153 6.77518 58.8198 7.36701 59.9663 8.55071C61.1313 9.73525 61.752 11.311 61.8282 13.2779C61.8663 13.6978 61.8849 14.1085 61.8849 14.5098C61.8849 14.9111 61.8663 15.3218 61.8282 15.7418C61.752 17.7087 61.1407 19.2844 59.9942 20.4689C58.8681 21.6526 57.2543 22.2445 55.1528 22.2445ZM55.1528 20.0964C56.3754 20.0964 57.3398 19.7145 58.0468 18.9499C58.7724 18.1676 59.1636 17.0499 59.2212 15.5987C59.2398 15.4073 59.25 15.0449 59.25 14.5098C59.25 13.9747 59.2398 13.6123 59.2212 13.421C59.1636 11.9697 58.7724 10.8622 58.0468 10.0976C57.3398 9.31528 56.3754 8.92326 55.1528 8.92326C53.931 8.92326 52.9564 9.31528 52.2308 10.0976C51.5246 10.8622 51.1419 11.9697 51.0852 13.421L51.0564 14.5098L51.0852 15.5987C51.1419 17.0499 51.5246 18.1676 52.2308 18.9499C52.9564 19.7145 53.931 20.0964 55.1528 20.0964ZM66.1904 27.4017C65.9991 27.4017 65.8365 27.3442 65.7036 27.2298C65.5884 27.1147 65.5317 26.953 65.5317 26.743V7.7201C65.5317 7.51012 65.5884 7.34754 65.7036 7.23324C65.8365 7.11893 65.9991 7.06135 66.1904 7.06135H67.3936C67.6036 7.06135 67.7661 7.11893 67.8804 7.23324C67.9947 7.34754 68.0523 7.51012 68.0523 7.7201V8.98083C69.1598 7.5101 70.7355 6.77518 72.7795 6.77518C74.7845 6.77518 76.284 7.41444 77.2772 8.69381C78.289 9.95455 78.8241 11.5684 78.8816 13.5361C78.9003 13.7461 78.9096 14.0704 78.9096 14.5098C78.9096 14.9492 78.9003 15.2736 78.8816 15.4835C78.8241 17.4318 78.289 19.0456 77.2772 20.3258C76.284 21.6052 74.7845 22.2445 72.7795 22.2445C70.7355 22.2445 69.1886 21.5188 68.1387 20.0676V26.743C68.1387 26.9335 68.0718 27.0868 67.938 27.2011C67.8229 27.3348 67.6704 27.4017 67.4791 27.4017H66.1904ZM72.235 20.01C73.6101 20.01 74.6126 19.5807 75.2434 18.7213C75.8733 17.8619 76.2171 16.735 76.2747 15.3404C76.2933 15.1499 76.3026 14.873 76.3026 14.5098C76.3026 10.8427 74.947 9.00964 72.235 9.00964C70.8981 9.00964 69.8854 9.45839 69.1979 10.3559C68.5299 11.2348 68.1768 12.2754 68.1387 13.4785C68.1192 13.6885 68.1099 14.0611 68.1099 14.5962C68.1099 15.1305 68.1192 15.503 68.1387 15.713C68.1768 16.8781 68.5392 17.8907 69.2267 18.7501C69.9337 19.5901 70.9362 20.01 72.235 20.01ZM82.9424 4.2537C82.7511 4.2537 82.5885 4.19612 82.4556 4.08182C82.3404 3.94804 82.2837 3.78546 82.2837 3.59495V2.10474C82.2837 1.91424 82.3404 1.75168 82.4556 1.6179C82.5885 1.48413 82.7511 1.41724 82.9424 1.41724H84.6325C84.8238 1.41724 84.9855 1.48413 85.1193 1.6179C85.2531 1.75168 85.32 1.91424 85.32 2.10474V3.59495C85.32 3.78546 85.2531 3.94804 85.1193 4.08182C84.9855 4.19612 84.8238 4.2537 84.6325 4.2537H82.9424ZM83.1711 21.9583C82.9806 21.9583 82.818 21.9007 82.6842 21.7864C82.5699 21.6526 82.5123 21.49 82.5123 21.2995V7.7201C82.5123 7.52959 82.5699 7.37633 82.6842 7.26202C82.818 7.12824 82.9806 7.06135 83.1711 7.06135H84.4318C84.6232 7.06135 84.7756 7.12824 84.8907 7.26202C85.0236 7.37633 85.0905 7.52959 85.0905 7.7201V21.2995C85.0905 21.49 85.0236 21.6526 84.8907 21.7864C84.7756 21.9007 84.6232 21.9583 84.4318 21.9583H83.1711ZM88.7077 21.9583C88.5358 21.9583 88.3918 21.9007 88.2775 21.7864C88.1632 21.6721 88.1057 21.529 88.1057 21.3571C88.1057 21.1852 88.1725 21.0032 88.3063 20.8127L93.2909 14.3379L88.6213 8.17816C88.4689 7.96817 88.3918 7.79631 88.3918 7.66253C88.3918 7.49065 88.4494 7.34754 88.5637 7.23324C88.6975 7.11893 88.8406 7.06135 88.9938 7.06135H90.3689C90.6551 7.06135 90.904 7.21377 91.114 7.51943L94.9809 12.5328L98.8486 7.51943C98.9629 7.36703 99.0688 7.25187 99.1636 7.17567C99.2788 7.09946 99.4218 7.06135 99.5937 7.06135H100.911C101.064 7.06135 101.198 7.11893 101.313 7.23324C101.427 7.34754 101.484 7.48132 101.484 7.63457C101.484 7.82508 101.418 8.00627 101.284 8.17816L96.5566 14.3955L101.542 20.8127C101.675 21.0032 101.742 21.1852 101.742 21.3571C101.742 21.529 101.685 21.6721 101.57 21.7864C101.456 21.9007 101.313 21.9583 101.141 21.9583H99.7368C99.4506 21.9583 99.2017 21.8152 98.9917 21.529L94.8954 16.2286L90.7982 21.529C90.6839 21.6619 90.5696 21.7678 90.4544 21.844C90.3596 21.9202 90.2258 21.9583 90.0539 21.9583H88.7077ZM110.292 22.2445C108.344 22.2445 106.787 21.6433 105.622 20.4401C104.457 19.2175 103.817 17.5562 103.703 15.4556L103.674 14.481L103.703 13.5361C103.817 11.4727 104.457 9.83092 105.622 8.60828C106.787 7.38564 108.344 6.77518 110.292 6.77518C112.393 6.77518 114.016 7.44321 115.162 8.78016C116.327 10.1171 116.91 11.9316 116.91 14.2236V14.7393C116.91 14.9298 116.843 15.0923 116.709 15.2261C116.595 15.3404 116.441 15.398 116.251 15.398H106.31V15.6554C106.367 16.8975 106.749 17.9567 107.455 18.8356C108.162 19.7145 109.098 20.1539 110.263 20.1539C111.161 20.1539 111.887 19.9812 112.441 19.6374C113.013 19.2751 113.443 18.9025 113.729 18.5206C113.901 18.2912 114.035 18.1574 114.131 18.1193C114.226 18.0626 114.388 18.0338 114.618 18.0338H115.878C116.05 18.0338 116.193 18.0812 116.308 18.1769C116.441 18.2726 116.508 18.3962 116.508 18.5495C116.508 18.9694 116.251 19.4757 115.735 20.0676C115.22 20.6594 114.484 21.1751 113.529 21.6145C112.593 22.0345 111.514 22.2445 110.292 22.2445ZM114.303 13.4497V13.3642C114.303 12.0273 113.939 10.9384 113.214 10.0976C112.488 9.2577 111.514 8.83776 110.292 8.83776C109.051 8.83776 108.077 9.2577 107.37 10.0976C106.663 10.9384 106.31 12.0273 106.31 13.3642V13.4497H114.303ZM121.081 21.9583C120.89 21.9583 120.727 21.9007 120.594 21.7864C120.479 21.6526 120.422 21.49 120.422 21.2995V2.27663C120.422 2.06664 120.479 1.90494 120.594 1.78979C120.727 1.67548 120.89 1.6179 121.081 1.6179H122.341C122.532 1.6179 122.685 1.68479 122.799 1.81857C122.933 1.93288 123 2.08612 123 2.27663V21.2995C123 21.49 122.933 21.6526 122.799 21.7864C122.685 21.9007 122.532 21.9583 122.341 21.9583H121.081Z" fill="white"/>
</svg>
