<svg width="164" height="39" viewBox="0 0 164 39" fill="none" xmlns="http://www.w3.org/2000/svg">
<path d="M9.15164 14.8996C9.15164 14.4783 9.19108 14.0591 9.30521 13.6794L8.94619 13.5362C8.43362 14.0591 7.95222 14.5821 7.45002 15.105C6.83576 14.028 5.91231 13.5777 4.49909 13.5777C1.97773 13.5777 0 15.4619 0 19.2845C0 23.1173 1.91752 24.9726 4.32475 24.9726C5.61552 24.9726 6.70291 24.2338 7.26529 22.9015V26.5186C7.26529 27.7181 6.50786 28.0356 5.24614 28.0356V28.4755C5.86247 28.4548 7.04949 28.3842 8.2697 28.3842C9.15166 28.3842 10.0938 28.4548 10.5338 28.4755V28.0356C9.52936 28.0356 9.15164 27.7388 9.15164 26.7344V14.8996ZM4.93899 24.3355C3.06508 24.3355 2.03992 22.6567 2.03992 19.2845C2.03992 15.74 3.00283 14.0591 4.66299 14.0591C5.77945 14.0591 6.71121 14.499 7.26529 15.4619V21.9075C6.88553 23.5158 5.92263 24.3355 4.93899 24.3355ZM20.9761 13.6399C20.3702 13.8433 19.6127 13.9263 18.793 13.9263C18.3717 13.9263 17.9318 13.9055 17.4919 13.864V14.306C18.71 14.306 19.0898 14.8996 19.0898 16.1592V20.4943C19.0898 22.6359 17.8903 24.2961 16.2509 24.2961C14.7464 24.2961 14.6634 23.1879 14.6634 21.8867V13.6399C14.0491 13.8433 13.3 13.9263 12.4803 13.9263C12.0611 13.9263 11.6212 13.9055 11.1791 13.864V14.306C12.3994 14.306 12.7687 14.8996 12.7687 16.1592V21.4261C12.7687 22.748 12.943 23.6092 13.4639 24.1716C13.9454 24.6738 14.6634 24.9726 15.647 24.9726C16.9897 24.9726 18.3718 24.2753 19.0898 22.4512V24.9311C19.6937 24.7153 20.4532 24.6343 21.2729 24.6343C21.6921 24.6343 22.132 24.653 22.5741 24.6945V24.2546C21.3538 24.2546 20.9761 23.6693 20.9761 22.4097V13.6399ZM28.2601 13.5777C26.9174 13.5777 25.9131 13.9782 25.3195 14.3662C24.7364 14.7668 24.3359 15.2482 24.3359 15.8624C24.3359 16.6199 24.7572 17.1636 25.4731 17.1636C26.2223 17.1636 26.7037 16.7444 26.7037 16.0264C26.7037 15.3395 26.2409 14.8788 25.72 14.746C26.2015 14.1421 27.0814 13.9969 27.7994 13.9969C28.8848 13.9969 29.7459 14.3455 29.7459 16.1094V17.4105C29.7459 18.2489 28.6399 18.608 27.235 19.1932C25.1349 20.073 23.8545 20.8118 23.8545 22.472C23.8545 24.1114 25.1141 24.8169 26.519 24.8169C27.5234 24.8169 28.8453 24.4393 29.7459 22.9534C29.7459 23.9371 30.0842 24.8169 31.5493 24.8169C32.4416 24.8169 32.8816 24.4891 33.4647 24.0491L33.2302 23.6901C32.9438 23.9371 32.6658 24.1321 32.2881 24.1321C31.8066 24.1321 31.6427 23.8146 31.6427 23.1381V17.3068C31.6427 15.8209 31.4684 15.0428 30.8022 14.3662C30.3208 13.8848 29.4388 13.5777 28.2601 13.5777ZM29.7459 22.389C29.0383 23.5365 28.2186 23.9786 27.3802 23.9786C26.4152 23.9786 25.6993 23.3933 25.6993 22.1337C25.6993 20.515 26.8158 19.9091 27.7372 19.4692C29.0591 18.8238 29.5197 18.6079 29.7459 18.2697V22.389ZM37.4304 8.21948C36.8265 8.43323 36.0691 8.51625 35.2494 8.51625C34.8281 8.51625 34.3881 8.4955 33.9461 8.45399V8.89601C35.1663 8.89601 35.5462 9.47914 35.5462 10.7388V22.7272C35.5462 23.8955 35.1041 24.2338 33.9461 24.2338V24.6737C34.4296 24.653 35.5254 24.5928 36.4883 24.5928C37.4511 24.5928 38.5469 24.653 39.0304 24.6737V24.2338C37.8724 24.2338 37.4304 23.8955 37.4304 22.7272V8.21948ZM42.4918 8.61792C41.7551 8.61792 41.1512 9.23219 41.1512 9.96058C41.1512 10.6994 41.7551 11.3032 42.4918 11.3032C43.2202 11.3032 43.8345 10.6994 43.8345 9.96058C43.8345 9.23219 43.2202 8.61792 42.4918 8.61792ZM43.5792 13.6399C42.9732 13.8433 42.2158 13.9263 41.3961 13.9263C40.977 13.9263 40.5349 13.9055 40.095 13.864V14.306C41.3152 14.306 41.6928 14.8996 41.6928 16.1592V22.7272C41.6928 23.8955 41.2529 24.2338 40.095 24.2338V24.6737C40.5764 24.653 41.6721 24.5928 42.6371 24.5928C43.6 24.5928 44.6957 24.653 45.1771 24.6737V24.2338C44.0192 24.2338 43.5792 23.8955 43.5792 22.7272V13.6399ZM49.6243 13.8848V10.3798C49.1013 10.5748 48.4248 10.6578 47.7379 10.6786V13.8848H45.7208V14.306H47.7379V21.3348C47.7379 22.831 47.9434 23.6507 48.5576 24.2753C49.0204 24.736 49.5828 24.9726 50.5457 24.9726C52.2474 24.9726 52.984 23.7109 53.2725 22.0714L52.8616 21.9698C52.4217 23.6092 51.8074 24.2131 50.967 24.2131C50.1265 24.2131 49.6243 23.7524 49.6243 22.4305V14.306H52.7288V13.8848H49.6243ZM61.8472 13.9263C61.2018 13.9263 60.8241 13.9055 60.0854 13.864V14.2853C61.152 14.3559 61.6542 14.6339 61.6542 15.298C61.6542 15.5553 61.5712 15.8728 61.428 16.263L59.1121 22.3391L56.5824 16.0679C56.3977 15.6176 56.3147 15.2793 56.3147 15.0324C56.3147 14.3061 56.9912 14.306 57.7798 14.306V13.864C56.9394 13.9263 55.9059 13.9969 55.0551 13.9969C54.2562 13.9969 53.6004 13.947 52.9944 13.864V14.306C53.3327 14.306 53.8764 14.387 54.4201 15.4827L58.2302 24.6447L57.4831 26.5601C57.0431 27.7181 56.4579 28.1995 55.7004 28.1995C55.6589 28.1995 55.6175 28.1995 55.578 28.1788C55.8644 28.0148 56.1404 27.7181 56.1404 27.2366C56.1404 26.5809 55.6589 26.253 55.0758 26.253C54.3785 26.253 53.9594 26.6929 53.9594 27.3591C53.9594 28.1788 54.584 28.6187 55.383 28.6187C55.8852 28.6187 56.5617 28.4963 57.0224 28.0771C57.3606 27.7782 57.647 27.3176 57.923 26.6016L58.641 24.7775L62.0838 15.7608C62.4843 14.6837 62.9242 14.3455 63.4472 14.2853V13.864C63.0051 13.9055 62.503 13.9263 61.8472 13.9263Z" fill="white"/>
<path d="M98.8636 13.5777C97.521 13.5777 96.5165 13.9782 95.923 14.3662C95.3399 14.7667 94.9394 15.2482 94.9394 15.8624C94.9394 16.6199 95.3586 17.1636 96.0766 17.1636C96.8257 17.1636 97.3072 16.7444 97.3072 16.0264C97.3072 15.3395 96.8445 14.8788 96.3236 14.746C96.805 14.1421 97.6849 13.9969 98.4029 13.9969C99.4882 13.9969 100.349 14.3455 100.349 16.1094V17.4105C100.349 18.2489 99.2434 18.608 97.8384 19.1932C95.7383 20.073 94.4579 20.8118 94.4579 22.472C94.4579 24.1114 95.7176 24.8169 97.1225 24.8169C98.1269 24.8169 99.4488 24.4393 100.349 22.9534C100.349 23.9371 100.688 24.8169 102.153 24.8169C103.045 24.8169 103.485 24.4891 104.068 24.0491L103.834 23.6901C103.547 23.937 103.269 24.1321 102.892 24.1321C102.41 24.1321 102.246 23.8146 102.246 23.1381V17.3068C102.246 15.8209 102.072 15.0428 101.406 14.3662C100.924 13.8848 100.042 13.5777 98.8636 13.5777ZM100.349 22.389C99.6418 23.5365 98.8221 23.9786 97.9816 23.9786C97.0187 23.9786 96.3028 23.3933 96.3028 22.1337C96.3028 20.515 97.4193 19.9091 98.3407 19.4692C99.6626 18.8238 100.123 18.6079 100.349 18.2697V22.389ZM111.396 13.5777C109.91 13.5777 108.669 14.3974 108.034 15.8521V13.6399C107.43 13.8433 106.673 13.9263 105.853 13.9263C105.432 13.9263 104.992 13.9055 104.55 13.864V14.306C105.77 14.306 106.15 14.8996 106.15 16.1592V26.7344C106.15 27.7388 105.77 28.0356 104.765 28.0356V28.4755C105.205 28.4548 106.15 28.3842 107.03 28.3842C108.25 28.3842 109.439 28.4548 110.053 28.4755V28.0356C108.793 28.0356 108.034 27.7181 108.034 26.5186V23.8333C108.505 24.4891 109.397 24.9726 110.493 24.9726C113.905 24.9726 115.299 21.8162 115.299 18.7823C115.299 15.4018 113.598 13.5777 111.396 13.5777ZM110.259 24.4891C109.15 24.4891 108.424 23.9163 108.034 23.1381V16.8565C108.484 15.0842 109.603 14.2023 110.821 14.2023C112.421 14.2023 113.259 15.74 113.259 19.0687C113.259 22.0507 112.585 24.4891 110.259 24.4891ZM123.588 13.5777C122.102 13.5777 120.863 14.3974 120.228 15.8521V13.6399C119.624 13.8433 118.864 13.9263 118.045 13.9263C117.625 13.9263 117.183 13.9055 116.744 13.864V14.306C117.964 14.306 118.341 14.8996 118.341 16.1592V26.7344C118.341 27.7388 117.964 28.0356 116.959 28.0356V28.4755C117.399 28.4548 118.341 28.3842 119.223 28.3842C120.444 28.3842 121.631 28.4548 122.247 28.4755V28.0356C120.985 28.0356 120.228 27.7181 120.228 26.5186V23.8333C120.699 24.4891 121.591 24.9726 122.687 24.9726C126.099 24.9726 127.493 21.8162 127.493 18.7823C127.493 15.4018 125.791 13.5777 123.588 13.5777ZM122.45 24.4891C121.344 24.4891 120.618 23.9163 120.228 23.1381V16.8565C120.678 15.0842 121.795 14.2023 123.015 14.2023C124.613 14.2023 125.453 15.74 125.453 19.0687C125.453 22.0507 124.777 24.4891 122.45 24.4891ZM133.702 13.5777C132.359 13.5777 131.355 13.9782 130.762 14.3662C130.176 14.7667 129.778 15.2482 129.778 15.8624C129.778 16.6199 130.197 17.1636 130.915 17.1636C131.662 17.1636 132.144 16.7444 132.144 16.0264C132.144 15.3395 131.683 14.8788 131.16 14.746C131.641 14.1421 132.523 13.9969 133.241 13.9969C134.327 13.9969 135.188 14.3455 135.188 16.1094V17.4105C135.188 18.2489 134.08 18.608 132.677 19.1932C130.577 20.073 129.296 20.8118 129.296 22.472C129.296 24.1114 130.556 24.8169 131.959 24.8169C132.963 24.8169 134.285 24.4393 135.188 22.9534C135.188 23.9371 135.526 24.8169 136.991 24.8169C137.882 24.8169 138.324 24.4891 138.907 24.0491L138.672 23.6901C138.384 23.937 138.108 24.1321 137.728 24.1321C137.247 24.1321 137.083 23.8146 137.083 23.1381V17.3068C137.083 15.8209 136.908 15.0428 136.242 14.3662C135.761 13.8848 134.881 13.5777 133.702 13.5777ZM135.188 22.389C134.48 23.5365 133.661 23.9786 132.82 23.9786C131.857 23.9786 131.139 23.3933 131.139 22.1337C131.139 20.515 132.258 19.9091 133.179 19.4692C134.501 18.8238 134.962 18.6079 135.188 18.2697V22.389ZM146.058 13.5777C144.593 13.5777 143.456 15.0428 143.016 16.263V13.6399C142.412 13.8433 141.652 13.9263 140.832 13.9263C140.413 13.9263 139.973 13.9055 139.531 13.864V14.306C140.752 14.306 141.131 14.8996 141.131 16.1592V22.7272C141.131 23.8955 140.689 24.2338 139.531 24.2338V24.6737C140.013 24.653 141.048 24.5928 142.011 24.5928C143.312 24.5928 144.593 24.653 145.238 24.6737V24.2338C143.856 24.2338 143.016 23.8748 143.016 22.5135V18.0663C143.016 16.5079 144.174 14.1214 145.935 14.1214C146.12 14.1214 146.274 14.1815 146.377 14.3247C145.998 14.5613 145.659 14.9411 145.659 15.4619C145.659 16.1592 146.193 16.5494 146.776 16.5494C147.515 16.5494 147.975 15.9454 147.975 15.2274C147.975 14.3247 147.197 13.5777 146.058 13.5777ZM157.135 21.9905C156.407 23.5573 155.311 24.0906 154.051 24.0906C152.443 24.0906 150.843 22.4097 150.843 19.5314C150.843 19.0686 150.864 18.5872 150.916 18.1887H157.473C157.473 15.022 156.008 13.5777 153.549 13.5777C150.669 13.5777 148.805 15.8417 148.805 19.5314C148.805 22.748 150.588 24.9726 153.63 24.9726C155.712 24.9726 157.094 23.5573 157.554 22.1545L157.135 21.9905ZM153.466 13.9782C154.871 13.9782 155.527 15.74 155.454 17.7882H150.885C151.111 15.1444 152.217 13.9782 153.466 13.9782ZM162.402 8.21948C161.798 8.43323 161.039 8.51625 160.219 8.51625C159.8 8.51625 159.358 8.4955 158.918 8.45399V8.89601C160.138 8.89601 160.516 9.47914 160.516 10.7388V22.7272C160.516 23.8955 160.076 24.2338 158.918 24.2338V24.6737C159.399 24.653 160.495 24.5928 161.46 24.5928C162.423 24.5928 163.519 24.653 164 24.6737V24.2338C162.842 24.2338 162.402 23.8955 162.402 22.7272V8.21948Z" fill="white"/>
<path d="M86.527 0L67.2277 23.0347H77.6037L72.6232 38.1837L90.6774 14.1114L80.7165 14.3189L86.527 0Z" fill="white"/>
</svg>
