<svg width="1920" height="496" viewBox="0 0 1920 496" fill="none" xmlns="http://www.w3.org/2000/svg">
<path d="M-31.1675 311.616C32.7499 255.97 297.272 -47.3626 622.333 60.9907C914.833 158.491 930.833 452.991 1215.83 388.991C1467.83 332.401 1528.33 371.991 1658.33 420.491C1812.09 477.856 1919.83 461.491 1999.83 427.212" stroke="#F1320F" stroke-width="74"/>
<path d="M15.0176 289.197L12.0177 292.079L9.3851 289.339L9.18318 289.533C9.61143 290.748 9.69883 292.033 9.44537 293.385C9.19192 294.738 8.48827 295.969 7.33444 297.077C6.02676 298.334 4.66388 299.051 3.24579 299.23C1.82845 299.372 0.475243 299.137 -0.813849 298.526C-2.12142 297.897 -3.29248 297.043 -4.32703 295.966L-13.0284 286.909L-10.0573 284.055L-1.77158 292.679C-0.478387 294.026 0.864994 294.75 2.25856 294.854C3.65212 294.957 4.90659 294.473 6.02196 293.402C7.19503 292.275 7.73937 290.994 7.655 289.559C7.55215 288.104 6.90031 286.752 5.69949 285.502L-2.5862 276.877L0.413767 273.995L15.0176 289.197Z" fill="white"/>
<path d="M27.7002 277.49C26.3848 278.738 25.0273 279.439 23.6275 279.591C22.2093 279.723 20.8836 279.566 19.6504 279.119L19.4473 279.311L22.2558 282.271L19.2093 285.162L-1.44179 263.401L1.60472 260.51L10.2782 269.65L10.4813 269.457C10.1165 268.259 10.0369 266.974 10.2426 265.603C10.4482 264.231 11.2184 262.912 12.5531 261.645C13.8877 260.379 15.3594 259.644 16.968 259.441C18.5776 259.2 20.1933 259.45 21.815 260.19C23.456 260.912 25.0108 262.047 26.4793 263.594C27.9295 265.122 28.9721 266.725 29.6073 268.401C30.2619 270.059 30.4365 271.677 30.1311 273.253C29.8258 274.83 29.0155 276.242 27.7002 277.49ZM24.3457 275.931C25.7384 274.609 26.2873 273.096 25.9924 271.391C25.7168 269.667 24.8447 268.031 23.3762 266.484C21.9261 264.956 20.3664 264.01 18.6971 263.645C17.0095 263.262 15.4597 263.74 14.0477 265.08C12.6743 266.383 12.1158 267.906 12.372 269.648C12.6475 271.371 13.5104 272.997 14.9606 274.525C16.4107 276.054 17.9893 277 19.6962 277.366C21.4225 277.713 22.9723 277.234 24.3457 275.931Z" fill="white"/>
<path d="M41.8791 264.184C40.6084 265.363 39.2869 266.134 37.9147 266.498C36.5425 266.862 35.2493 266.879 34.0351 266.551C32.8027 266.203 31.7876 265.599 30.9895 264.739L30.8535 264.592L33.8444 261.817L33.9532 261.934C34.6062 262.638 35.4791 263.01 36.572 263.051C37.6468 263.073 38.6924 262.612 39.7089 261.669C40.5495 260.889 41.0531 260.04 41.2195 259.121C41.386 258.203 41.1428 257.392 40.4898 256.688C39.9276 256.082 39.2772 255.812 38.5388 255.879C37.7823 255.926 37.0173 256.199 36.2438 256.699L34.0364 258.201C32.604 259.166 31.1305 259.715 29.616 259.847C28.0833 259.959 26.7004 259.351 25.467 258.022C24.1249 256.575 23.6 254.97 23.8924 253.208C24.1849 251.445 25.1522 249.802 26.7942 248.278C27.9867 247.172 29.2314 246.435 30.5282 246.069C31.8069 245.683 33.0066 245.643 34.1273 245.949C35.248 246.255 36.1983 246.828 36.9782 247.669L37.0871 247.786L34.0961 250.561L34.0417 250.503C33.4976 249.916 32.737 249.567 31.76 249.455C30.783 249.343 29.8058 249.74 28.8283 250.647C28.0073 251.409 27.5331 252.231 27.4057 253.113C27.2783 253.995 27.523 254.768 28.1396 255.433C28.6656 256 29.3069 256.26 30.0634 256.213C30.82 256.165 31.5661 255.891 32.3019 255.391L34.7669 253.813C36.2747 252.851 37.7761 252.312 39.2711 252.199C40.7856 252.067 42.1504 252.655 43.3656 253.965C44.2362 254.904 44.7529 255.97 44.9157 257.165C45.0785 258.36 44.8917 259.57 44.3552 260.795C43.8187 262.021 42.9933 263.15 41.8791 264.184Z" fill="white"/>
<path d="M58.4775 249.05C56.8331 250.531 55.1081 251.386 53.3025 251.612C51.4969 251.839 49.7634 251.588 48.102 250.86C46.4426 250.094 44.9703 248.997 43.6852 247.571C42.4179 246.164 41.4983 244.606 40.9266 242.896C40.3568 241.148 40.2786 239.388 40.692 237.615C41.1053 235.843 42.1342 234.216 43.7786 232.735C45.8192 230.896 47.9693 230.036 50.229 230.154C52.4708 230.252 54.496 231.065 56.3045 232.594L53.303 235.299C52.1608 234.389 50.9584 233.911 49.6958 233.864C48.4351 233.78 47.2401 234.246 46.1108 235.264C44.6448 236.585 44.0271 238.11 44.258 239.84C44.4888 241.571 45.3182 243.228 46.7461 244.813C48.1741 246.398 49.7365 247.395 51.4334 247.805C53.1303 248.214 54.7118 247.758 56.1779 246.438C57.3071 245.42 57.9042 244.29 57.9689 243.047C58.0535 241.787 57.703 240.541 56.9175 239.311L59.919 236.606C61.252 238.564 61.8596 240.673 61.7418 242.932C61.6062 245.172 60.5181 247.211 58.4775 249.05Z" fill="white"/>
<path d="M54.811 223.633L57.9113 220.919L60.1241 223.448L60.3047 223.29C59.9509 222.359 59.8944 221.363 60.1351 220.302C60.3783 219.203 61.0317 218.188 62.0953 217.258C62.3762 217.012 62.6258 216.811 62.844 216.655C63.0623 216.5 63.3068 216.374 63.5777 216.279L66.039 219.334C65.3567 219.648 64.7246 220.059 64.1426 220.569C62.9587 221.605 62.3442 222.745 62.2991 223.989C62.2366 225.214 62.8814 226.598 64.2337 228.143L71.7942 236.782L68.6938 239.496L54.811 223.633Z" fill="white"/>
<path d="M66.7236 213.121L69.8507 210.439L83.5756 226.438L80.4486 229.121L66.7236 213.121ZM65.7718 208.878C65.2253 209.347 64.6137 209.555 63.9368 209.504C63.26 209.452 62.6872 209.153 62.2184 208.606C61.7496 208.06 61.5411 207.448 61.5929 206.771C61.6447 206.094 61.9438 205.522 62.4903 205.053C63.0368 204.584 63.6571 204.386 64.3513 204.458C65.0282 204.51 65.5923 204.799 66.0437 205.325C66.4952 205.851 66.7037 206.463 66.6692 207.16C66.6174 207.837 66.3183 208.409 65.7718 208.878Z" fill="white"/>
<path d="M97.7808 215.002C96.3854 216.16 94.9843 216.768 93.5775 216.826C92.1536 216.864 90.8413 216.619 89.6406 216.091L89.4251 216.27L92.0307 219.41L88.7986 222.092L69.6403 199.006L72.8723 196.324L80.9188 206.02L81.1343 205.841C80.85 204.622 80.856 203.334 81.1524 201.979C81.4488 200.625 82.305 199.36 83.7209 198.185C85.1368 197.009 86.6541 196.374 88.2727 196.278C89.8948 196.145 91.4902 196.502 93.0591 197.348C94.6485 198.178 96.1243 199.413 97.4867 201.055C98.8321 202.676 99.7659 204.344 100.288 206.059C100.831 207.757 100.898 209.383 100.488 210.935C100.079 212.488 99.1763 213.844 97.7808 215.002ZM94.5375 213.223C96.015 211.997 96.6633 210.523 96.4824 208.802C96.3221 207.064 95.5607 205.374 94.1984 203.732C92.853 202.111 91.3597 201.063 89.7184 200.589C88.06 200.093 86.4818 200.468 84.9838 201.711C83.5268 202.92 82.8683 204.402 83.0081 206.157C83.1684 207.895 83.9213 209.575 85.2666 211.196C86.6119 212.817 88.124 213.867 89.8029 214.345C91.5023 214.806 93.0805 214.432 94.5375 213.223Z" fill="white"/>
<path d="M113.67 202.104C111.958 203.464 110.194 204.202 108.378 204.317C106.562 204.432 104.858 204.066 103.265 203.219C101.657 202.352 100.263 201.177 99.0853 199.695C97.9073 198.213 97.0859 196.6 96.621 194.858C96.1396 193.095 96.1599 191.341 96.682 189.598C97.225 187.838 98.3525 186.278 100.064 184.918C102.319 183.126 104.704 182.44 107.218 182.861C109.715 183.261 112.076 184.859 114.299 187.657L115.02 188.565L102.995 198.121L103.169 198.34C103.833 199.175 104.643 199.809 105.599 200.241C106.556 200.673 107.561 200.845 108.615 200.757C109.652 200.648 110.62 200.237 111.517 199.523C112.499 198.744 113.153 197.832 113.482 196.787C113.793 195.722 113.774 194.648 113.423 193.564L116.618 191.025C117.428 192.902 117.623 194.841 117.205 196.843C116.769 198.824 115.591 200.578 113.67 202.104ZM110.09 188.855C108.663 187.23 107.265 186.349 105.895 186.211C104.529 186.036 103.22 186.446 101.968 187.442C100.632 188.503 99.9048 189.796 99.7874 191.32C99.6908 192.827 100.202 194.328 101.322 195.823L110.09 188.855Z" fill="white"/>
<path d="M128.39 167.947L135.133 176.99C135.723 177.781 136.185 178.334 136.52 178.65C136.877 178.95 137.295 179.087 137.775 179.062C138.276 179.02 138.912 178.713 139.682 178.139C140.216 177.74 140.692 177.286 141.109 176.775L142.855 179.116C142.753 179.292 142.448 179.619 141.94 180.097C141.432 180.576 140.9 181.022 140.344 181.437C138.997 182.441 137.849 182.998 136.9 183.107C135.934 183.195 135.124 183.001 134.469 182.524C133.82 182.01 133.113 181.24 132.348 180.214L125.087 170.41L122.041 172.681L120.08 170.052L123.127 167.78L118.99 162.233L122.293 159.77L126.43 165.318L130.374 162.377L132.335 165.006L128.39 167.947Z" fill="white"/>
<path d="M153.425 172.054C151.667 173.309 149.886 173.958 148.081 174.001C146.277 174.044 144.591 173.609 143.023 172.697C141.461 171.748 140.122 170.492 139.007 168.929C137.876 167.345 137.123 165.67 136.749 163.906C136.381 162.105 136.51 160.358 137.137 158.666C137.748 156.952 138.933 155.468 140.691 154.213C142.449 152.958 144.238 152.32 146.058 152.299C147.862 152.256 149.556 152.702 151.139 153.635C152.708 154.547 154.049 155.785 155.165 157.347C156.28 158.91 157.022 160.592 157.39 162.393C157.743 164.173 157.614 165.92 157.002 167.634C156.376 169.326 155.183 170.8 153.425 172.054ZM151.426 169.254C152.924 168.186 153.667 166.771 153.655 165.01C153.665 163.234 153.043 161.467 151.788 159.708C150.533 157.95 149.072 156.798 147.405 156.252C145.759 155.69 144.187 155.944 142.689 157.013C141.213 158.066 140.47 159.481 140.46 161.257C140.435 163.012 141.042 164.757 142.281 166.494C143.536 168.252 144.994 169.423 146.655 170.006C148.338 170.574 149.929 170.323 151.426 169.254Z" fill="white"/>
<path d="M157.619 134.546L162.752 131.214L180.072 143.863L180.172 143.798L175.636 122.851L180.769 119.519L196.014 143.005L192.592 145.226L180.723 126.94L180.588 127.028L185.647 149.734L183.231 151.302L164.551 137.438L164.417 137.525L176.286 155.81L172.864 158.032L157.619 134.546Z" fill="white"/>
<path d="M210.297 137.824C210.452 138.912 210.53 139.845 210.53 140.622C210.544 141.423 210.297 142.333 209.79 143.353C209.319 144.382 208.431 145.287 207.128 146.069C206.442 146.481 205.655 146.829 204.768 147.112L203.225 144.54C203.828 144.302 204.336 144.06 204.748 143.813C205.502 143.36 206.026 142.859 206.318 142.31C206.611 141.761 206.746 141.183 206.723 140.575C206.737 139.976 206.668 139.161 206.517 138.132L206.181 135.862L189.112 122.5L192.782 120.297L205.494 130.909L205.7 130.786L202.557 114.432L206.193 112.25L210.297 137.824Z" fill="white"/>
<path d="M214.006 99.7373L218.162 97.5004L240.529 109.856L240.635 109.799L230.455 90.8846L234.083 88.932L247.352 113.588L243.126 115.863L221.038 103.857L220.932 103.914L230.903 122.441L227.275 124.393L214.006 99.7373Z" fill="white"/>
<path d="M262.268 106.466C260.302 107.424 258.42 107.764 256.622 107.483C254.824 107.203 253.239 106.478 251.867 105.308C250.484 104.114 249.377 102.666 248.547 100.964C247.717 99.2622 247.263 97.5106 247.185 95.7089C247.096 93.8833 247.494 92.1758 248.38 90.5864C249.291 88.9853 250.728 87.7055 252.694 86.7468C255.282 85.4842 257.758 85.3297 260.122 86.2832C262.475 87.2127 264.434 89.2832 266.001 92.4949L266.509 93.5375L252.704 100.271L252.827 100.523C253.294 101.482 253.948 102.275 254.789 102.904C255.63 103.532 256.574 103.917 257.622 104.059C258.658 104.176 259.692 103.983 260.723 103.481C261.849 102.931 262.685 102.182 263.231 101.233C263.766 100.261 263.979 99.2074 263.871 98.0733L267.538 96.2847C267.923 98.2921 267.696 100.228 266.854 102.092C266.002 103.932 264.473 105.39 262.268 106.466ZM261.633 92.7561C260.59 90.8615 259.415 89.699 258.107 89.2688C256.812 88.8028 255.445 88.9206 254.007 89.622C252.473 90.3702 251.484 91.4756 251.041 92.9382C250.621 94.3891 250.796 95.9651 251.567 97.6662L261.633 92.7561Z" fill="white"/>
<path d="M263.593 81.9317L267.151 80.3829L277.722 93.8418L277.905 93.762L275.879 76.5827L279.253 75.1137L290.522 88.2692L290.705 88.1894L287.945 71.3294L291.54 69.7647L294.746 91.3597L290.015 93.4194L280.332 81.799L280.075 81.9108L281.984 96.9163L277.253 98.9761L263.593 81.9317Z" fill="white"/>
<path d="M309.394 85.8199C307.776 86.4425 306.263 86.6679 304.853 86.496C303.444 86.3241 302.237 85.8601 301.232 85.1042C300.217 84.3233 299.498 83.3854 299.077 82.2904L299.005 82.1037L302.813 80.638L302.87 80.7873C303.215 81.6833 303.887 82.3532 304.887 82.7971C305.877 83.2161 307.019 83.1765 308.313 82.6784C309.383 82.2665 310.166 81.6651 310.662 80.8742C311.157 80.0834 311.233 79.24 310.888 78.3441C310.591 77.5726 310.087 77.0807 309.377 76.8684C308.657 76.6312 307.845 76.6008 306.941 76.7771L304.334 77.3522C302.645 77.7165 301.073 77.6786 299.618 77.2387C298.154 76.7738 297.095 75.6953 296.444 74.003C295.735 72.1614 295.844 70.4765 296.77 68.9485C297.696 67.4204 299.205 66.254 301.295 65.4493C302.813 64.865 304.242 64.6434 305.583 64.7847C306.913 64.9012 308.042 65.3096 308.969 66.0101C309.896 66.7105 310.565 67.5958 310.977 68.666L311.034 68.8153L307.227 70.281L307.198 70.2063C306.911 69.4597 306.334 68.853 305.469 68.3861C304.603 67.9191 303.548 67.9252 302.304 68.4042C301.259 68.8065 300.513 69.3935 300.067 70.1652C299.621 70.9369 299.561 71.7458 299.887 72.592C300.165 73.3137 300.664 73.7931 301.384 74.0303C302.104 74.2675 302.898 74.2903 303.767 74.0986L306.642 73.5493C308.399 73.2157 309.993 73.2736 311.423 73.7231C312.879 74.1631 313.927 75.2168 314.569 76.8842C315.029 78.0787 315.112 79.2609 314.82 80.4308C314.527 81.6007 313.904 82.6548 312.951 83.5932C311.998 84.5316 310.812 85.2738 309.394 85.8199Z" fill="white"/>
<path d="M325.53 79.7247C323.92 80.2928 322.637 80.463 321.68 80.2353C320.723 80.0076 320.006 79.5395 319.53 78.831C319.045 78.0973 318.58 77.1019 318.136 75.8446L310.171 53.1624L314.056 51.7909L321.819 73.7808C322.148 74.7112 322.43 75.3894 322.665 75.8154C322.925 76.2325 323.305 76.5083 323.805 76.6429C324.305 76.7774 324.995 76.6894 325.875 76.3787C326.353 76.21 326.767 76.0214 327.118 75.8128L328.103 78.604C327.092 79.1025 326.234 79.4761 325.53 79.7247Z" fill="white"/>
<path d="M340.355 74.8644C338.27 75.5239 336.359 75.5831 334.622 75.042C332.884 74.5008 331.423 73.5507 330.238 72.1915C329.045 70.8069 328.162 69.212 327.591 67.4069C327.02 65.6017 326.829 63.8024 327.016 62.0089C327.196 60.19 327.841 58.5595 328.951 57.1175C330.087 55.6675 331.697 54.6127 333.782 53.9532C336.528 53.0845 339 53.2954 341.198 54.5858C343.388 55.8508 345.022 58.1867 346.1 61.5936L346.45 62.6996L331.805 67.3325L331.89 67.5994C332.211 68.6164 332.742 69.4975 333.481 70.2425C334.22 70.9876 335.098 71.5071 336.114 71.8011C337.122 72.0696 338.172 72.0309 339.265 71.685C340.46 71.307 341.398 70.6889 342.077 69.8306C342.748 68.947 343.114 67.9363 343.174 66.7987L347.064 65.5681C347.15 67.6104 346.641 69.4917 345.535 71.2121C344.421 72.907 342.694 74.1244 340.355 74.8644ZM341.741 61.2104C340.988 59.1832 339.996 57.8607 338.766 57.243C337.553 56.5918 336.184 56.5076 334.659 56.9902C333.031 57.5049 331.891 58.4531 331.237 59.8346C330.609 61.2081 330.551 62.7927 331.063 64.5885L341.741 61.2104Z" fill="white"/>
<path d="M356.328 51.5386L359.315 62.4159C359.576 63.3674 359.805 64.0511 360.003 64.4671C360.226 64.876 360.565 65.156 361.021 65.3073C361.504 65.4514 362.207 65.3964 363.133 65.1422C363.776 64.9657 364.385 64.7155 364.96 64.3918L365.733 67.2075C365.574 67.3341 365.171 67.5278 364.523 67.7885C363.876 68.0492 363.218 68.2714 362.55 68.455C360.929 68.8999 359.657 69.0003 358.733 68.7563C357.802 68.4866 357.118 68.0107 356.682 67.3285C356.264 66.6136 355.886 65.639 355.547 64.4046L352.355 52.6295L348.691 53.6358L347.822 50.4729L351.487 49.4666L349.654 42.7936L353.627 41.7027L355.459 48.3757L360.204 47.0729L361.072 50.2358L356.328 51.5386Z" fill="white"/>
<path d="M374.724 46.5847L377.316 57.5629C377.543 58.5231 377.748 59.2147 377.93 59.6375C378.138 60.0542 378.467 60.3463 378.917 60.5139C379.394 60.6754 380.099 60.6459 381.034 60.4253C381.683 60.2721 382.3 60.0441 382.886 59.7413L383.557 62.5832C383.394 62.7039 382.984 62.8829 382.328 63.1201C381.671 63.3572 381.006 63.5555 380.331 63.7148C378.696 64.1009 377.421 64.1553 376.506 63.8781C375.585 63.575 374.919 63.0747 374.508 62.3772C374.116 61.6476 373.773 60.6599 373.479 59.4142L370.715 47.5315L367.016 48.4047L366.263 45.2125L369.961 44.3393L368.371 37.6045L372.38 36.6577L373.971 43.3925L378.759 42.2619L379.513 45.4541L374.724 46.5847Z" fill="white"/>
<path d="M397.766 60.1485C395.619 60.5615 393.714 60.3984 392.051 59.6591C390.388 58.9199 389.047 57.8065 388.027 56.3189C387.003 54.8051 386.312 53.1186 385.955 51.2593C385.597 49.4 385.616 47.5906 386.01 45.8311C386.4 44.0453 387.23 42.5008 388.5 41.1975C389.796 39.8891 391.518 39.0284 393.665 38.6155C396.494 38.0715 398.924 38.568 400.958 40.105C402.986 41.6157 404.338 44.1256 405.013 47.6346L405.232 48.7737L390.148 51.6747L390.201 51.9497C390.403 52.9971 390.827 53.9338 391.475 54.7597C392.123 55.5856 392.934 56.2035 393.909 56.6134C394.879 56.9971 395.927 57.0807 397.053 56.8641C398.284 56.6274 399.286 56.1223 400.061 55.3487C400.83 54.549 401.311 53.5876 401.502 52.4646L405.509 51.6941C405.358 53.7326 404.633 55.542 403.335 57.1223C402.031 58.6764 400.175 59.6852 397.766 60.1485ZM400.728 46.7479C400.216 44.6469 399.384 43.2182 398.234 42.4618C397.105 41.6742 395.755 41.4315 394.184 41.7337C392.508 42.056 391.265 42.8653 390.455 44.1616C389.671 45.4528 389.43 47.02 389.73 48.8631L400.728 46.7479Z" fill="white"/>
<path d="M406.964 36.7838L411.037 36.1647L411.542 39.4866L411.78 39.4505C411.982 38.4757 412.47 37.6058 413.244 36.8409C414.04 36.0455 415.137 35.5417 416.534 35.3293C416.903 35.2732 417.222 35.2383 417.489 35.2246C417.757 35.2109 418.031 35.2368 418.31 35.3022L418.741 39.2017C417.997 39.099 417.243 39.1057 416.479 39.2219C414.923 39.4583 413.792 40.0888 413.084 41.1134C412.373 42.1116 412.171 43.6257 412.48 45.6558L414.205 57.0054L410.132 57.6245L406.964 36.7838Z" fill="white"/>
<path d="M451.901 29.8655C453.317 29.7751 454.752 30.0685 456.204 30.7456C457.669 31.4089 458.816 32.4252 459.647 33.7943C460.491 35.1496 460.956 36.516 461.044 37.8934C461.196 40.2714 460.487 42.352 458.918 44.1352C457.348 45.9184 455.375 46.8859 452.997 47.0376C450.632 47.1885 448.557 46.4792 446.774 44.9099C444.991 43.3405 444.024 41.3669 443.872 38.9889C443.782 37.5855 444.051 36.1723 444.678 34.7493C445.317 33.3125 446.307 32.1664 447.648 31.311C449.002 30.4418 450.42 29.96 451.901 29.8655Z" fill="white"/>
<path d="M497.344 52.4283C495.159 52.344 493.297 51.8318 491.759 50.8918C490.248 49.9262 489.12 48.7218 488.376 47.2787C487.657 45.8366 487.328 44.3428 487.388 42.7972L487.395 42.5974L491.952 42.7732L491.944 42.9731C491.911 43.8258 492.078 44.6862 492.445 45.5543C492.813 46.3958 493.425 47.1266 494.282 47.7467C495.14 48.3403 496.235 48.6627 497.567 48.7141C499.192 48.7768 500.527 48.4147 501.572 47.6277C502.643 46.8418 503.206 45.7427 503.26 44.3304C503.306 43.1579 502.942 42.2098 502.169 41.4862C501.423 40.7636 500.455 40.2592 499.265 39.9731L495.457 39.0656C493.792 38.6544 492.194 37.8856 490.663 36.759C489.159 35.6069 488.457 33.7651 488.554 31.2336C488.617 29.6082 489.058 28.1975 489.878 27.0015C490.725 25.8066 491.867 24.9167 493.304 24.3316C494.742 23.7199 496.367 23.4491 498.179 23.519C500.257 23.5992 502.027 24.0811 503.487 24.9647C504.947 25.8483 506.025 26.9707 506.72 28.3319C507.442 29.6674 507.776 31.0546 507.72 32.4935L507.714 32.6534L503.157 32.4776L503.162 32.3577C503.19 31.6382 503.045 30.8854 502.729 30.0993C502.412 29.3132 501.851 28.6377 501.045 28.0729C500.268 27.4825 499.226 27.1621 497.92 27.1117C496.375 27.052 495.132 27.4311 494.194 28.2488C493.282 29.041 492.803 30.0632 492.754 31.3156C492.712 32.4081 493.051 33.3152 493.77 34.0368C494.516 34.7594 495.497 35.2643 496.714 35.5514L500.244 36.4082C502.279 36.9137 504.034 37.7687 505.509 38.9731C507.01 40.1785 507.714 41.9804 507.622 44.3786C507.558 46.0307 507.075 47.4798 506.173 48.7259C505.298 49.9731 504.087 50.9271 502.54 51.588C501.021 52.2232 499.289 52.5033 497.344 52.4283Z" fill="white"/>
<path d="M529.532 54.497L525.39 54.1062L525.747 50.323L525.469 50.2967C524.828 51.4147 523.912 52.3194 522.722 53.0106C521.531 53.7019 520.14 53.9723 518.547 53.822C516.742 53.6517 515.308 53.0878 514.247 52.1306C513.214 51.1492 512.509 49.971 512.13 48.596C511.753 47.1944 511.635 45.7503 511.775 44.2635L512.955 31.7591L517.057 32.1461L515.933 44.0532C515.758 45.9117 516.086 47.4024 516.917 48.5255C517.749 49.6486 518.934 50.2828 520.474 50.4281C522.094 50.5809 523.419 50.1569 524.451 49.1561C525.486 48.1287 526.084 46.7522 526.247 45.0265L527.371 33.1194L531.512 33.5102L529.532 54.497Z" fill="white"/>
<path d="M545.655 57.0663C543.862 56.7944 542.476 56.1526 541.497 55.1409C540.521 54.1029 539.832 52.9599 539.428 51.7119L539.151 51.6699L538.539 55.7037L534.386 55.0739L538.885 25.4131L543.038 26.043L541.148 38.5005L541.425 38.5425C542.147 37.5191 543.112 36.6676 544.321 35.9879C545.53 35.3082 547.044 35.1063 548.863 35.3822C550.682 35.6581 552.166 36.3686 553.314 37.5137C554.492 38.6365 555.287 40.0651 555.698 41.7997C556.136 43.5384 556.194 45.4623 555.875 47.5715C555.559 49.6543 554.934 51.4611 554.001 52.9917C553.093 54.5264 551.924 55.6571 550.492 56.384C549.06 57.1108 547.448 57.3382 545.655 57.0663ZM544.826 53.4613C546.725 53.7492 548.256 53.2533 549.421 51.9735C550.613 50.6978 551.369 49.0053 551.689 46.8961C552.004 44.8132 551.794 43.0012 551.057 41.4598C550.323 39.8922 548.994 38.9624 547.07 38.6704C545.198 38.3865 543.653 38.8804 542.435 40.1522C541.244 41.4279 540.49 43.1072 540.174 45.1901C539.858 47.2729 540.08 49.1002 540.84 50.6718C541.626 52.2475 542.954 53.1773 544.826 53.4613Z" fill="white"/>
<path d="M565.012 60.2264C563.312 59.8869 561.913 59.2675 560.815 58.3682C559.716 57.469 558.944 56.4311 558.5 55.2545C558.06 54.0517 557.955 52.8751 558.185 51.7245L558.224 51.5283L562.225 52.3275L562.194 52.4844C562.006 53.4258 562.215 54.3514 562.822 55.2613C563.434 56.1449 564.42 56.7226 565.78 56.9942C566.904 57.2188 567.888 57.1297 568.729 56.7268C569.571 56.3239 570.086 55.6517 570.274 54.7103C570.436 53.8997 570.274 53.2146 569.787 52.6551C569.306 52.0695 568.637 51.6095 567.779 51.275L565.268 50.3656C563.647 49.7698 562.339 48.8968 561.345 47.7465C560.357 46.57 560.04 45.0927 560.395 43.3145C560.782 41.3793 561.775 40.0141 563.375 39.2188C564.975 38.4235 566.874 38.2452 569.07 38.684C570.665 39.0026 571.991 39.5802 573.048 40.4167C574.11 41.2271 574.845 42.1761 575.253 43.2638C575.661 44.3515 575.753 45.4575 575.528 46.582L575.497 46.7389L571.496 45.9397L571.512 45.8613C571.668 45.0768 571.506 44.2557 571.025 43.3982C570.543 42.5406 569.649 41.9812 568.341 41.7201C567.243 41.5007 566.299 41.5977 565.51 42.011C564.72 42.4243 564.236 43.0756 564.059 43.9647C563.907 44.723 564.072 45.395 564.553 45.9806C565.035 46.5662 565.694 47.0106 566.531 47.3137L569.253 48.3878C570.916 49.0463 572.232 49.9481 573.2 51.0932C574.193 52.2435 574.515 53.6947 574.165 55.4468C573.915 56.702 573.353 57.7455 572.48 58.5772C571.606 59.4089 570.516 59.9662 569.209 60.2489C567.901 60.5316 566.502 60.5241 565.012 60.2264Z" fill="white"/>
<path d="M585.087 65.1786C582.942 64.6328 581.274 63.6719 580.084 62.2958C578.893 60.9197 578.139 59.3384 577.824 57.552C577.54 55.7464 577.635 53.9132 578.108 52.0525C578.575 50.2176 579.361 48.5878 580.467 47.163C581.605 45.719 583.025 44.6772 584.729 44.0375C586.433 43.3978 588.357 43.3509 590.502 43.8967C593.164 44.5739 595.073 45.8851 596.229 47.8302C597.392 49.7495 597.839 51.8857 597.57 54.2388L593.655 53.2427C593.777 51.7879 593.508 50.5224 592.846 49.446C592.217 48.3503 591.166 47.6151 589.693 47.2403C587.78 46.7537 586.168 47.0866 584.857 48.2388C583.546 49.391 582.627 51.0009 582.101 53.0684C581.575 55.1358 581.613 56.989 582.214 58.6278C582.815 60.2666 584.072 61.3293 585.984 61.8159C587.457 62.1907 588.729 62.0602 589.798 61.4244C590.894 60.7951 591.736 59.8123 592.323 58.4759L596.239 59.4721C595.35 61.6674 593.933 63.3431 591.988 64.4992C590.049 65.6294 587.749 65.8559 585.087 65.1786Z" fill="white"/>
<path d="M604.721 47.0119L608.668 48.1928L607.705 51.4119L607.935 51.4807C608.535 50.6858 609.348 50.108 610.374 49.7471C611.434 49.3682 612.641 49.3814 613.995 49.7865C614.352 49.8935 614.655 49.998 614.903 50.1C615.151 50.202 615.387 50.3423 615.612 50.5209L614.335 54.2305C613.707 53.8198 613.022 53.5036 612.281 53.2819C610.774 52.831 609.481 52.9175 608.404 53.5415C607.334 54.14 606.505 55.4229 605.916 57.39L602.626 68.3884L598.679 67.2075L604.721 47.0119Z" fill="white"/>
<path d="M620.335 52.7947L624.243 54.0976L617.577 74.0958L613.669 72.7929L620.335 52.7947ZM623.484 49.7969C622.801 49.5692 622.308 49.1518 622.004 48.5446C621.701 47.9374 621.663 47.2923 621.89 46.6093C622.118 45.9262 622.536 45.4329 623.143 45.1293C623.75 44.8258 624.395 44.7878 625.078 45.0155C625.761 45.2432 626.25 45.6733 626.545 46.3057C626.849 46.9129 626.891 47.5453 626.672 48.2031C626.453 48.8608 626.035 49.3541 625.42 49.683C624.812 49.9866 624.167 50.0245 623.484 49.7969Z" fill="white"/>
<path d="M635.37 81.0949C633.673 80.4564 632.45 79.5405 631.703 78.3475C630.964 77.1294 630.527 75.868 630.391 74.5633L630.129 74.4647L628.692 78.2833L624.761 76.8043L635.326 48.726L639.257 50.205L634.82 61.9979L635.082 62.0965C636 61.2454 637.121 60.6131 638.445 60.1994C639.769 59.7857 641.292 59.9029 643.014 60.5508C644.736 61.1988 646.04 62.2021 646.925 63.5607C647.844 64.9038 648.324 66.4664 648.366 68.2486C648.433 70.0402 648.091 71.9343 647.339 73.931C646.598 75.9028 645.611 77.5403 644.38 78.8435C643.174 80.1562 641.795 81.0192 640.243 81.4326C638.692 81.8461 637.067 81.7335 635.37 81.0949ZM635.308 77.3964C637.105 78.0725 638.707 77.9057 640.112 76.896C641.543 75.8957 642.634 74.3972 643.385 72.4005C644.127 70.4288 644.297 68.6125 643.897 66.9516C643.505 65.2658 642.398 64.0801 640.577 63.3946C638.804 62.7279 637.191 62.89 635.735 63.8809C634.305 64.8812 633.218 66.3672 632.477 68.339C631.735 70.3107 631.572 72.1441 631.988 73.8394C632.43 75.544 633.536 76.7296 635.308 77.3964Z" fill="white"/>
<path d="M653.51 88.405C651.501 87.5411 650.017 86.3365 649.056 84.7911C648.095 83.2457 647.61 81.5714 647.602 79.7681C647.604 77.9403 647.979 76.1567 648.727 74.4174C649.475 72.6781 650.507 71.1913 651.821 69.9569C653.146 68.6981 654.7 67.8859 656.483 67.5205C658.29 67.1657 660.198 67.4202 662.207 68.2841C664.853 69.4219 666.586 71.1976 667.405 73.6112C668.236 76.0003 667.945 78.8361 666.533 82.1188L666.075 83.1844L651.965 77.1159L651.854 77.3732C651.432 78.3531 651.258 79.3665 651.33 80.4136C651.402 81.4606 651.727 82.4274 652.303 83.314C652.89 84.1762 653.711 84.8337 654.764 85.2868C655.916 85.7819 657.029 85.9269 658.104 85.7217C659.19 85.4919 660.127 84.9662 660.916 84.1443L664.664 85.7562C663.394 87.3583 661.779 88.4487 659.817 89.0275C657.866 89.5818 655.764 89.3743 653.51 88.405ZM663.486 78.9793C664.241 76.9529 664.355 75.3038 663.828 74.0321C663.336 72.7464 662.355 71.7875 660.885 71.1554C659.317 70.4811 657.834 70.453 656.437 71.071C655.063 71.6995 653.983 72.8607 653.197 74.5544L663.486 78.9793Z" fill="white"/>
<path d="M689.249 85.1039L684.161 95.1709C683.715 96.0515 683.426 96.7121 683.293 97.1527C683.184 97.6054 683.248 98.041 683.484 98.4595C683.745 98.8899 684.303 99.3217 685.16 99.7548C685.755 100.056 686.374 100.279 687.018 100.425L685.7 103.031C685.498 103.018 685.069 102.891 684.414 102.649C683.759 102.408 683.122 102.131 682.504 101.818C681.004 101.06 679.994 100.281 679.473 99.4794C678.964 98.6543 678.776 97.8425 678.911 97.0441C679.081 96.2339 679.455 95.2576 680.033 94.1153L685.572 83.2453L682.181 81.531L683.661 78.6037L687.052 80.318L690.174 74.1422L693.851 76.0009L690.729 82.1767L695.12 84.3962L693.64 87.3235L689.249 85.1039Z" fill="white"/>
<path d="M699.558 111.08C697.675 110.022 696.331 108.685 695.525 107.07C694.72 105.455 694.396 103.744 694.555 101.937C694.75 100.12 695.318 98.3742 696.259 96.7003C697.212 95.0032 698.408 93.6103 699.845 92.5216C701.319 91.4226 702.955 90.7972 704.754 90.6453C706.565 90.47 708.412 90.9115 710.295 91.9695C712.179 93.0275 713.516 94.3756 714.309 96.0138C715.114 97.6287 715.431 99.3514 715.259 101.182C715.1 102.989 714.551 104.729 713.61 106.403C712.67 108.077 711.462 109.464 709.989 110.563C708.528 111.638 706.892 112.264 705.08 112.439C703.282 112.591 701.441 112.138 699.558 111.08ZM701.243 108.081C702.847 108.982 704.444 109.053 706.033 108.294C707.645 107.548 708.98 106.233 710.038 104.35C711.096 102.467 711.518 100.655 711.303 98.9133C711.112 97.1848 710.215 95.8698 708.61 94.9685C707.029 94.0803 705.433 94.0092 703.821 94.7552C702.222 95.4779 700.9 96.7692 699.855 98.6291C698.797 100.512 698.357 102.33 698.535 104.081C698.736 105.846 699.639 107.179 701.243 108.081Z" fill="white"/>
<path d="M734.678 98.8077L739.774 102.197L735.038 123.114L735.138 123.181L752.564 110.703L757.66 114.092L742.154 137.407L738.757 135.147L750.829 116.995L750.696 116.906L731.862 130.562L729.464 128.967L734.776 106.318L734.642 106.23L722.57 124.382L719.173 122.122L734.678 98.8077Z" fill="white"/>
<path d="M751.231 147.803C750.285 148.363 749.453 148.792 748.734 149.089C748 149.408 747.065 149.528 745.928 149.449C744.797 149.407 743.621 148.934 742.4 148.028C741.758 147.552 741.136 146.958 740.535 146.247L742.321 143.837C742.772 144.304 743.19 144.68 743.575 144.966C744.282 145.49 744.945 145.782 745.564 145.843C746.183 145.903 746.769 145.807 747.323 145.553C747.882 145.337 748.608 144.962 749.501 144.429L751.47 143.25L757.29 122.369L760.728 124.918L755.784 140.722L755.977 140.865L769.886 131.708L773.292 134.233L751.231 147.803Z" fill="white"/>
<path d="M789.708 138.307L793.325 141.339L790.136 166.691L790.228 166.768L804.025 150.305L807.182 152.952L789.197 174.412L785.518 171.329L788.487 146.365L788.395 146.288L774.88 162.413L771.723 159.767L789.708 138.307Z" fill="white"/>
<path d="M799.829 184.322C798.207 182.856 797.19 181.236 796.78 179.464C796.369 177.691 796.451 175.95 797.026 174.24C797.618 172.511 798.549 170.944 799.819 169.54C801.088 168.135 802.545 167.061 804.187 166.317C805.848 165.554 807.581 165.287 809.386 165.517C811.211 165.764 812.935 166.621 814.557 168.088C816.694 170.019 817.76 172.259 817.757 174.808C817.771 177.337 816.58 179.927 814.184 182.578L813.406 183.439L802.011 173.139L801.824 173.347C801.108 174.138 800.616 175.041 800.346 176.055C800.076 177.069 800.071 178.089 800.331 179.114C800.608 180.12 801.172 181.007 802.023 181.776C802.952 182.616 803.959 183.113 805.043 183.266C806.145 183.399 807.202 183.204 808.214 182.681L811.241 185.417C809.522 186.523 807.64 187.034 805.597 186.948C803.572 186.843 801.649 185.967 799.829 184.322ZM812.314 178.623C813.683 176.949 814.323 175.425 814.235 174.051C814.185 172.675 813.566 171.451 812.379 170.378C811.113 169.234 809.718 168.728 808.196 168.862C806.693 169.013 805.296 169.763 804.005 171.112L812.314 178.623Z" fill="white"/>
<path d="M822.879 176.284L825.671 178.977L817.284 193.896L817.428 194.034L832.523 185.586L835.172 188.141L827.332 203.587L827.476 203.726L841.995 194.722L844.817 197.444L826.094 208.673L822.381 205.091L829.409 191.696L829.207 191.502L816.075 199.009L812.361 195.427L822.879 176.284Z" fill="white"/>
<path d="M838.509 221.499C837.291 220.266 836.479 218.969 836.072 217.609C835.665 216.249 835.607 214.957 835.897 213.733C836.206 212.491 836.778 211.457 837.613 210.632L837.755 210.492L840.623 213.394L840.509 213.506C839.826 214.181 839.481 215.065 839.475 216.159C839.487 217.234 839.981 218.264 840.955 219.251C841.761 220.066 842.626 220.543 843.549 220.681C844.472 220.818 845.275 220.549 845.958 219.875C846.546 219.294 846.795 218.635 846.705 217.899C846.634 217.145 846.337 216.388 845.814 215.631L844.243 213.472C843.233 212.071 842.638 210.615 842.459 209.106C842.298 207.577 842.863 206.176 844.152 204.901C845.556 203.514 847.144 202.939 848.915 203.176C850.686 203.413 852.359 204.328 853.933 205.921C855.076 207.079 855.851 208.299 856.259 209.584C856.685 210.85 856.762 212.048 856.492 213.178C856.221 214.307 855.678 215.275 854.862 216.081L854.748 216.194L851.881 213.291L851.938 213.235C852.507 212.673 852.832 211.902 852.913 210.922C852.994 209.942 852.566 208.977 851.629 208.029C850.842 207.232 850.006 206.784 849.12 206.685C848.234 206.585 847.469 206.854 846.824 207.491C846.274 208.035 846.034 208.684 846.105 209.438C846.176 210.193 846.473 210.93 846.997 211.65L848.652 214.064C849.661 215.541 850.246 217.025 850.407 218.515C850.586 220.025 850.041 221.408 848.77 222.663C847.859 223.563 846.809 224.113 845.62 224.313C844.431 224.514 843.216 224.365 841.974 223.867C840.733 223.37 839.578 222.58 838.509 221.499Z" fill="white"/>
<path d="M851.541 234.674C850.354 233.447 849.665 232.351 849.473 231.386C849.282 230.422 849.409 229.575 849.855 228.847C850.32 228.1 851.031 227.263 851.99 226.336L869.295 209.65L872.16 212.611L855.4 228.825C854.691 229.512 854.191 230.05 853.902 230.441C853.631 230.852 853.539 231.312 853.625 231.823C853.71 232.334 854.078 232.924 854.727 233.595C855.079 233.959 855.423 234.257 855.759 234.489L853.631 236.547C852.757 235.835 852.06 235.21 851.541 234.674Z" fill="white"/>
<path d="M862.423 246.197C860.915 244.614 860.022 242.923 859.744 241.125C859.467 239.326 859.678 237.596 860.378 235.934C861.097 234.254 862.142 232.76 863.513 231.454C864.884 230.148 866.416 229.185 868.109 228.566C869.822 227.928 871.57 227.79 873.353 228.154C875.155 228.537 876.81 229.52 878.318 231.102C880.305 233.187 881.202 235.5 881.009 238.042C880.835 240.565 879.455 243.06 876.869 245.525L876.029 246.325L865.432 235.207L865.229 235.4C864.457 236.136 863.898 236.999 863.554 237.991C863.21 238.982 863.129 239.999 863.311 241.04C863.513 242.064 864.009 242.991 864.8 243.821C865.665 244.728 866.632 245.298 867.702 245.531C868.79 245.746 869.859 245.63 870.907 245.184L873.722 248.137C871.926 249.113 870.012 249.482 867.98 249.244C865.968 248.988 864.116 247.973 862.423 246.197ZM875.297 241.442C876.787 239.874 877.539 238.402 877.554 237.026C877.606 235.65 877.08 234.383 875.976 233.225C874.798 231.989 873.445 231.382 871.917 231.401C870.407 231.441 868.958 232.085 867.57 233.334L875.297 241.442Z" fill="white"/>
<path d="M890.979 250.019L882.791 257.777C882.074 258.456 881.579 258.98 881.305 259.35C881.049 259.739 880.962 260.17 881.044 260.644C881.144 261.137 881.524 261.732 882.184 262.429C882.642 262.913 883.15 263.333 883.706 263.687L881.586 265.695C881.4 265.615 881.039 265.35 880.504 264.902C879.969 264.454 879.463 263.978 878.987 263.475C877.831 262.255 877.143 261.18 876.923 260.25C876.723 259.301 876.82 258.474 877.217 257.768C877.651 257.063 878.332 256.27 879.262 255.39L888.146 247.028L885.532 244.27L887.913 242.014L890.527 244.773L895.55 240.013L898.384 243.004L893.36 247.763L896.744 251.335L894.363 253.591L890.979 250.019Z" fill="white"/>
<path d="M901.552 261.161L893.38 268.937C892.666 269.617 892.172 270.142 891.898 270.513C891.643 270.902 891.557 271.334 891.64 271.808C891.741 272.301 892.122 272.895 892.784 273.59C893.243 274.073 893.752 274.491 894.309 274.845L892.193 276.858C892.007 276.777 891.645 276.514 891.11 276.067C890.574 275.62 890.067 275.145 889.589 274.643C888.431 273.426 887.741 272.352 887.519 271.422C887.316 270.474 887.412 269.647 887.807 268.94C888.239 268.234 888.919 267.44 889.846 266.557L898.712 258.176L896.092 255.423L898.469 253.162L901.088 255.915L906.101 251.145L908.941 254.13L903.928 258.9L907.32 262.464L904.944 264.725L901.552 261.161Z" fill="white"/>
<path d="M902.172 287.933C900.651 286.363 899.744 284.679 899.452 282.883C899.16 281.087 899.357 279.355 900.044 277.687C900.75 276.001 901.782 274.5 903.142 273.182C904.502 271.865 906.026 270.89 907.715 270.256C909.423 269.605 911.169 269.453 912.955 269.802C914.76 270.17 916.423 271.14 917.944 272.71C919.948 274.779 920.864 277.085 920.692 279.628C920.538 282.153 919.178 284.658 916.612 287.144L915.779 287.951L905.091 276.919L904.89 277.114C904.124 277.856 903.573 278.724 903.237 279.718C902.9 280.712 902.827 281.73 903.018 282.77C903.228 283.792 903.732 284.714 904.53 285.538C905.402 286.438 906.374 287 907.445 287.225C908.536 287.431 909.603 287.306 910.648 286.851L913.486 289.782C911.698 290.772 909.787 291.156 907.754 290.935C905.74 290.696 903.879 289.695 902.172 287.933ZM915.008 283.074C916.485 281.494 917.225 280.016 917.228 278.639C917.269 277.263 916.732 276.001 915.619 274.852C914.432 273.626 913.074 273.029 911.546 273.061C910.036 273.113 908.593 273.769 907.215 275.029L915.008 283.074Z" fill="white"/>
<path d="M928.584 284.397L931.498 287.31L929.123 289.686L929.293 289.856C930.198 289.441 931.188 289.318 932.262 289.487C933.375 289.657 934.431 290.241 935.431 291.24C935.695 291.504 935.912 291.74 936.081 291.947C936.251 292.155 936.393 292.39 936.506 292.654L933.622 295.314C933.263 294.654 932.81 294.051 932.263 293.504C931.151 292.392 929.972 291.855 928.727 291.893C927.502 291.912 926.163 292.648 924.712 294.1L916.596 302.22L913.682 299.307L928.584 284.397Z" fill="white"/>
<path d="M961.041 313.215C962.099 314.161 962.896 315.39 963.432 316.9C963.987 318.409 964.067 319.939 963.675 321.492C963.3 323.044 962.653 324.334 961.733 325.363C960.145 327.139 958.165 328.094 955.793 328.226C953.421 328.358 951.347 327.63 949.571 326.042C947.804 324.462 946.855 322.487 946.722 320.115C946.59 317.743 947.318 315.669 948.906 313.893C949.844 312.845 951.039 312.045 952.493 311.493C953.965 310.941 955.477 310.843 957.027 311.199C958.596 311.554 959.934 312.226 961.041 313.215Z" fill="white"/>
<path d="M982.849 360.445C981.069 359.174 979.795 357.723 979.026 356.093C978.295 354.456 978.014 352.83 978.184 351.215C978.376 349.615 978.922 348.186 979.821 346.928L979.937 346.765L983.648 349.415L983.532 349.578C983.036 350.272 982.702 351.083 982.532 352.01C982.377 352.915 982.487 353.862 982.862 354.851C983.253 355.818 983.991 356.689 985.076 357.464C986.4 358.409 987.714 358.84 989.019 358.756C990.346 358.688 991.42 358.079 992.241 356.929C992.923 355.974 993.14 354.982 992.892 353.953C992.666 352.939 992.134 351.986 991.297 351.093L988.614 348.243C987.448 346.984 986.535 345.464 985.875 343.682C985.251 341.893 985.676 339.968 987.148 337.906C988.094 336.583 989.238 335.646 990.58 335.097C991.944 334.564 993.387 334.448 994.909 334.748C996.446 335.027 997.953 335.694 999.429 336.748C1001.12 337.956 1002.34 339.331 1003.07 340.872C1003.8 342.412 1004.09 343.942 1003.92 345.461C1003.79 346.974 1003.31 348.316 1002.47 349.488L1002.38 349.618L998.667 346.968L998.737 346.87C999.155 346.285 999.448 345.576 999.615 344.745C999.783 343.915 999.685 343.042 999.322 342.128C998.997 341.207 998.302 340.367 997.239 339.607C995.98 338.709 994.734 338.343 993.5 338.51C992.304 338.672 991.341 339.262 990.613 340.282C989.977 341.172 989.762 342.116 989.967 343.114C990.193 344.128 990.735 345.089 991.594 345.997L994.073 348.652C995.496 350.192 996.493 351.871 997.063 353.687C997.655 355.519 997.254 357.412 995.859 359.365C994.898 360.71 993.699 361.656 992.26 362.202C990.844 362.763 989.308 362.895 987.652 362.597C986.034 362.294 984.433 361.576 982.849 360.445Z" fill="white"/>
<path d="M1012.44 379.09L1008.87 376.951L1010.82 373.692L1010.58 373.548C1009.52 374.28 1008.3 374.701 1006.93 374.811C1005.56 374.922 1004.19 374.566 1002.82 373.743C1001.26 372.811 1000.21 371.684 999.666 370.363C999.158 369.032 999.029 367.665 999.28 366.26C999.545 364.833 1000.06 363.48 1000.83 362.199L1007.29 351.426L1010.82 353.544L1004.67 363.802C1003.71 365.403 1003.36 366.89 1003.63 368.262C1003.9 369.634 1004.69 370.717 1006.02 371.512C1007.41 372.349 1008.79 372.538 1010.16 372.08C1011.53 371.599 1012.67 370.615 1013.56 369.128L1019.71 358.87L1023.27 361.009L1012.44 379.09Z" fill="white"/>
<path d="M1028.57 387.612C1026.94 386.828 1025.8 385.81 1025.16 384.556C1024.53 383.279 1024.2 381.984 1024.18 380.672L1023.93 380.551L1022.16 384.231L1018.38 382.416L1031.34 355.361L1035.13 357.176L1029.68 368.539L1029.94 368.66C1030.93 367.892 1032.1 367.36 1033.45 367.063C1034.81 366.765 1036.31 367.014 1037.97 367.81C1039.63 368.605 1040.84 369.717 1041.61 371.148C1042.41 372.566 1042.75 374.164 1042.64 375.943C1042.55 377.734 1042.04 379.591 1041.12 381.515C1040.21 383.415 1039.08 384.96 1037.74 386.152C1036.43 387.355 1034.98 388.095 1033.4 388.372C1031.82 388.649 1030.21 388.395 1028.57 387.612ZM1028.83 383.922C1030.56 384.752 1032.17 384.725 1033.66 383.841C1035.17 382.969 1036.39 381.571 1037.31 379.647C1038.22 377.747 1038.55 375.952 1038.3 374.263C1038.05 372.549 1037.05 371.272 1035.3 370.431C1033.59 369.613 1031.97 369.634 1030.43 370.495C1028.92 371.367 1027.71 372.753 1026.8 374.653C1025.89 376.552 1025.57 378.365 1025.83 380.09C1026.13 381.826 1027.13 383.104 1028.83 383.922Z" fill="white"/>
<path d="M1050.58 396.853C1048.95 396.259 1047.66 395.434 1046.71 394.378C1045.76 393.322 1045.16 392.179 1044.9 390.949C1044.65 389.693 1044.72 388.514 1045.12 387.412L1045.19 387.224L1049.02 388.622L1048.97 388.773C1048.64 389.674 1048.71 390.621 1049.17 391.613C1049.64 392.579 1050.53 393.3 1051.83 393.775C1052.91 394.168 1053.89 394.23 1054.78 393.959C1055.68 393.689 1056.29 393.103 1056.62 392.201C1056.9 391.425 1056.84 390.723 1056.45 390.096C1056.06 389.444 1055.47 388.888 1054.67 388.427L1052.33 387.146C1050.82 386.311 1049.66 385.249 1048.85 383.961C1048.05 382.648 1047.96 381.139 1048.59 379.436C1049.26 377.582 1050.45 376.384 1052.15 375.841C1053.86 375.298 1055.76 375.411 1057.86 376.178C1059.39 376.736 1060.61 377.508 1061.53 378.496C1062.46 379.458 1063.04 380.508 1063.28 381.645C1063.52 382.782 1063.44 383.889 1063.05 384.966L1062.99 385.117L1059.16 383.719L1059.19 383.643C1059.46 382.892 1059.42 382.056 1059.08 381.135C1058.73 380.214 1057.93 379.525 1056.68 379.068C1055.63 378.684 1054.68 378.637 1053.84 378.925C1053 379.214 1052.42 379.784 1052.11 380.636C1051.84 381.362 1051.9 382.051 1052.29 382.703C1052.68 383.355 1053.26 383.895 1054.04 384.322L1056.57 385.797C1058.11 386.701 1059.28 387.792 1060.06 389.071C1060.87 390.359 1060.96 391.842 1060.35 393.521C1059.91 394.723 1059.2 395.669 1058.21 396.359C1057.22 397.048 1056.06 397.433 1054.72 397.514C1053.39 397.594 1052.01 397.374 1050.58 396.853Z" fill="white"/>
<path d="M1073.61 404.078C1071.47 403.522 1069.8 402.554 1068.62 401.173C1067.44 399.792 1066.69 398.207 1066.38 396.419C1066.11 394.612 1066.21 392.78 1066.69 390.921C1067.16 389.088 1067.96 387.462 1069.07 386.042C1070.21 384.603 1071.64 383.567 1073.35 382.935C1075.05 382.303 1076.98 382.264 1079.12 382.819C1081.78 383.508 1083.68 384.828 1084.83 386.778C1085.98 388.702 1086.42 390.84 1086.14 393.192L1082.23 392.179C1082.36 390.725 1082.1 389.458 1081.44 388.379C1080.81 387.281 1079.77 386.541 1078.29 386.159C1076.38 385.665 1074.77 385.99 1073.45 387.137C1072.14 388.283 1071.21 389.889 1070.68 391.954C1070.14 394.02 1070.17 395.873 1070.77 397.514C1071.36 399.156 1072.61 400.224 1074.52 400.719C1075.99 401.1 1077.27 400.975 1078.34 400.344C1079.44 399.719 1080.28 398.74 1080.88 397.406L1084.79 398.42C1083.89 400.611 1082.46 402.281 1080.51 403.428C1078.57 404.55 1076.27 404.766 1073.61 404.078Z" fill="white"/>
<path d="M1093.38 386.65L1097.44 387.341L1096.87 390.653L1097.11 390.694C1097.61 389.832 1098.35 389.159 1099.32 388.676C1100.33 388.17 1101.53 388.036 1102.92 388.273C1103.29 388.336 1103.6 388.403 1103.86 388.474C1104.12 388.545 1104.37 388.655 1104.61 388.805L1103.8 392.643C1103.13 392.312 1102.41 392.081 1101.64 391.952C1100.09 391.688 1098.82 391.931 1097.83 392.682C1096.84 393.406 1096.17 394.781 1095.83 396.805L1093.9 408.122L1089.84 407.432L1093.38 386.65Z" fill="white"/>
<path d="M1107.61 388.892L1111.71 389.37L1109.26 410.308L1105.16 409.829L1107.61 388.892ZM1110.09 385.315C1109.37 385.231 1108.8 384.923 1108.38 384.39C1107.96 383.858 1107.79 383.234 1107.88 382.519C1107.96 381.804 1108.27 381.236 1108.8 380.815C1109.33 380.394 1109.96 380.225 1110.67 380.309C1111.39 380.392 1111.95 380.714 1112.37 381.273C1112.79 381.805 1112.96 382.416 1112.88 383.105C1112.8 383.793 1112.49 384.361 1111.96 384.809C1111.42 385.23 1110.8 385.398 1110.09 385.315Z" fill="white"/>
<path d="M1127.8 412.017C1125.99 411.933 1124.54 411.439 1123.46 410.535C1122.39 409.604 1121.58 408.539 1121.05 407.34L1120.77 407.327L1120.58 411.402L1116.39 411.208L1117.77 381.24L1121.97 381.435L1121.39 394.021L1121.67 394.034C1122.28 392.941 1123.15 391.994 1124.28 391.192C1125.41 390.39 1126.9 390.032 1128.74 390.117C1130.57 390.202 1132.12 390.755 1133.38 391.774C1134.67 392.768 1135.61 394.106 1136.2 395.789C1136.82 397.472 1137.08 399.38 1136.98 401.511C1136.88 403.615 1136.45 405.477 1135.68 407.097C1134.93 408.717 1133.89 409.964 1132.54 410.835C1131.19 411.707 1129.61 412.101 1127.8 412.017ZM1126.6 408.518C1128.52 408.607 1129.99 407.954 1131.02 406.56C1132.07 405.168 1132.64 403.406 1132.74 401.275C1132.84 399.17 1132.44 397.39 1131.55 395.934C1130.66 394.451 1129.24 393.664 1127.29 393.574C1125.4 393.486 1123.92 394.138 1122.84 395.53C1121.79 396.923 1121.21 398.671 1121.11 400.776C1121.02 402.88 1121.43 404.674 1122.35 406.159C1123.29 407.644 1124.71 408.43 1126.6 408.518Z" fill="white"/>
<path d="M1150.91 412.108C1148.72 412.193 1146.86 411.746 1145.33 410.765C1143.8 409.784 1142.64 408.482 1141.85 406.858C1141.07 405.207 1140.64 403.436 1140.56 401.544C1140.49 399.652 1140.78 397.866 1141.44 396.186C1142.09 394.479 1143.14 393.077 1144.59 391.979C1146.07 390.881 1147.9 390.288 1150.09 390.203C1152.97 390.09 1155.29 390.946 1157.07 392.771C1158.85 394.57 1159.81 397.254 1159.95 400.825L1160 401.984L1144.65 402.585L1144.66 402.865C1144.7 403.931 1144.98 404.921 1145.5 405.835C1146.01 406.748 1146.72 407.481 1147.62 408.033C1148.53 408.558 1149.55 408.798 1150.69 408.753C1151.95 408.704 1153.01 408.356 1153.9 407.707C1154.78 407.032 1155.4 406.154 1155.75 405.073L1159.83 404.913C1159.38 406.906 1158.39 408.585 1156.87 409.953C1155.34 411.293 1153.36 412.012 1150.91 412.108ZM1155.85 399.304C1155.66 397.15 1155.05 395.613 1154.03 394.692C1153.03 393.744 1151.73 393.301 1150.13 393.364C1148.43 393.43 1147.08 394.044 1146.08 395.204C1145.11 396.362 1144.64 397.875 1144.66 399.743L1155.85 399.304Z" fill="white"/>
<path d="M1182.64 391.234L1184.16 402.411C1184.29 403.389 1184.43 404.097 1184.57 404.535C1184.73 404.97 1185.03 405.293 1185.46 405.503C1185.92 405.71 1186.63 405.749 1187.58 405.62C1188.24 405.53 1188.88 405.363 1189.49 405.118L1189.88 408.011C1189.71 408.116 1189.28 408.254 1188.61 408.427C1187.93 408.599 1187.25 408.732 1186.56 408.826C1184.9 409.052 1183.62 408.983 1182.74 408.619C1181.85 408.228 1181.24 407.665 1180.9 406.931C1180.58 406.168 1180.33 405.151 1180.16 403.883L1178.56 391.789L1174.79 392.3L1174.35 389.05L1178.11 388.539L1177.18 381.682L1181.26 381.127L1182.2 387.984L1187.07 387.321L1187.51 390.572L1182.64 391.234Z" fill="white"/>
<path d="M1207.37 405.46C1205.25 405.871 1203.36 405.722 1201.7 405.012C1200.04 404.302 1198.68 403.207 1197.64 401.726C1196.61 400.214 1195.91 398.516 1195.55 396.631C1195.18 394.72 1195.19 392.884 1195.58 391.124C1195.99 389.332 1196.83 387.797 1198.11 386.518C1199.37 385.212 1201.07 384.353 1203.19 383.942C1205.31 383.53 1207.2 383.692 1208.87 384.428C1210.52 385.138 1211.88 386.247 1212.93 387.754C1213.98 389.235 1214.69 390.917 1215.05 392.802C1215.42 394.687 1215.4 396.525 1214.98 398.317C1214.57 400.082 1213.72 401.617 1212.46 402.923C1211.18 404.202 1209.49 405.048 1207.37 405.46ZM1206.71 402.083C1208.52 401.732 1209.78 400.753 1210.5 399.146C1211.25 397.535 1211.41 395.669 1211 393.548C1210.59 391.428 1209.74 389.773 1208.45 388.584C1207.19 387.39 1205.65 386.968 1203.84 387.319C1202.06 387.664 1200.8 388.643 1200.05 390.255C1199.3 391.84 1199.13 393.68 1199.54 395.775C1199.95 397.895 1200.79 399.565 1202.06 400.786C1203.35 402.001 1204.9 402.433 1206.71 402.083Z" fill="white"/>
<path d="M1228.24 371.979L1234.23 370.735L1245.79 388.802L1245.91 388.778L1249.27 367.611L1255.27 366.367L1260.96 393.782L1256.96 394.611L1252.53 373.267L1252.38 373.299L1248.86 396.295L1246.04 396.881L1233.65 377.188L1233.5 377.22L1237.93 398.565L1233.94 399.394L1228.24 371.979Z" fill="white"/>
<path d="M1274.53 394.413C1274.3 395.488 1274.05 396.391 1273.78 397.12C1273.52 397.876 1272.97 398.644 1272.14 399.425C1271.34 400.227 1270.2 400.77 1268.7 401.052C1267.92 401.201 1267.06 401.255 1266.13 401.214L1265.57 398.266C1266.22 398.252 1266.78 398.2 1267.25 398.111C1268.12 397.947 1268.78 397.659 1269.24 397.245C1269.71 396.832 1270.04 396.336 1270.23 395.757C1270.45 395.2 1270.66 394.412 1270.88 393.395L1271.35 391.148L1259.96 372.703L1264.17 371.908L1272.42 386.264L1272.65 386.219L1275.37 369.789L1279.53 369L1274.53 394.413Z" fill="white"/>
<path d="M1291.99 359.562L1296.65 358.819L1313.7 377.852L1313.81 377.833L1310.43 356.621L1314.5 355.972L1318.91 383.623L1314.17 384.379L1297.27 365.768L1297.15 365.787L1300.46 386.564L1296.39 387.213L1291.99 359.562Z" fill="white"/>
<path d="M1335.28 381.655C1333.12 381.941 1331.22 381.666 1329.61 380.831C1327.99 379.995 1326.72 378.804 1325.79 377.26C1324.85 375.688 1324.26 373.964 1324.02 372.087C1323.77 370.21 1323.89 368.405 1324.39 366.671C1324.88 364.911 1325.8 363.418 1327.15 362.192C1328.52 360.962 1330.29 360.204 1332.46 359.918C1335.31 359.542 1337.71 360.18 1339.65 361.834C1341.58 363.462 1342.79 366.047 1343.25 369.59L1343.41 370.74L1328.18 372.748L1328.21 373.026C1328.35 374.083 1328.72 375.043 1329.32 375.906C1329.92 376.768 1330.69 377.433 1331.64 377.899C1332.59 378.34 1333.63 378.485 1334.76 378.335C1336.01 378.171 1337.04 377.726 1337.86 376.999C1338.67 376.246 1339.21 375.314 1339.46 374.205L1343.51 373.671C1343.24 375.697 1342.41 377.461 1341.02 378.962C1339.63 380.437 1337.72 381.335 1335.28 381.655ZM1339.03 368.452C1338.64 366.325 1337.89 364.85 1336.79 364.027C1335.71 363.174 1334.38 362.853 1332.79 363.062C1331.1 363.285 1329.81 364.02 1328.93 365.266C1328.07 366.509 1327.73 368.059 1327.93 369.917L1339.03 368.452Z" fill="white"/>
<path d="M1344.55 358.815L1348.41 358.436L1354.33 374.495L1354.53 374.475L1357.88 357.506L1361.55 357.146L1368.22 373.131L1368.42 373.111L1370.98 356.22L1374.88 355.837L1371.29 377.371L1366.15 377.875L1360.51 363.839L1360.24 363.866L1357.43 378.731L1352.3 379.235L1344.55 358.815Z" fill="white"/>
<path d="M1386.61 376.57C1384.88 376.675 1383.37 376.434 1382.08 375.844C1380.79 375.255 1379.78 374.448 1379.05 373.424C1378.31 372.373 1377.91 371.262 1377.84 370.091L1377.83 369.892L1381.9 369.644L1381.91 369.803C1381.97 370.762 1382.41 371.603 1383.23 372.328C1384.05 373.026 1385.15 373.333 1386.53 373.249C1387.67 373.179 1388.6 372.842 1389.31 372.238C1390.02 371.633 1390.35 370.852 1390.29 369.894C1390.24 369.069 1389.91 368.448 1389.3 368.031C1388.68 367.588 1387.92 367.314 1387 367.209L1384.34 366.97C1382.62 366.808 1381.14 366.297 1379.88 365.439C1378.63 364.553 1377.94 363.206 1377.83 361.396C1377.71 359.426 1378.33 357.853 1379.67 356.675C1381.01 355.498 1382.8 354.841 1385.04 354.705C1386.66 354.606 1388.09 354.826 1389.33 355.366C1390.56 355.878 1391.51 356.608 1392.19 357.556C1392.86 358.504 1393.23 359.55 1393.3 360.694L1393.31 360.854L1389.24 361.102L1389.23 361.022C1389.18 360.224 1388.82 359.471 1388.13 358.765C1387.45 358.058 1386.44 357.746 1385.11 357.827C1383.99 357.895 1383.1 358.229 1382.45 358.831C1381.79 359.432 1381.49 360.185 1381.54 361.09C1381.59 361.862 1381.92 362.469 1382.53 362.913C1383.15 363.356 1383.9 363.618 1384.79 363.697L1387.69 364.041C1389.47 364.254 1390.97 364.79 1392.2 365.65C1393.45 366.509 1394.13 367.83 1394.24 369.613C1394.32 370.891 1394.04 372.043 1393.41 373.07C1392.78 374.097 1391.87 374.914 1390.68 375.521C1389.48 376.128 1388.13 376.478 1386.61 376.57Z" fill="white"/>
<path d="M1406.16 375.551C1404.45 375.606 1403.18 375.38 1402.33 374.873C1401.49 374.367 1400.95 373.704 1400.71 372.885C1400.47 372.039 1400.33 370.949 1400.28 369.617L1399.55 345.588L1403.67 345.455L1404.42 368.763C1404.45 369.749 1404.51 370.481 1404.61 370.958C1404.73 371.435 1405.01 371.812 1405.45 372.092C1405.88 372.371 1406.57 372.496 1407.5 372.466C1408.01 372.45 1408.46 372.395 1408.85 372.302L1408.95 375.261C1407.83 375.43 1406.9 375.527 1406.16 375.551Z" fill="white"/>
<path d="M1422.39 375.458C1420.2 375.452 1418.36 374.928 1416.87 373.884C1415.38 372.841 1414.28 371.491 1413.56 369.836C1412.85 368.155 1412.49 366.367 1412.5 364.474C1412.5 362.581 1412.86 360.808 1413.59 359.156C1414.31 357.478 1415.42 356.121 1416.92 355.084C1418.44 354.048 1420.3 353.532 1422.48 353.538C1425.36 353.545 1427.65 354.497 1429.36 356.394C1431.06 358.265 1431.9 360.987 1431.9 364.56L1431.89 365.72L1416.53 365.683L1416.53 365.963C1416.53 367.03 1416.77 368.031 1417.25 368.965C1417.72 369.9 1418.4 370.661 1419.28 371.25C1420.16 371.812 1421.17 372.095 1422.32 372.097C1423.57 372.1 1424.65 371.796 1425.56 371.185C1426.47 370.547 1427.12 369.696 1427.53 368.63L1431.61 368.64C1431.07 370.612 1430.01 372.249 1428.43 373.552C1426.86 374.828 1424.84 375.463 1422.39 375.458ZM1427.86 362.871C1427.76 360.71 1427.22 359.149 1426.23 358.187C1425.27 357.198 1423.99 356.701 1422.39 356.697C1420.69 356.693 1419.31 357.25 1418.27 358.368C1417.25 359.485 1416.72 360.977 1416.66 362.844L1427.86 362.871Z" fill="white"/>
<path d="M1443.18 357.827L1442.69 369.096C1442.65 370.082 1442.65 370.803 1442.71 371.259C1442.8 371.717 1443.04 372.088 1443.43 372.371C1443.84 372.656 1444.53 372.819 1445.49 372.861C1446.15 372.89 1446.81 372.838 1447.46 372.706L1447.33 375.623C1447.14 375.695 1446.7 375.756 1446 375.806C1445.31 375.856 1444.61 375.866 1443.92 375.836C1442.24 375.763 1441 375.469 1440.19 374.954C1439.39 374.412 1438.88 373.75 1438.68 372.967C1438.5 372.158 1438.44 371.114 1438.49 369.836L1439.06 357.649L1435.26 357.485L1435.41 354.208L1439.2 354.372L1439.5 347.458L1443.62 347.636L1443.32 354.55L1448.23 354.763L1448.09 358.039L1443.18 357.827Z" fill="white"/>
<path d="M1460.49 359.008L1459.55 370.248C1459.46 371.231 1459.44 371.952 1459.49 372.411C1459.55 372.871 1459.78 373.251 1460.15 373.55C1460.56 373.852 1461.24 374.042 1462.19 374.122C1462.86 374.178 1463.51 374.153 1464.16 374.047L1463.92 376.957C1463.73 377.021 1463.28 377.064 1462.59 377.086C1461.89 377.108 1461.19 377.09 1460.5 377.032C1458.83 376.892 1457.6 376.548 1456.82 376.001C1456.03 375.427 1455.56 374.745 1455.38 373.954C1455.24 373.139 1455.22 372.094 1455.32 370.818L1456.38 358.664L1452.59 358.347L1452.87 355.079L1456.65 355.395L1457.23 348.5L1461.34 348.843L1460.76 355.739L1465.66 356.149L1465.39 359.418L1460.49 359.008Z" fill="white"/>
<path d="M1477.66 379.081C1475.49 378.79 1473.74 378.029 1472.4 376.799C1471.05 375.57 1470.14 374.088 1469.64 372.353C1469.15 370.592 1469.03 368.774 1469.29 366.897C1469.54 365.021 1470.13 363.311 1471.07 361.768C1472 360.199 1473.28 358.999 1474.9 358.167C1476.54 357.339 1478.45 357.07 1480.62 357.361C1483.47 357.745 1485.62 358.989 1487.06 361.092C1488.5 363.17 1488.98 365.979 1488.51 369.521L1488.35 370.67L1473.13 368.625L1473.09 368.902C1472.95 369.959 1473.06 370.982 1473.41 371.971C1473.76 372.96 1474.33 373.804 1475.13 374.503C1475.92 375.175 1476.89 375.587 1478.03 375.74C1479.27 375.907 1480.38 375.747 1481.36 375.26C1482.34 374.746 1483.11 373.987 1483.64 372.984L1487.69 373.527C1486.9 375.412 1485.63 376.897 1483.9 377.982C1482.17 379.041 1480.09 379.407 1477.66 379.081ZM1484.73 367.318C1484.91 365.163 1484.58 363.544 1483.73 362.461C1482.91 361.355 1481.7 360.696 1480.12 360.483C1478.43 360.255 1476.99 360.627 1475.81 361.599C1474.66 362.574 1473.93 363.983 1473.63 365.826L1484.73 367.318Z" fill="white"/>
<path d="M1493.76 359.885L1497.82 360.626L1497.21 363.931L1497.45 363.974C1497.96 363.119 1498.7 362.455 1499.68 361.984C1500.7 361.491 1501.9 361.372 1503.29 361.626C1503.65 361.693 1503.97 361.763 1504.22 361.838C1504.48 361.912 1504.73 362.025 1504.97 362.178L1504.11 366.006C1503.44 365.666 1502.73 365.427 1501.97 365.288C1500.42 365.005 1499.14 365.233 1498.14 365.971C1497.14 366.684 1496.46 368.05 1496.09 370.07L1494.03 381.362L1489.97 380.622L1493.76 359.885Z" fill="white"/>
<path d="M1538.42 368.011C1539.79 368.397 1541.04 369.15 1542.19 370.272C1543.35 371.384 1544.09 372.724 1544.42 374.292C1544.77 375.851 1544.75 377.294 1544.38 378.622C1543.73 380.915 1542.37 382.642 1540.3 383.802C1538.22 384.962 1536.04 385.218 1533.75 384.57C1531.47 383.926 1529.75 382.568 1528.59 380.495C1527.43 378.422 1527.17 376.239 1527.82 373.946C1528.2 372.592 1528.92 371.349 1529.99 370.215C1531.07 369.073 1532.38 368.321 1533.93 367.96C1535.5 367.591 1536.99 367.608 1538.42 368.011Z" fill="white"/>
<path d="M1574.44 404.293C1572.38 403.549 1570.77 402.496 1569.58 401.134C1568.44 399.755 1567.73 398.265 1567.46 396.664C1567.21 395.072 1567.35 393.549 1567.88 392.094L1567.94 391.906L1572.23 393.457L1572.16 393.645C1571.87 394.447 1571.77 395.318 1571.86 396.256C1571.95 397.17 1572.32 398.052 1572.94 398.903C1573.58 399.729 1574.53 400.368 1575.78 400.822C1577.31 401.375 1578.69 401.435 1579.93 401.002C1581.18 400.578 1582.05 399.702 1582.54 398.373C1582.93 397.269 1582.88 396.255 1582.36 395.331C1581.87 394.416 1581.1 393.642 1580.05 393.008L1576.7 390.988C1575.24 390.091 1573.95 388.873 1572.83 387.335C1571.75 385.781 1571.64 383.813 1572.5 381.43C1573.05 379.901 1573.9 378.69 1575.04 377.8C1576.21 376.918 1577.57 376.417 1579.12 376.295C1580.67 376.149 1582.3 376.384 1584.01 377.001C1585.97 377.708 1587.51 378.704 1588.63 379.989C1589.75 381.274 1590.44 382.671 1590.69 384.179C1590.97 385.67 1590.87 387.093 1590.38 388.447L1590.32 388.598L1586.03 387.048L1586.08 386.935C1586.32 386.258 1586.41 385.496 1586.35 384.651C1586.28 383.806 1585.96 382.992 1585.36 382.21C1584.8 381.411 1583.9 380.79 1582.67 380.345C1581.22 379.819 1579.92 379.804 1578.78 380.298C1577.67 380.776 1576.9 381.604 1576.47 382.783C1576.1 383.811 1576.15 384.778 1576.62 385.684C1577.11 386.599 1577.89 387.378 1578.96 388.021L1582.07 389.908C1583.85 391.008 1585.26 392.355 1586.3 393.95C1587.37 395.554 1587.49 397.485 1586.68 399.742C1586.11 401.297 1585.21 402.531 1583.98 403.445C1582.76 404.367 1581.32 404.909 1579.65 405.069C1578.01 405.213 1576.27 404.955 1574.44 404.293Z" fill="white"/>
<path d="M1605.23 415.502L1601.35 414.02L1602.7 410.47L1602.44 410.37C1601.52 411.276 1600.4 411.903 1599.07 412.252C1597.73 412.6 1596.32 412.489 1594.83 411.919C1593.13 411.273 1591.9 410.347 1591.13 409.141C1590.4 407.92 1590.04 406.596 1590.04 405.17C1590.05 403.719 1590.32 402.295 1590.85 400.9L1595.33 389.164L1599.18 390.632L1594.92 401.807C1594.25 403.552 1594.17 405.076 1594.67 406.38C1595.17 407.684 1596.14 408.612 1597.59 409.163C1599.11 409.743 1600.5 409.688 1601.76 408.999C1603.03 408.285 1603.98 407.118 1604.6 405.499L1608.86 394.324L1612.74 395.806L1605.23 415.502Z" fill="white"/>
<path d="M1621.34 421.646C1619.64 420.993 1618.43 420.067 1617.69 418.867C1616.96 417.643 1616.54 416.378 1616.41 415.072L1616.15 414.971L1614.68 418.777L1610.76 417.265L1621.57 389.278L1625.49 390.791L1620.95 402.545L1621.21 402.646C1622.14 401.803 1623.26 401.18 1624.59 400.778C1625.92 400.376 1627.44 400.506 1629.16 401.168C1630.87 401.831 1632.17 402.846 1633.04 404.212C1633.95 405.563 1634.42 407.129 1634.44 408.912C1634.49 410.704 1634.13 412.595 1633.37 414.585C1632.61 416.551 1631.61 418.18 1630.36 419.472C1629.15 420.774 1627.76 421.626 1626.21 422.026C1624.65 422.426 1623.03 422.299 1621.34 421.646ZM1621.31 417.947C1623.1 418.639 1624.7 418.486 1626.11 417.488C1627.55 416.5 1628.66 415.011 1629.43 413.021C1630.18 411.056 1630.37 409.241 1629.98 407.577C1629.61 405.887 1628.51 404.692 1626.69 403.991C1624.93 403.309 1623.31 403.458 1621.85 404.436C1620.41 405.424 1619.31 406.901 1618.55 408.866C1617.79 410.831 1617.61 412.663 1618.02 414.362C1618.44 416.07 1619.54 417.265 1621.31 417.947Z" fill="white"/>
<path d="M1641.13 429.239C1639.51 428.624 1638.24 427.783 1637.3 426.715C1636.37 425.646 1635.78 424.496 1635.53 423.262C1635.3 422.003 1635.39 420.825 1635.8 419.728L1635.87 419.541L1639.69 420.989L1639.63 421.139C1639.29 422.036 1639.34 422.984 1639.79 423.981C1640.25 424.954 1641.13 425.686 1642.42 426.178C1643.5 426.585 1644.48 426.659 1645.38 426.401C1646.27 426.142 1646.89 425.564 1647.23 424.666C1647.53 423.894 1647.48 423.191 1647.09 422.559C1646.71 421.902 1646.13 421.338 1645.34 420.867L1643.01 419.556C1641.51 418.701 1640.37 417.624 1639.58 416.326C1638.79 415.002 1638.73 413.493 1639.37 411.798C1640.07 409.953 1641.27 408.77 1642.98 408.249C1644.69 407.729 1646.59 407.866 1648.69 408.661C1650.21 409.238 1651.42 410.026 1652.33 411.026C1653.24 412 1653.81 413.057 1654.03 414.197C1654.25 415.337 1654.16 416.444 1653.76 417.516L1653.7 417.665L1649.88 416.217L1649.91 416.142C1650.2 415.395 1650.17 414.558 1649.84 413.633C1649.51 412.708 1648.72 412.008 1647.47 411.535C1646.42 411.138 1645.47 411.078 1644.63 411.355C1643.78 411.633 1643.2 412.195 1642.87 413.043C1642.6 413.766 1642.65 414.456 1643.03 415.113C1643.41 415.77 1643.99 416.317 1644.76 416.754L1647.27 418.262C1648.8 419.186 1649.95 420.292 1650.72 421.581C1651.51 422.88 1651.58 424.364 1650.95 426.034C1650.5 427.231 1649.77 428.168 1648.77 428.844C1647.77 429.52 1646.61 429.89 1645.27 429.953C1643.93 430.017 1642.55 429.779 1641.13 429.239Z" fill="white"/>
<path d="M1662.84 437.694C1660.75 436.952 1659.18 435.841 1658.12 434.361C1657.06 432.881 1656.46 431.237 1656.31 429.429C1656.19 427.605 1656.46 425.789 1657.1 423.979C1657.73 422.195 1658.67 420.645 1659.9 419.328C1661.17 417.996 1662.68 417.089 1664.43 416.61C1666.19 416.13 1668.11 416.261 1670.19 417.002C1672.78 417.922 1674.56 419.404 1675.53 421.447C1676.51 423.466 1676.76 425.634 1676.28 427.952L1672.47 426.599C1672.73 425.162 1672.58 423.877 1672.02 422.744C1671.49 421.595 1670.51 420.766 1669.08 420.257C1667.22 419.596 1665.58 419.778 1664.17 420.805C1662.76 421.831 1661.7 423.349 1660.98 425.359C1660.27 427.37 1660.13 429.218 1660.58 430.906C1661.03 432.593 1662.18 433.767 1664.04 434.428C1665.47 434.937 1666.75 434.924 1667.88 434.39C1669.02 433.865 1669.95 432.964 1670.66 431.687L1674.47 433.04C1673.38 435.144 1671.82 436.682 1669.77 437.654C1667.74 438.6 1665.43 438.614 1662.84 437.694Z" fill="white"/>
<path d="M1683.13 422.073L1687.05 423.348L1686.01 426.543L1686.24 426.617C1686.86 425.837 1687.69 425.279 1688.72 424.942C1689.79 424.589 1690.99 424.63 1692.34 425.068C1692.69 425.183 1692.99 425.295 1693.24 425.403C1693.48 425.511 1693.72 425.656 1693.94 425.84L1692.57 429.519C1691.95 429.093 1691.28 428.761 1690.54 428.521C1689.05 428.035 1687.75 428.09 1686.66 428.689C1685.58 429.262 1684.72 430.524 1684.08 432.477L1680.53 443.394L1676.61 442.119L1683.13 422.073Z" fill="white"/>
<path d="M1698.19 426.889L1702.14 428.087L1696.01 448.257L1692.07 447.06L1698.19 426.889ZM1701.26 423.808C1700.57 423.599 1700.07 423.195 1699.75 422.596C1699.43 421.997 1699.37 421.353 1699.58 420.665C1699.79 419.976 1700.2 419.471 1700.8 419.151C1701.39 418.832 1702.04 418.776 1702.73 418.986C1703.42 419.195 1703.92 419.612 1704.23 420.236C1704.55 420.835 1704.61 421.466 1704.41 422.129C1704.2 422.793 1703.8 423.297 1703.19 423.642C1702.59 423.962 1701.95 424.017 1701.26 423.808Z" fill="white"/>
<path d="M1713.8 453.632C1712.05 453.155 1710.75 452.357 1709.89 451.239C1709.04 450.095 1708.49 448.88 1708.23 447.594L1707.96 447.52L1706.89 451.456L1702.83 450.35L1710.73 421.408L1714.78 422.514L1711.47 434.67L1711.74 434.743C1712.57 433.81 1713.63 433.076 1714.91 432.541C1716.19 432.005 1717.72 431.98 1719.49 432.464C1721.27 432.948 1722.66 433.826 1723.67 435.096C1724.71 436.347 1725.33 437.858 1725.54 439.629C1725.77 441.406 1725.61 443.324 1725.05 445.382C1724.49 447.414 1723.66 449.137 1722.56 450.549C1721.48 451.969 1720.19 452.957 1718.68 453.513C1717.17 454.07 1715.55 454.109 1713.8 453.632ZM1713.39 449.955C1715.24 450.461 1716.82 450.145 1718.13 449.009C1719.46 447.879 1720.4 446.285 1720.97 444.227C1721.52 442.195 1721.52 440.371 1720.97 438.754C1720.42 437.112 1719.21 436.035 1717.33 435.523C1715.5 435.024 1713.91 435.336 1712.55 436.459C1711.22 437.588 1710.28 439.169 1709.73 441.202C1709.17 443.234 1709.18 445.075 1709.75 446.724C1710.35 448.38 1711.56 449.457 1713.39 449.955Z" fill="white"/>
<path d="M1737.04 459.432C1734.91 458.945 1733.23 458.028 1732.01 456.681C1730.78 455.334 1730.01 453.775 1729.67 452.002C1729.34 450.204 1729.39 448.382 1729.81 446.537C1730.24 444.691 1730.98 443.042 1732.05 441.591C1733.13 440.114 1734.51 439.035 1736.2 438.354C1737.91 437.679 1739.83 437.585 1741.97 438.073C1744.77 438.715 1746.8 440.149 1748.04 442.375C1749.29 444.575 1749.51 447.417 1748.72 450.9L1748.46 452.031L1733.48 448.607L1733.42 448.88C1733.18 449.92 1733.2 450.948 1733.46 451.965C1733.72 452.982 1734.21 453.874 1734.94 454.642C1735.67 455.384 1736.59 455.883 1737.71 456.139C1738.93 456.418 1740.05 456.36 1741.08 455.964C1742.1 455.542 1742.93 454.856 1743.56 453.905L1747.53 454.815C1746.57 456.62 1745.18 457.984 1743.36 458.907C1741.54 459.804 1739.43 459.979 1737.04 459.432ZM1745.15 448.362C1745.53 446.232 1745.35 444.59 1744.6 443.434C1743.88 442.258 1742.74 441.492 1741.18 441.135C1739.52 440.755 1738.06 440.995 1736.79 441.855C1735.56 442.72 1734.7 444.057 1734.23 445.865L1745.15 448.362Z" fill="white"/>
<path d="M1771.36 447.844L1769.47 458.964C1769.3 459.936 1769.22 460.653 1769.22 461.113C1769.25 461.578 1769.44 461.975 1769.79 462.305C1770.16 462.64 1770.83 462.888 1771.77 463.049C1772.43 463.161 1773.09 463.192 1773.74 463.142L1773.25 466.021C1773.06 466.068 1772.61 466.073 1771.91 466.035C1771.22 465.998 1770.53 465.921 1769.84 465.804C1768.19 465.522 1766.99 465.074 1766.26 464.462C1765.53 463.824 1765.11 463.103 1765 462.3C1764.93 461.476 1765 460.433 1765.21 459.171L1767.3 447.151L1763.56 446.513L1764.11 443.279L1767.85 443.918L1769.02 437.097L1773.08 437.789L1771.91 444.611L1776.76 445.438L1776.21 448.671L1771.36 447.844Z" fill="white"/>
<path d="M1788.14 468.633C1786 468.357 1784.25 467.622 1782.9 466.426C1781.55 465.23 1780.61 463.765 1780.08 462.03C1779.58 460.272 1779.45 458.441 1779.7 456.536C1779.94 454.606 1780.53 452.866 1781.46 451.318C1782.41 449.747 1783.69 448.555 1785.3 447.74C1786.92 446.899 1788.8 446.616 1790.94 446.892C1793.08 447.168 1794.83 447.916 1796.17 449.138C1797.53 450.334 1798.47 451.813 1798.99 453.574C1799.52 455.309 1799.66 457.129 1799.42 459.033C1799.17 460.938 1798.57 462.675 1797.62 464.246C1796.67 465.791 1795.38 466.983 1793.77 467.824C1792.16 468.639 1790.28 468.908 1788.14 468.633ZM1788.58 465.221C1790.41 465.456 1791.91 464.924 1793.1 463.625C1794.32 462.329 1795.06 460.61 1795.34 458.468C1795.61 456.326 1795.33 454.487 1794.47 452.953C1793.65 451.422 1792.32 450.539 1790.5 450.304C1788.7 450.072 1787.19 450.605 1785.98 451.9C1784.77 453.169 1784.02 454.862 1783.75 456.978C1783.48 459.12 1783.75 460.97 1784.57 462.527C1785.42 464.088 1786.76 464.986 1788.58 465.221Z" fill="white"/>
<path d="M1816.89 443.377L1823 443.631L1829.81 463.97L1829.93 463.975L1838.35 444.267L1844.46 444.521L1843.3 472.497L1839.23 472.328L1840.13 450.546L1839.97 450.54L1830.95 471.985L1828.08 471.865L1820.87 449.747L1820.71 449.741L1819.8 471.522L1815.73 471.353L1816.89 443.377Z" fill="white"/>
<path d="M1859.24 475.125C1858.83 476.149 1858.44 476.999 1858.06 477.675C1857.68 478.379 1857.01 479.049 1856.07 479.687C1855.15 480.35 1853.94 480.701 1852.42 480.74C1851.62 480.76 1850.76 480.675 1849.85 480.485L1849.77 477.486C1850.41 477.576 1850.98 477.615 1851.46 477.603C1852.34 477.581 1853.04 477.403 1853.56 477.07C1854.09 476.736 1854.49 476.299 1854.77 475.758C1855.08 475.244 1855.42 474.502 1855.79 473.532L1856.62 471.39L1848.35 451.354L1852.63 451.245L1858.46 466.742L1858.7 466.736L1864.02 450.955L1868.26 450.848L1859.24 475.125Z" fill="white"/>
<path d="M1881.37 443.073L1886.05 442.526L1902.29 462.256L1902.41 462.242L1899.92 440.907L1904.01 440.429L1907.26 468.24L1902.49 468.797L1886.38 449.495L1886.27 449.508L1888.7 470.407L1884.61 470.884L1881.37 443.073Z" fill="white"/>
<path d="M1923.36 465.676C1921.22 466.081 1919.31 465.91 1917.65 465.165C1915.99 464.419 1914.65 463.3 1913.64 461.809C1912.62 460.291 1911.94 458.602 1911.59 456.741C1911.24 454.88 1911.26 453.071 1911.66 451.313C1912.06 449.529 1912.9 447.988 1914.17 446.689C1915.47 445.386 1917.2 444.532 1919.35 444.127C1922.18 443.594 1924.61 444.1 1926.63 445.645C1928.66 447.164 1930 449.679 1930.66 453.191L1930.87 454.331L1915.78 457.173L1915.83 457.448C1916.03 458.496 1916.45 459.435 1917.09 460.263C1917.74 461.091 1918.55 461.712 1919.52 462.126C1920.49 462.514 1921.54 462.601 1922.66 462.389C1923.9 462.157 1924.9 461.656 1925.68 460.885C1926.45 460.089 1926.93 459.129 1927.13 458.007L1931.14 457.252C1930.98 459.29 1930.25 461.096 1928.94 462.672C1927.64 464.221 1925.78 465.222 1923.36 465.676ZM1926.38 452.287C1925.87 450.184 1925.05 448.752 1923.9 447.991C1922.78 447.199 1921.43 446.952 1919.85 447.248C1918.18 447.563 1916.93 448.368 1916.12 449.661C1915.33 450.949 1915.08 452.515 1915.37 454.36L1926.38 452.287Z" fill="white"/>
</svg>
